# MagicaVoxel @ Ephtracy

# group
g pre_puffin

# material
mtllib pre_puffin.mtl
usemtl palette

# normals
vn -1 0 0
vn 1 0 0
vn 0 0 1
vn 0 0 -1
vn 0 -1 0
vn 0 1 0

# texcoords
vt 0.478516 0.5
vt 0.482422 0.5
vt 0.486328 0.5
vt 0.490234 0.5
vt 0.494141 0.5
vt 0.498047 0.5

# verts
v -4 7 -1.5
v -4 7 -7.5
v -4 8 1.5
v -4 8 0.5
v -4 8 -1.5
v -4 8 -6.5
v -4 8 -7.5
v -4 9 1.5
v -4 9 0.5
v -4 9 -5.5
v -4 9 -6.5
v -4 10 1.5
v -4 10 -5.5
v -3 0 1.5
v -3 0 -2.5
v -3 1 1.5
v -3 1 -1.5
v -3 4 -1.5
v -3 4 -2.5
v -3 5 -1.5
v -3 5 -2.5
v -3 6 2.5
v -3 6 -1.5
v -3 6 -2.5
v -3 6 -3.5
v -3 7 -1.5
v -3 7 -3.5
v -3 8 1.5
v -3 8 0.5
v -3 8 -1.5
v -3 9 1.5
v -3 10 2.5
v -3 10 1.5
v -2 8 3.5
v -2 8 2.5
v -2 10 3.5
v -2 10 2.5
v -2 10 1.5
v -2 10 -2.5
v -2 11 3.5
v -2 11 0.5
v -2 11 -0.5
v -2 11 -2.5
v -2 12 2.5
v -2 12 1.5
v -2 13 2.5
v -2 13 1.5
v -2 14 3.5
v -2 14 0.5
v -2 14 -0.5
v -1 4 -5.5
v -1 4 -7.5
v -1 5 -4.5
v -1 5 -5.5
v -1 5 -6.5
v -1 5 -7.5
v -1 6 -3.5
v -1 6 -4.5
v -1 6 -5.5
v -1 6 -6.5
v -1 7 -3.5
v -1 7 -5.5
v -1 12 7.5
v -1 12 6.5
v -1 12 5.5
v -1 12 4.5
v -1 12 3.5
v -1 13 6.5
v -1 13 5.5
v -1 13 4.5
v -1 14 7.5
v -1 14 5.5
v -1 14 3.5
v 1 0 1.5
v 1 0 -2.5
v 1 1 1.5
v 1 1 -1.5
v 1 4 -1.5
v 1 4 -2.5
v 1 5 -1.5
v 1 5 -2.5
v 1 6 -1.5
v 1 6 -2.5
v 3 7 -3.5
v 3 7 -7.5
v 3 8 -3.5
v 3 8 -6.5
v 3 8 -7.5
v 3 9 -5.5
v 3 9 -6.5
v 3 10 -3.5
v 3 10 -5.5
v -3 7 -3.5
v -3 7 -7.5
v -3 8 -3.5
v -3 8 -6.5
v -3 8 -7.5
v -3 9 -5.5
v -3 9 -6.5
v -3 10 -3.5
v -3 10 -5.5
v -1 0 1.5
v -1 0 -2.5
v -1 1 1.5
v -1 1 -1.5
v -1 4 -1.5
v -1 4 -2.5
v -1 5 -1.5
v -1 5 -2.5
v -1 6 -1.5
v -1 6 -2.5
v 1 4 -5.5
v 1 4 -7.5
v 1 5 -4.5
v 1 5 -5.5
v 1 5 -6.5
v 1 5 -7.5
v 1 6 -3.5
v 1 6 -4.5
v 1 6 -5.5
v 1 6 -6.5
v 1 7 -3.5
v 1 7 -5.5
v 1 12 7.5
v 1 12 6.5
v 1 12 5.5
v 1 12 4.5
v 1 12 3.5
v 1 13 6.5
v 1 13 5.5
v 1 13 4.5
v 1 14 7.5
v 1 14 5.5
v 1 14 3.5
v 2 8 3.5
v 2 8 2.5
v 2 10 3.5
v 2 10 2.5
v 2 10 1.5
v 2 10 -2.5
v 2 11 3.5
v 2 11 0.5
v 2 11 -0.5
v 2 11 -2.5
v 2 12 2.5
v 2 12 1.5
v 2 13 2.5
v 2 13 1.5
v 2 14 3.5
v 2 14 0.5
v 2 14 -0.5
v 3 0 1.5
v 3 0 -2.5
v 3 1 1.5
v 3 1 -1.5
v 3 4 -1.5
v 3 4 -2.5
v 3 5 -1.5
v 3 5 -2.5
v 3 6 2.5
v 3 6 -1.5
v 3 6 -2.5
v 3 6 -3.5
v 3 7 -1.5
v 3 7 -3.5
v 3 8 1.5
v 3 8 0.5
v 3 8 -1.5
v 3 9 1.5
v 3 10 2.5
v 3 10 1.5
v 4 7 -1.5
v 4 7 -7.5
v 4 8 1.5
v 4 8 0.5
v 4 8 -1.5
v 4 8 -6.5
v 4 8 -7.5
v 4 9 1.5
v 4 9 0.5
v 4 9 -5.5
v 4 9 -6.5
v 4 10 1.5
v 4 10 -5.5
v -1 12 7.5
v -1 14 7.5
v 1 12 7.5
v 1 14 7.5
v -1 12 5.5
v -1 13 5.5
v 1 12 5.5
v 1 13 5.5
v -2 8 3.5
v -2 10 3.5
v -2 11 3.5
v -2 14 3.5
v -1 11 3.5
v -1 12 3.5
v -1 14 3.5
v 1 11 3.5
v 1 12 3.5
v 1 14 3.5
v 2 8 3.5
v 2 10 3.5
v 2 11 3.5
v 2 14 3.5
v -3 6 2.5
v -3 10 2.5
v -2 8 2.5
v -2 10 2.5
v 2 8 2.5
v 2 10 2.5
v 3 6 2.5
v 3 10 2.5
v -4 8 1.5
v -4 9 1.5
v -4 10 1.5
v -3 0 1.5
v -3 1 1.5
v -3 8 1.5
v -3 9 1.5
v -3 10 1.5
v -1 0 1.5
v -1 1 1.5
v 1 0 1.5
v 1 1 1.5
v 3 0 1.5
v 3 1 1.5
v 3 8 1.5
v 3 9 1.5
v 3 10 1.5
v 4 8 1.5
v 4 9 1.5
v 4 10 1.5
v -4 7 -1.5
v -4 8 -1.5
v -3 1 -1.5
v -3 4 -1.5
v -3 5 -1.5
v -3 6 -1.5
v -3 7 -1.5
v -3 8 -1.5
v -1 1 -1.5
v -1 4 -1.5
v -1 5 -1.5
v -1 6 -1.5
v 1 1 -1.5
v 1 4 -1.5
v 1 5 -1.5
v 1 6 -1.5
v 3 1 -1.5
v 3 4 -1.5
v 3 5 -1.5
v 3 6 -1.5
v 3 7 -1.5
v 3 8 -1.5
v 4 7 -1.5
v 4 8 -1.5
v -1 5 -4.5
v -1 6 -4.5
v 1 5 -4.5
v 1 6 -4.5
v -1 4 -5.5
v -1 5 -5.5
v 1 4 -5.5
v 1 5 -5.5
v -1 12 6.5
v -1 13 6.5
v 1 12 6.5
v 1 13 6.5
v -2 11 -0.5
v -2 14 -0.5
v 2 11 -0.5
v 2 14 -0.5
v -3 0 -2.5
v -3 4 -2.5
v -3 5 -2.5
v -3 6 -2.5
v -2 10 -2.5
v -2 11 -2.5
v -1 0 -2.5
v -1 4 -2.5
v -1 5 -2.5
v -1 6 -2.5
v 1 0 -2.5
v 1 4 -2.5
v 1 5 -2.5
v 1 6 -2.5
v 2 10 -2.5
v 2 11 -2.5
v 3 0 -2.5
v 3 4 -2.5
v 3 5 -2.5
v 3 6 -2.5
v -3 6 -3.5
v -3 7 -3.5
v -3 8 -3.5
v -3 10 -3.5
v -1 6 -3.5
v -1 7 -3.5
v 1 6 -3.5
v 1 7 -3.5
v 3 6 -3.5
v 3 7 -3.5
v 3 8 -3.5
v 3 10 -3.5
v -4 9 -5.5
v -4 10 -5.5
v -3 9 -5.5
v -3 10 -5.5
v -1 6 -5.5
v -1 7 -5.5
v 1 6 -5.5
v 1 7 -5.5
v 3 9 -5.5
v 3 10 -5.5
v 4 9 -5.5
v 4 10 -5.5
v -4 8 -6.5
v -4 9 -6.5
v -3 8 -6.5
v -3 9 -6.5
v -1 5 -6.5
v -1 6 -6.5
v 1 5 -6.5
v 1 6 -6.5
v 3 8 -6.5
v 3 9 -6.5
v 4 8 -6.5
v 4 9 -6.5
v -4 7 -7.5
v -4 8 -7.5
v -3 7 -7.5
v -3 8 -7.5
v -1 4 -7.5
v -1 5 -7.5
v 1 4 -7.5
v 1 5 -7.5
v 3 7 -7.5
v 3 8 -7.5
v 4 7 -7.5
v 4 8 -7.5
v -3 0 1.5
v -1 0 1.5
v 1 0 1.5
v 3 0 1.5
v -3 0 -2.5
v -1 0 -2.5
v 1 0 -2.5
v 3 0 -2.5
v -1 4 -5.5
v 1 4 -5.5
v -1 4 -7.5
v 1 4 -7.5
v -1 5 -4.5
v 1 5 -4.5
v -1 5 -5.5
v 1 5 -5.5
v -3 6 2.5
v 3 6 2.5
v -3 6 -1.5
v -1 6 -1.5
v 1 6 -1.5
v 3 6 -1.5
v -3 6 -2.5
v -1 6 -2.5
v 1 6 -2.5
v 3 6 -2.5
v -3 6 -3.5
v -1 6 -3.5
v 1 6 -3.5
v 3 6 -3.5
v -1 6 -4.5
v 1 6 -4.5
v -4 7 -1.5
v -3 7 -1.5
v 3 7 -1.5
v 4 7 -1.5
v -3 7 -3.5
v 3 7 -3.5
v -4 7 -7.5
v -3 7 -7.5
v 3 7 -7.5
v 4 7 -7.5
v -2 8 3.5
v 2 8 3.5
v -2 8 2.5
v 2 8 2.5
v -4 8 1.5
v -3 8 1.5
v 3 8 1.5
v 4 8 1.5
v -4 8 0.5
v -3 8 0.5
v 3 8 0.5
v 4 8 0.5
v -4 8 -1.5
v -3 8 -1.5
v 3 8 -1.5
v 4 8 -1.5
v -1 12 7.5
v 1 12 7.5
v -1 12 6.5
v 1 12 6.5
v -1 12 5.5
v 1 12 5.5
v -1 12 4.5
v 1 12 4.5
v -1 12 3.5
v 1 12 3.5
v -1 13 6.5
v 1 13 6.5
v -1 13 5.5
v 1 13 5.5
v -3 1 1.5
v -1 1 1.5
v 1 1 1.5
v 3 1 1.5
v -3 1 -1.5
v -1 1 -1.5
v 1 1 -1.5
v 3 1 -1.5
v -1 5 -6.5
v 1 5 -6.5
v -1 5 -7.5
v 1 5 -7.5
v -1 6 -5.5
v 1 6 -5.5
v -1 6 -6.5
v 1 6 -6.5
v -1 7 -3.5
v 1 7 -3.5
v -1 7 -5.5
v 1 7 -5.5
v -4 8 -6.5
v -3 8 -6.5
v 3 8 -6.5
v 4 8 -6.5
v -4 8 -7.5
v -3 8 -7.5
v 3 8 -7.5
v 4 8 -7.5
v -4 9 -5.5
v -3 9 -5.5
v 3 9 -5.5
v 4 9 -5.5
v -4 9 -6.5
v -3 9 -6.5
v 3 9 -6.5
v 4 9 -6.5
v -3 10 2.5
v -2 10 2.5
v 2 10 2.5
v 3 10 2.5
v -4 10 1.5
v -3 10 1.5
v -2 10 1.5
v 2 10 1.5
v 3 10 1.5
v 4 10 1.5
v -2 10 -2.5
v 2 10 -2.5
v -3 10 -3.5
v 3 10 -3.5
v -4 10 -5.5
v -3 10 -5.5
v 3 10 -5.5
v 4 10 -5.5
v -2 11 -0.5
v 2 11 -0.5
v -2 11 -2.5
v 2 11 -2.5
v -1 14 7.5
v 1 14 7.5
v -1 14 5.5
v 1 14 5.5
v -2 14 3.5
v -1 14 3.5
v 1 14 3.5
v 2 14 3.5
v -2 14 0.5
v -1 14 0.5
v 1 14 0.5
v 2 14 0.5
v -2 14 -0.5
v 2 14 -0.5

# faces
f 5/4/1 2/4/1 1/4/1
f 6/4/1 2/4/1 5/4/1
f 7/4/1 2/4/1 6/4/1
f 8/4/1 4/4/1 3/4/1
f 9/2/1 5/2/1 4/2/1
f 9/4/1 4/4/1 8/4/1
f 9/2/1 6/2/1 5/2/1
f 10/2/1 6/2/1 9/2/1
f 11/2/1 6/2/1 10/2/1
f 12/2/1 9/2/1 8/2/1
f 12/2/1 10/2/1 9/2/1
f 13/2/1 10/2/1 12/2/1
f 16/5/1 15/5/1 14/5/1
f 17/5/1 15/5/1 16/5/1
f 18/5/1 15/5/1 17/5/1
f 19/5/1 15/5/1 18/5/1
f 20/3/1 19/3/1 18/3/1
f 21/3/1 19/3/1 20/3/1
f 23/4/1 21/4/1 20/4/1
f 24/4/1 21/4/1 23/4/1
f 26/4/1 24/4/1 23/4/1
f 26/4/1 25/4/1 24/4/1
f 26/4/1 23/4/1 22/4/1
f 27/4/1 25/4/1 26/4/1
f 28/4/1 26/4/1 22/4/1
f 29/4/1 26/4/1 28/4/1
f 30/4/1 26/4/1 29/4/1
f 31/4/1 28/4/1 22/4/1
f 32/4/1 31/4/1 22/4/1
f 33/4/1 31/4/1 32/4/1
f 36/4/1 35/4/1 34/4/1
f 37/4/1 35/4/1 36/4/1
f 40/2/1 37/2/1 36/2/1
f 40/2/1 39/2/1 38/2/1
f 40/2/1 38/2/1 37/2/1
f 41/2/1 39/2/1 40/2/1
f 42/2/1 39/2/1 41/2/1
f 43/2/1 39/2/1 42/2/1
f 44/4/1 41/4/1 40/4/1
f 45/4/1 41/4/1 44/4/1
f 46/4/1 44/4/1 40/4/1
f 46/1/1 45/1/1 44/1/1
f 47/4/1 41/4/1 45/4/1
f 47/1/1 45/1/1 46/1/1
f 48/4/1 46/4/1 40/4/1
f 48/4/1 47/4/1 46/4/1
f 49/2/1 42/2/1 41/2/1
f 49/4/1 47/4/1 48/4/1
f 49/4/1 41/4/1 47/4/1
f 50/2/1 42/2/1 49/2/1
f 54/4/1 52/4/1 51/4/1
f 55/4/1 52/4/1 54/4/1
f 56/4/1 52/4/1 55/4/1
f 58/4/1 54/4/1 53/4/1
f 59/2/1 55/2/1 54/2/1
f 59/4/1 54/4/1 58/4/1
f 60/2/1 55/2/1 59/2/1
f 61/2/1 58/2/1 57/2/1
f 61/2/1 59/2/1 58/2/1
f 62/2/1 59/2/1 61/2/1
f 68/5/1 64/5/1 63/5/1
f 69/5/1 66/5/1 65/5/1
f 70/6/1 67/6/1 66/6/1
f 70/5/1 66/5/1 69/5/1
f 71/5/1 69/5/1 68/5/1
f 71/5/1 68/5/1 63/5/1
f 72/6/1 70/6/1 69/6/1
f 72/5/1 69/5/1 71/5/1
f 73/6/1 67/6/1 70/6/1
f 73/6/1 70/6/1 72/6/1
f 76/5/1 75/5/1 74/5/1
f 77/5/1 75/5/1 76/5/1
f 78/5/1 75/5/1 77/5/1
f 79/5/1 75/5/1 78/5/1
f 80/3/1 79/3/1 78/3/1
f 81/3/1 79/3/1 80/3/1
f 82/4/1 81/4/1 80/4/1
f 83/4/1 81/4/1 82/4/1
f 86/4/1 85/4/1 84/4/1
f 87/4/1 85/4/1 86/4/1
f 88/4/1 85/4/1 87/4/1
f 89/2/1 87/2/1 86/2/1
f 90/2/1 87/2/1 89/2/1
f 91/2/1 89/2/1 86/2/1
f 92/2/1 89/2/1 91/2/1
f 93/4/2 94/4/2 95/4/2
f 95/4/2 94/4/2 96/4/2
f 96/4/2 94/4/2 97/4/2
f 95/2/2 96/2/2 98/2/2
f 98/2/2 96/2/2 99/2/2
f 95/2/2 98/2/2 100/2/2
f 100/2/2 98/2/2 101/2/2
f 102/5/2 103/5/2 104/5/2
f 104/5/2 103/5/2 105/5/2
f 105/5/2 103/5/2 106/5/2
f 106/5/2 103/5/2 107/5/2
f 106/3/2 107/3/2 108/3/2
f 108/3/2 107/3/2 109/3/2
f 108/4/2 109/4/2 110/4/2
f 110/4/2 109/4/2 111/4/2
f 112/4/2 113/4/2 115/4/2
f 115/4/2 113/4/2 116/4/2
f 116/4/2 113/4/2 117/4/2
f 114/4/2 115/4/2 119/4/2
f 115/2/2 116/2/2 120/2/2
f 119/4/2 115/4/2 120/4/2
f 120/2/2 116/2/2 121/2/2
f 118/2/2 119/2/2 122/2/2
f 119/2/2 120/2/2 122/2/2
f 122/2/2 120/2/2 123/2/2
f 124/5/2 125/5/2 129/5/2
f 126/5/2 127/5/2 130/5/2
f 127/6/2 128/6/2 131/6/2
f 130/5/2 127/5/2 131/5/2
f 129/5/2 130/5/2 132/5/2
f 124/5/2 129/5/2 132/5/2
f 130/6/2 131/6/2 133/6/2
f 132/5/2 130/5/2 133/5/2
f 131/6/2 128/6/2 134/6/2
f 133/6/2 131/6/2 134/6/2
f 135/4/2 136/4/2 137/4/2
f 137/4/2 136/4/2 138/4/2
f 137/2/2 138/2/2 141/2/2
f 139/2/2 140/2/2 141/2/2
f 138/2/2 139/2/2 141/2/2
f 141/2/2 140/2/2 142/2/2
f 142/2/2 140/2/2 143/2/2
f 143/2/2 140/2/2 144/2/2
f 141/4/2 142/4/2 145/4/2
f 145/4/2 142/4/2 146/4/2
f 141/4/2 145/4/2 147/4/2
f 145/1/2 146/1/2 147/1/2
f 146/4/2 142/4/2 148/4/2
f 147/1/2 146/1/2 148/1/2
f 141/4/2 147/4/2 149/4/2
f 147/4/2 148/4/2 149/4/2
f 142/2/2 143/2/2 150/2/2
f 149/4/2 148/4/2 150/4/2
f 148/4/2 142/4/2 150/4/2
f 150/2/2 143/2/2 151/2/2
f 152/5/2 153/5/2 154/5/2
f 154/5/2 153/5/2 155/5/2
f 155/5/2 153/5/2 156/5/2
f 156/5/2 153/5/2 157/5/2
f 156/3/2 157/3/2 158/3/2
f 158/3/2 157/3/2 159/3/2
f 158/4/2 159/4/2 161/4/2
f 161/4/2 159/4/2 162/4/2
f 161/4/2 162/4/2 164/4/2
f 162/4/2 163/4/2 164/4/2
f 160/4/2 161/4/2 164/4/2
f 164/4/2 163/4/2 165/4/2
f 160/4/2 164/4/2 166/4/2
f 166/4/2 164/4/2 167/4/2
f 167/4/2 164/4/2 168/4/2
f 160/4/2 166/4/2 169/4/2
f 160/4/2 169/4/2 170/4/2
f 170/4/2 169/4/2 171/4/2
f 172/4/2 173/4/2 176/4/2
f 176/4/2 173/4/2 177/4/2
f 177/4/2 173/4/2 178/4/2
f 174/4/2 175/4/2 179/4/2
f 175/2/2 176/2/2 180/2/2
f 179/4/2 175/4/2 180/4/2
f 176/2/2 177/2/2 180/2/2
f 180/2/2 177/2/2 181/2/2
f 181/2/2 177/2/2 182/2/2
f 179/2/2 180/2/2 183/2/2
f 180/2/2 181/2/2 183/2/2
f 183/2/2 181/2/2 184/2/2
f 187/5/3 186/5/3 185/5/3
f 188/5/3 186/5/3 187/5/3
f 191/5/3 190/5/3 189/5/3
f 192/5/3 190/5/3 191/5/3
f 197/2/3 195/2/3 194/2/3
f 197/4/3 196/4/3 195/4/3
f 198/4/3 196/4/3 197/4/3
f 199/4/3 196/4/3 198/4/3
f 200/2/3 197/2/3 194/2/3
f 200/2/3 198/2/3 197/2/3
f 201/2/3 198/2/3 200/2/3
f 203/4/3 194/4/3 193/4/3
f 204/2/3 200/2/3 194/2/3
f 204/4/3 194/4/3 203/4/3
f 205/4/3 202/4/3 201/4/3
f 205/2/3 200/2/3 204/2/3
f 205/4/3 201/4/3 200/4/3
f 206/4/3 202/4/3 205/4/3
f 209/4/3 208/4/3 207/4/3
f 210/4/3 208/4/3 209/4/3
f 211/4/3 209/4/3 207/4/3
f 213/4/3 211/4/3 207/4/3
f 213/4/3 212/4/3 211/4/3
f 214/4/3 212/4/3 213/4/3
f 220/4/3 216/4/3 215/4/3
f 221/2/3 217/2/3 216/2/3
f 221/4/3 216/4/3 220/4/3
f 222/2/3 217/2/3 221/2/3
f 223/5/3 219/5/3 218/5/3
f 224/5/3 219/5/3 223/5/3
f 227/5/3 226/5/3 225/5/3
f 228/5/3 226/5/3 227/5/3
f 232/4/3 230/4/3 229/4/3
f 233/2/3 231/2/3 230/2/3
f 233/4/3 230/4/3 232/4/3
f 234/2/3 231/2/3 233/2/3
f 241/4/3 236/4/3 235/4/3
f 242/4/3 236/4/3 241/4/3
f 243/5/3 238/5/3 237/5/3
f 244/3/3 239/3/3 238/3/3
f 244/5/3 238/5/3 243/5/3
f 245/4/3 240/4/3 239/4/3
f 245/3/3 239/3/3 244/3/3
f 246/4/3 240/4/3 245/4/3
f 251/5/3 248/5/3 247/5/3
f 252/3/3 249/3/3 248/3/3
f 252/5/3 248/5/3 251/5/3
f 253/4/3 250/4/3 249/4/3
f 253/3/3 249/3/3 252/3/3
f 254/4/3 250/4/3 253/4/3
f 257/4/3 256/4/3 255/4/3
f 258/4/3 256/4/3 257/4/3
f 261/4/3 260/4/3 259/4/3
f 262/4/3 260/4/3 261/4/3
f 265/4/3 264/4/3 263/4/3
f 266/4/3 264/4/3 265/4/3
f 267/5/4 268/5/4 269/5/4
f 269/5/4 268/5/4 270/5/4
f 271/2/4 272/2/4 273/2/4
f 273/2/4 272/2/4 274/2/4
f 275/5/4 276/5/4 281/5/4
f 276/3/4 277/3/4 282/3/4
f 281/5/4 276/5/4 282/5/4
f 277/4/4 278/4/4 283/4/4
f 282/3/4 277/3/4 283/3/4
f 283/4/4 278/4/4 284/4/4
f 279/2/4 280/2/4 289/2/4
f 289/2/4 280/2/4 290/2/4
f 285/5/4 286/5/4 291/5/4
f 286/3/4 287/3/4 292/3/4
f 291/5/4 286/5/4 292/5/4
f 287/4/4 288/4/4 293/4/4
f 292/3/4 287/3/4 293/3/4
f 293/4/4 288/4/4 294/4/4
f 295/4/4 296/4/4 299/4/4
f 297/2/4 298/2/4 300/2/4
f 299/4/4 296/4/4 300/4/4
f 296/2/4 297/2/4 300/2/4
f 300/2/4 298/2/4 302/2/4
f 301/4/4 302/4/4 303/4/4
f 302/2/4 298/2/4 304/2/4
f 303/4/4 302/4/4 304/4/4
f 304/2/4 298/2/4 305/2/4
f 305/2/4 298/2/4 306/2/4
f 307/2/4 308/2/4 309/2/4
f 309/2/4 308/2/4 310/2/4
f 311/2/4 312/2/4 313/2/4
f 313/2/4 312/2/4 314/2/4
f 315/2/4 316/2/4 317/2/4
f 317/2/4 316/2/4 318/2/4
f 319/2/4 320/2/4 321/2/4
f 321/2/4 320/2/4 322/2/4
f 323/2/4 324/2/4 325/2/4
f 325/2/4 324/2/4 326/2/4
f 327/2/4 328/2/4 329/2/4
f 329/2/4 328/2/4 330/2/4
f 331/4/4 332/4/4 333/4/4
f 333/4/4 332/4/4 334/4/4
f 335/4/4 336/4/4 337/4/4
f 337/4/4 336/4/4 338/4/4
f 339/4/4 340/4/4 341/4/4
f 341/4/4 340/4/4 342/4/4
f 347/5/5 344/5/5 343/5/5
f 348/5/5 344/5/5 347/5/5
f 349/5/5 346/5/5 345/5/5
f 350/5/5 346/5/5 349/5/5
f 353/4/5 352/4/5 351/4/5
f 354/4/5 352/4/5 353/4/5
f 357/4/5 356/4/5 355/4/5
f 358/4/5 356/4/5 357/4/5
f 361/4/5 360/4/5 359/4/5
f 362/4/5 360/4/5 361/4/5
f 363/4/5 360/4/5 362/4/5
f 364/4/5 360/4/5 363/4/5
f 366/4/5 363/4/5 362/4/5
f 367/4/5 363/4/5 366/4/5
f 369/4/5 366/4/5 365/4/5
f 369/4/5 368/4/5 367/4/5
f 369/4/5 367/4/5 366/4/5
f 370/4/5 368/4/5 369/4/5
f 371/4/5 368/4/5 370/4/5
f 372/4/5 368/4/5 371/4/5
f 373/2/5 371/2/5 370/2/5
f 374/2/5 371/2/5 373/2/5
f 379/4/5 376/4/5 375/4/5
f 380/4/5 378/4/5 377/4/5
f 381/4/5 379/4/5 375/4/5
f 382/4/5 379/4/5 381/4/5
f 383/4/5 378/4/5 380/4/5
f 384/4/5 378/4/5 383/4/5
f 387/4/5 386/4/5 385/4/5
f 388/4/5 386/4/5 387/4/5
f 393/4/5 390/4/5 389/4/5
f 394/4/5 390/4/5 393/4/5
f 395/4/5 392/4/5 391/4/5
f 396/4/5 392/4/5 395/4/5
f 397/2/5 394/2/5 393/2/5
f 398/2/5 394/2/5 397/2/5
f 399/2/5 396/2/5 395/2/5
f 400/2/5 396/2/5 399/2/5
f 403/5/5 402/5/5 401/5/5
f 404/5/5 402/5/5 403/5/5
f 407/5/5 406/5/5 405/5/5
f 408/5/5 406/5/5 407/5/5
f 409/6/5 408/6/5 407/6/5
f 410/6/5 408/6/5 409/6/5
f 413/5/5 412/5/5 411/5/5
f 414/5/5 412/5/5 413/5/5
f 415/5/6 416/5/6 419/5/6
f 419/5/6 416/5/6 420/5/6
f 417/5/6 418/5/6 421/5/6
f 421/5/6 418/5/6 422/5/6
f 423/4/6 424/4/6 425/4/6
f 425/4/6 424/4/6 426/4/6
f 427/2/6 428/2/6 429/2/6
f 429/2/6 428/2/6 430/2/6
f 431/2/6 432/2/6 433/2/6
f 433/2/6 432/2/6 434/2/6
f 435/4/6 436/4/6 439/4/6
f 439/4/6 436/4/6 440/4/6
f 437/4/6 438/4/6 441/4/6
f 441/4/6 438/4/6 442/4/6
f 443/2/6 444/2/6 447/2/6
f 447/2/6 444/2/6 448/2/6
f 445/2/6 446/2/6 449/2/6
f 449/2/6 446/2/6 450/2/6
f 451/4/6 452/4/6 456/4/6
f 456/4/6 452/4/6 457/4/6
f 453/4/6 454/4/6 458/4/6
f 458/4/6 454/4/6 459/4/6
f 456/2/6 457/2/6 461/2/6
f 455/2/6 456/2/6 461/2/6
f 459/2/6 460/2/6 462/2/6
f 458/2/6 459/2/6 462/2/6
f 455/2/6 461/2/6 463/2/6
f 461/2/6 462/2/6 463/2/6
f 462/2/6 460/2/6 464/2/6
f 463/2/6 462/2/6 464/2/6
f 455/2/6 463/2/6 465/2/6
f 465/2/6 463/2/6 466/2/6
f 464/2/6 460/2/6 467/2/6
f 467/2/6 460/2/6 468/2/6
f 469/2/6 470/2/6 471/2/6
f 471/2/6 470/2/6 472/2/6
f 473/5/6 474/5/6 475/5/6
f 475/5/6 474/5/6 476/5/6
f 475/6/6 476/6/6 478/6/6
f 478/6/6 476/6/6 479/6/6
f 477/4/6 478/4/6 481/4/6
f 478/2/6 479/2/6 482/2/6
f 481/4/6 478/4/6 482/4/6
f 479/4/6 480/4/6 483/4/6
f 482/2/6 479/2/6 483/2/6
f 483/4/6 480/4/6 484/4/6
f 481/2/6 482/2/6 485/2/6
f 482/2/6 483/2/6 485/2/6
f 483/2/6 484/2/6 485/2/6
f 485/2/6 484/2/6 486/2/6
