# MagicaVoxel @ Ephtracy

# group
g pre_bear

# material
mtllib pre_bear.mtl
usemtl palette

# normals
vn -1 0 0
vn 1 0 0
vn 0 0 1
vn 0 0 -1
vn 0 -1 0
vn 0 1 0

# texcoords
vt 0.876953 0.5
vt 0.880859 0.5
vt 0.978516 0.5

# verts
v -7 7 5.5
v -7 7 -5.5
v -7 10 5.5
v -7 10 -5.5
v -6 0 7.5
v -6 0 -5.5
v -6 3 7.5
v -6 3 6.5
v -6 3 -1.5
v -6 4 7.5
v -6 4 6.5
v -6 7 -1.5
v -6 7 -5.5
v -6 10 5.5
v -6 10 -5.5
v -6 11 5.5
v -6 11 -1.5
v -6 13 -1.5
v -6 13 -5.5
v -5 3 6.5
v -5 3 -1.5
v -5 4 6.5
v -5 4 -1.5
v -5 13 -1.5
v -5 13 -5.5
v -5 14 -1.5
v -5 14 -5.5
v -4 14 0.5
v -4 14 -1.5
v -4 14 -5.5
v -4 14 -7.5
v -4 18 0.5
v -4 18 -1.5
v -4 20 0.5
v -4 20 -1.5
v -4 22 0.5
v -4 22 -3.5
v -4 22 -5.5
v -4 22 -7.5
v -4 24 -3.5
v -4 24 -5.5
v -2 14 4.5
v -2 14 0.5
v -2 16 4.5
v -2 16 2.5
v -2 18 4.5
v -2 18 2.5
v -2 18 0.5
v 1 22 -3.5
v 1 22 -5.5
v 1 24 -3.5
v 1 24 -5.5
v 2 0 7.5
v 2 0 -5.5
v 2 3 6.5
v 2 3 -1.5
v 2 4 7.5
v 2 4 6.5
v 2 4 -1.5
v 2 4 -5.5
v 3 3 6.5
v 3 3 -1.5
v 3 4 6.5
v 3 4 -1.5
v 3 7 5.5
v 3 7 4.5
v 3 7 -1.5
v 3 8 5.5
v 3 8 4.5
v 3 10 5.5
v 3 10 -1.5
v 4 10 5.5
v 4 10 -1.5
v 4 11 5.5
v 4 11 -1.5
v -4 10 5.5
v -4 10 -1.5
v -4 11 5.5
v -4 11 -1.5
v -3 3 6.5
v -3 3 -1.5
v -3 4 6.5
v -3 4 -1.5
v -3 7 5.5
v -3 7 4.5
v -3 7 -1.5
v -3 8 5.5
v -3 8 4.5
v -3 10 5.5
v -3 10 -1.5
v -2 0 7.5
v -2 0 -5.5
v -2 3 6.5
v -2 3 -1.5
v -2 4 7.5
v -2 4 6.5
v -2 4 -1.5
v -2 4 -5.5
v -1 22 -3.5
v -1 22 -5.5
v -1 24 -3.5
v -1 24 -5.5
v 2 14 4.5
v 2 14 0.5
v 2 16 4.5
v 2 16 2.5
v 2 18 4.5
v 2 18 2.5
v 2 18 0.5
v 4 14 0.5
v 4 14 -1.5
v 4 14 -5.5
v 4 14 -7.5
v 4 18 0.5
v 4 18 -1.5
v 4 20 0.5
v 4 20 -1.5
v 4 22 0.5
v 4 22 -3.5
v 4 22 -5.5
v 4 22 -7.5
v 4 24 -3.5
v 4 24 -5.5
v 5 3 6.5
v 5 3 -1.5
v 5 4 6.5
v 5 4 -1.5
v 5 13 -1.5
v 5 13 -5.5
v 5 14 -1.5
v 5 14 -5.5
v 6 0 7.5
v 6 0 -5.5
v 6 3 7.5
v 6 3 6.5
v 6 3 -1.5
v 6 4 7.5
v 6 4 6.5
v 6 7 -1.5
v 6 7 -5.5
v 6 10 5.5
v 6 10 -5.5
v 6 11 5.5
v 6 11 -1.5
v 6 13 -1.5
v 6 13 -5.5
v 7 7 5.5
v 7 7 -5.5
v 7 10 5.5
v 7 10 -5.5
v -6 0 7.5
v -6 3 7.5
v -6 4 7.5
v -5 3 7.5
v -5 4 7.5
v -4 3 7.5
v -4 4 7.5
v -3 3 7.5
v -3 4 7.5
v -2 0 7.5
v -2 4 7.5
v 2 0 7.5
v 2 4 7.5
v 3 3 7.5
v 3 4 7.5
v 4 3 7.5
v 4 4 7.5
v 5 3 7.5
v 5 4 7.5
v 6 0 7.5
v 6 3 7.5
v 6 4 7.5
v -7 7 5.5
v -7 10 5.5
v -6 7 5.5
v -6 8 5.5
v -6 10 5.5
v -6 11 5.5
v -5 7 5.5
v -5 8 5.5
v -4 7 5.5
v -4 8 5.5
v -4 10 5.5
v -4 11 5.5
v -3 7 5.5
v -3 8 5.5
v -3 10 5.5
v 3 7 5.5
v 3 8 5.5
v 3 10 5.5
v 4 7 5.5
v 4 8 5.5
v 4 10 5.5
v 4 11 5.5
v 5 7 5.5
v 5 8 5.5
v 6 7 5.5
v 6 8 5.5
v 6 10 5.5
v 6 11 5.5
v 7 7 5.5
v 7 10 5.5
v -2 14 4.5
v -2 16 4.5
v -2 18 4.5
v 2 14 4.5
v 2 16 4.5
v 2 18 4.5
v -4 14 0.5
v -4 18 0.5
v -4 20 0.5
v -4 22 0.5
v -2 14 0.5
v -2 18 0.5
v -2 20 0.5
v 2 14 0.5
v 2 18 0.5
v 2 20 0.5
v 4 14 0.5
v 4 18 0.5
v 4 20 0.5
v 4 22 0.5
v -6 3 -1.5
v -6 7 -1.5
v -6 11 -1.5
v -6 13 -1.5
v -5 3 -1.5
v -5 4 -1.5
v -5 13 -1.5
v -5 14 -1.5
v -4 10 -1.5
v -4 11 -1.5
v -4 14 -1.5
v -3 3 -1.5
v -3 4 -1.5
v -3 7 -1.5
v -3 10 -1.5
v -2 3 -1.5
v -2 4 -1.5
v 2 3 -1.5
v 2 4 -1.5
v 3 3 -1.5
v 3 4 -1.5
v 3 7 -1.5
v 3 10 -1.5
v 4 10 -1.5
v 4 11 -1.5
v 4 14 -1.5
v 5 3 -1.5
v 5 4 -1.5
v 5 13 -1.5
v 5 14 -1.5
v 6 3 -1.5
v 6 7 -1.5
v 6 11 -1.5
v 6 13 -1.5
v -4 22 -3.5
v -4 24 -3.5
v -1 22 -3.5
v -1 24 -3.5
v 1 22 -3.5
v 1 24 -3.5
v 4 22 -3.5
v 4 24 -3.5
v -6 3 6.5
v -6 4 6.5
v -5 3 6.5
v -5 4 6.5
v -3 3 6.5
v -3 4 6.5
v -2 3 6.5
v -2 4 6.5
v 2 3 6.5
v 2 4 6.5
v 3 3 6.5
v 3 4 6.5
v 5 3 6.5
v 5 4 6.5
v 6 3 6.5
v 6 4 6.5
v -7 7 -5.5
v -7 10 -5.5
v -6 0 -5.5
v -6 7 -5.5
v -6 10 -5.5
v -6 13 -5.5
v -5 13 -5.5
v -5 14 -5.5
v -4 14 -5.5
v -4 22 -5.5
v -4 24 -5.5
v -2 0 -5.5
v -2 4 -5.5
v -1 22 -5.5
v -1 24 -5.5
v 1 22 -5.5
v 1 24 -5.5
v 2 0 -5.5
v 2 4 -5.5
v 4 14 -5.5
v 4 22 -5.5
v 4 24 -5.5
v 5 13 -5.5
v 5 14 -5.5
v 6 0 -5.5
v 6 7 -5.5
v 6 10 -5.5
v 6 13 -5.5
v 7 7 -5.5
v 7 10 -5.5
v -4 14 -7.5
v -4 22 -7.5
v 4 14 -7.5
v 4 22 -7.5
v -6 0 7.5
v -2 0 7.5
v 2 0 7.5
v 6 0 7.5
v -6 0 -5.5
v -2 0 -5.5
v 2 0 -5.5
v 6 0 -5.5
v -2 4 -1.5
v 2 4 -1.5
v -2 4 -5.5
v 2 4 -5.5
v -7 7 5.5
v -6 7 5.5
v -5 7 5.5
v -4 7 5.5
v -3 7 5.5
v 3 7 5.5
v 4 7 5.5
v 5 7 5.5
v 6 7 5.5
v 7 7 5.5
v -6 7 4.5
v -5 7 4.5
v -4 7 4.5
v -3 7 4.5
v 3 7 4.5
v 4 7 4.5
v 5 7 4.5
v 6 7 4.5
v -6 7 -1.5
v -3 7 -1.5
v 3 7 -1.5
v 6 7 -1.5
v -7 7 -5.5
v -6 7 -5.5
v 6 7 -5.5
v 7 7 -5.5
v -2 14 4.5
v 2 14 4.5
v -1 14 3.5
v 1 14 3.5
v -4 14 0.5
v -2 14 0.5
v -1 14 0.5
v 1 14 0.5
v 2 14 0.5
v 4 14 0.5
v -4 14 -1.5
v 4 14 -1.5
v -4 14 -5.5
v 4 14 -5.5
v -4 14 -7.5
v 4 14 -7.5
v -6 3 6.5
v -5 3 6.5
v -3 3 6.5
v -2 3 6.5
v 2 3 6.5
v 3 3 6.5
v 5 3 6.5
v 6 3 6.5
v -6 3 -1.5
v -5 3 -1.5
v -3 3 -1.5
v -2 3 -1.5
v 2 3 -1.5
v 3 3 -1.5
v 5 3 -1.5
v 6 3 -1.5
v -6 4 7.5
v -5 4 7.5
v -4 4 7.5
v -3 4 7.5
v -2 4 7.5
v 2 4 7.5
v 3 4 7.5
v 4 4 7.5
v 5 4 7.5
v 6 4 7.5
v -6 4 6.5
v -5 4 6.5
v -4 4 6.5
v -3 4 6.5
v -2 4 6.5
v 2 4 6.5
v 3 4 6.5
v 4 4 6.5
v 5 4 6.5
v 6 4 6.5
v -5 4 -1.5
v -3 4 -1.5
v 3 4 -1.5
v 5 4 -1.5
v -7 10 5.5
v -6 10 5.5
v -4 10 5.5
v -3 10 5.5
v 3 10 5.5
v 4 10 5.5
v 6 10 5.5
v 7 10 5.5
v -4 10 -1.5
v -3 10 -1.5
v 3 10 -1.5
v 4 10 -1.5
v -7 10 -5.5
v -6 10 -5.5
v 6 10 -5.5
v 7 10 -5.5
v -6 11 5.5
v -4 11 5.5
v 4 11 5.5
v 6 11 5.5
v -6 11 -1.5
v -4 11 -1.5
v 4 11 -1.5
v 6 11 -1.5
v -6 13 -1.5
v -5 13 -1.5
v 5 13 -1.5
v 6 13 -1.5
v -6 13 -5.5
v -5 13 -5.5
v 5 13 -5.5
v 6 13 -5.5
v -5 14 -1.5
v -4 14 -1.5
v 4 14 -1.5
v 5 14 -1.5
v -5 14 -5.5
v -4 14 -5.5
v 4 14 -5.5
v 5 14 -5.5
v -2 18 4.5
v 2 18 4.5
v -2 18 2.5
v 2 18 2.5
v -2 18 0.5
v 2 18 0.5
v -4 22 0.5
v 4 22 0.5
v -4 22 -3.5
v -1 22 -3.5
v 1 22 -3.5
v 4 22 -3.5
v -4 22 -5.5
v -1 22 -5.5
v 1 22 -5.5
v 4 22 -5.5
v -4 22 -7.5
v 4 22 -7.5
v -4 24 -3.5
v -1 24 -3.5
v 1 24 -3.5
v 4 24 -3.5
v -4 24 -5.5
v -1 24 -5.5
v 1 24 -5.5
v 4 24 -5.5

# faces
f 3/1/1 2/1/1 1/1/1
f 4/1/1 2/1/1 3/1/1
f 7/1/1 6/1/1 5/1/1
f 8/1/1 6/1/1 7/1/1
f 9/1/1 6/1/1 8/1/1
f 10/3/1 8/3/1 7/3/1
f 11/3/1 8/3/1 10/3/1
f 12/1/1 6/1/1 9/1/1
f 13/1/1 6/1/1 12/1/1
f 16/1/1 15/1/1 14/1/1
f 17/1/1 15/1/1 16/1/1
f 18/1/1 15/1/1 17/1/1
f 19/1/1 15/1/1 18/1/1
f 22/1/1 21/1/1 20/1/1
f 23/1/1 21/1/1 22/1/1
f 26/1/1 25/1/1 24/1/1
f 27/1/1 25/1/1 26/1/1
f 32/1/1 29/1/1 28/1/1
f 32/1/1 31/1/1 30/1/1
f 32/1/1 30/1/1 29/1/1
f 33/1/1 31/1/1 32/1/1
f 34/3/1 33/3/1 32/3/1
f 35/1/1 31/1/1 33/1/1
f 35/3/1 33/3/1 34/3/1
f 36/1/1 35/1/1 34/1/1
f 37/1/1 31/1/1 35/1/1
f 37/1/1 35/1/1 36/1/1
f 38/1/1 31/1/1 37/1/1
f 39/1/1 31/1/1 38/1/1
f 40/1/1 38/1/1 37/1/1
f 41/1/1 38/1/1 40/1/1
f 44/2/1 43/2/1 42/2/1
f 45/2/1 43/2/1 44/2/1
f 46/3/1 45/3/1 44/3/1
f 47/2/1 43/2/1 45/2/1
f 47/3/1 45/3/1 46/3/1
f 48/2/1 43/2/1 47/2/1
f 51/1/1 50/1/1 49/1/1
f 52/1/1 50/1/1 51/1/1
f 55/1/1 54/1/1 53/1/1
f 56/1/1 54/1/1 55/1/1
f 57/1/1 55/1/1 53/1/1
f 58/1/1 55/1/1 57/1/1
f 59/1/1 54/1/1 56/1/1
f 60/1/1 54/1/1 59/1/1
f 63/1/1 62/1/1 61/1/1
f 64/1/1 62/1/1 63/1/1
f 68/3/1 66/3/1 65/3/1
f 69/1/1 67/1/1 66/1/1
f 69/3/1 66/3/1 68/3/1
f 70/1/1 69/1/1 68/1/1
f 71/1/1 67/1/1 69/1/1
f 71/1/1 69/1/1 70/1/1
f 74/1/1 73/1/1 72/1/1
f 75/1/1 73/1/1 74/1/1
f 76/1/2 77/1/2 78/1/2
f 78/1/2 77/1/2 79/1/2
f 80/1/2 81/1/2 82/1/2
f 82/1/2 81/1/2 83/1/2
f 84/3/2 85/3/2 87/3/2
f 85/1/2 86/1/2 88/1/2
f 87/3/2 85/3/2 88/3/2
f 87/1/2 88/1/2 89/1/2
f 88/1/2 86/1/2 90/1/2
f 89/1/2 88/1/2 90/1/2
f 91/1/2 92/1/2 93/1/2
f 93/1/2 92/1/2 94/1/2
f 91/1/2 93/1/2 95/1/2
f 95/1/2 93/1/2 96/1/2
f 94/1/2 92/1/2 97/1/2
f 97/1/2 92/1/2 98/1/2
f 99/1/2 100/1/2 101/1/2
f 101/1/2 100/1/2 102/1/2
f 103/2/2 104/2/2 105/2/2
f 105/2/2 104/2/2 106/2/2
f 105/3/2 106/3/2 107/3/2
f 106/2/2 104/2/2 108/2/2
f 107/3/2 106/3/2 108/3/2
f 108/2/2 104/2/2 109/2/2
f 110/1/2 111/1/2 114/1/2
f 112/1/2 113/1/2 114/1/2
f 111/1/2 112/1/2 114/1/2
f 114/1/2 113/1/2 115/1/2
f 114/3/2 115/3/2 116/3/2
f 115/1/2 113/1/2 117/1/2
f 116/3/2 115/3/2 117/3/2
f 116/1/2 117/1/2 118/1/2
f 117/1/2 113/1/2 119/1/2
f 118/1/2 117/1/2 119/1/2
f 119/1/2 113/1/2 120/1/2
f 120/1/2 113/1/2 121/1/2
f 119/1/2 120/1/2 122/1/2
f 122/1/2 120/1/2 123/1/2
f 124/1/2 125/1/2 126/1/2
f 126/1/2 125/1/2 127/1/2
f 128/1/2 129/1/2 130/1/2
f 130/1/2 129/1/2 131/1/2
f 132/1/2 133/1/2 134/1/2
f 134/1/2 133/1/2 135/1/2
f 135/1/2 133/1/2 136/1/2
f 134/3/2 135/3/2 137/3/2
f 137/3/2 135/3/2 138/3/2
f 136/1/2 133/1/2 139/1/2
f 139/1/2 133/1/2 140/1/2
f 141/1/2 142/1/2 143/1/2
f 143/1/2 142/1/2 144/1/2
f 144/1/2 142/1/2 145/1/2
f 145/1/2 142/1/2 146/1/2
f 147/1/2 148/1/2 149/1/2
f 149/1/2 148/1/2 150/1/2
f 154/1/3 152/1/3 151/1/3
f 154/3/3 153/3/3 152/3/3
f 155/3/3 153/3/3 154/3/3
f 156/1/3 154/1/3 151/1/3
f 156/1/3 155/1/3 154/1/3
f 157/1/3 155/1/3 156/1/3
f 158/1/3 156/1/3 151/1/3
f 158/3/3 157/3/3 156/3/3
f 159/3/3 157/3/3 158/3/3
f 160/1/3 158/1/3 151/1/3
f 160/1/3 159/1/3 158/1/3
f 161/1/3 159/1/3 160/1/3
f 164/1/3 163/1/3 162/1/3
f 165/1/3 163/1/3 164/1/3
f 166/1/3 164/1/3 162/1/3
f 166/3/3 165/3/3 164/3/3
f 167/3/3 165/3/3 166/3/3
f 168/1/3 166/1/3 162/1/3
f 168/1/3 167/1/3 166/1/3
f 169/1/3 167/1/3 168/1/3
f 170/1/3 168/1/3 162/1/3
f 171/3/3 169/3/3 168/3/3
f 171/1/3 168/1/3 170/1/3
f 172/3/3 169/3/3 171/3/3
f 175/1/3 174/1/3 173/1/3
f 176/1/3 174/1/3 175/1/3
f 177/1/3 174/1/3 176/1/3
f 179/3/3 176/3/3 175/3/3
f 180/1/3 178/1/3 177/1/3
f 180/3/3 176/3/3 179/3/3
f 180/1/3 177/1/3 176/1/3
f 181/1/3 180/1/3 179/1/3
f 182/1/3 178/1/3 180/1/3
f 182/1/3 180/1/3 181/1/3
f 183/1/3 178/1/3 182/1/3
f 184/1/3 178/1/3 183/1/3
f 185/3/3 182/3/3 181/3/3
f 186/1/3 183/1/3 182/1/3
f 186/3/3 182/3/3 185/3/3
f 187/1/3 183/1/3 186/1/3
f 191/3/3 189/3/3 188/3/3
f 192/1/3 190/1/3 189/1/3
f 192/3/3 189/3/3 191/3/3
f 193/1/3 190/1/3 192/1/3
f 195/1/3 193/1/3 192/1/3
f 195/1/3 194/1/3 193/1/3
f 195/1/3 192/1/3 191/1/3
f 196/1/3 194/1/3 195/1/3
f 197/3/3 196/3/3 195/3/3
f 198/1/3 194/1/3 196/1/3
f 198/3/3 196/3/3 197/3/3
f 199/1/3 194/1/3 198/1/3
f 200/1/3 194/1/3 199/1/3
f 201/1/3 198/1/3 197/1/3
f 201/1/3 199/1/3 198/1/3
f 202/1/3 199/1/3 201/1/3
f 206/2/3 204/2/3 203/2/3
f 207/3/3 205/3/3 204/3/3
f 207/2/3 204/2/3 206/2/3
f 208/3/3 205/3/3 207/3/3
f 213/1/3 210/1/3 209/1/3
f 214/3/3 211/3/3 210/3/3
f 214/1/3 210/1/3 213/1/3
f 215/1/3 212/1/3 211/1/3
f 215/3/3 211/3/3 214/3/3
f 217/1/3 215/1/3 214/1/3
f 218/1/3 212/1/3 215/1/3
f 218/1/3 215/1/3 217/1/3
f 219/1/3 217/1/3 216/1/3
f 220/3/3 218/3/3 217/3/3
f 220/1/3 217/1/3 219/1/3
f 221/1/3 212/1/3 218/1/3
f 221/3/3 218/3/3 220/3/3
f 222/1/3 212/1/3 221/1/3
f 227/1/3 224/1/3 223/1/3
f 228/1/3 224/1/3 227/1/3
f 229/1/3 226/1/3 225/1/3
f 232/1/3 230/1/3 229/1/3
f 232/1/3 229/1/3 225/1/3
f 233/1/3 230/1/3 232/1/3
f 235/1/3 224/1/3 228/1/3
f 236/1/3 224/1/3 235/1/3
f 237/1/3 232/1/3 231/1/3
f 237/1/3 233/1/3 232/1/3
f 238/1/3 236/1/3 235/1/3
f 238/1/3 237/1/3 236/1/3
f 238/1/3 235/1/3 234/1/3
f 239/1/3 237/1/3 238/1/3
f 241/1/3 237/1/3 239/1/3
f 242/1/3 241/1/3 240/1/3
f 243/1/3 237/1/3 241/1/3
f 243/1/3 241/1/3 242/1/3
f 244/1/3 237/1/3 243/1/3
f 245/1/3 233/1/3 237/1/3
f 245/1/3 237/1/3 244/1/3
f 246/1/3 233/1/3 245/1/3
f 247/1/3 233/1/3 246/1/3
f 248/1/3 233/1/3 247/1/3
f 250/1/3 244/1/3 243/1/3
f 251/1/3 248/1/3 247/1/3
f 252/1/3 248/1/3 251/1/3
f 253/1/3 250/1/3 249/1/3
f 254/1/3 244/1/3 250/1/3
f 254/1/3 250/1/3 253/1/3
f 255/1/3 251/1/3 247/1/3
f 256/1/3 251/1/3 255/1/3
f 259/1/3 258/1/3 257/1/3
f 260/1/3 258/1/3 259/1/3
f 263/1/3 262/1/3 261/1/3
f 264/1/3 262/1/3 263/1/3
f 265/3/4 266/3/4 267/3/4
f 267/3/4 266/3/4 268/3/4
f 269/1/4 270/1/4 271/1/4
f 271/1/4 270/1/4 272/1/4
f 273/1/4 274/1/4 275/1/4
f 275/1/4 274/1/4 276/1/4
f 277/3/4 278/3/4 279/3/4
f 279/3/4 278/3/4 280/3/4
f 281/1/4 282/1/4 284/1/4
f 284/1/4 282/1/4 285/1/4
f 283/1/4 284/1/4 287/1/4
f 285/1/4 286/1/4 287/1/4
f 284/1/4 285/1/4 287/1/4
f 287/1/4 288/1/4 289/1/4
f 283/1/4 287/1/4 292/1/4
f 287/1/4 289/1/4 292/1/4
f 292/1/4 289/1/4 293/1/4
f 290/1/4 291/1/4 294/1/4
f 294/1/4 291/1/4 295/1/4
f 293/1/4 289/1/4 299/1/4
f 299/1/4 289/1/4 300/1/4
f 298/1/4 299/1/4 300/1/4
f 296/1/4 297/1/4 301/1/4
f 301/1/4 297/1/4 302/1/4
f 298/1/4 300/1/4 303/1/4
f 303/1/4 300/1/4 304/1/4
f 298/1/4 303/1/4 305/1/4
f 305/1/4 303/1/4 306/1/4
f 306/1/4 303/1/4 307/1/4
f 307/1/4 303/1/4 308/1/4
f 306/1/4 307/1/4 309/1/4
f 309/1/4 307/1/4 310/1/4
f 311/1/4 312/1/4 313/1/4
f 313/1/4 312/1/4 314/1/4
f 319/1/5 316/1/5 315/1/5
f 320/1/5 316/1/5 319/1/5
f 321/1/5 318/1/5 317/1/5
f 322/1/5 318/1/5 321/1/5
f 325/1/5 324/1/5 323/1/5
f 326/1/5 324/1/5 325/1/5
f 337/1/5 328/1/5 327/1/5
f 337/3/5 329/3/5 328/3/5
f 338/1/5 330/1/5 329/1/5
f 338/3/5 329/3/5 337/3/5
f 339/3/5 331/3/5 330/3/5
f 339/1/5 330/1/5 338/1/5
f 340/3/5 331/3/5 339/3/5
f 341/3/5 333/3/5 332/3/5
f 342/1/5 334/1/5 333/1/5
f 342/3/5 333/3/5 341/3/5
f 343/3/5 335/3/5 334/3/5
f 343/1/5 334/1/5 342/1/5
f 344/1/5 336/1/5 335/1/5
f 344/3/5 335/3/5 343/3/5
f 345/1/5 337/1/5 327/1/5
f 345/1/5 338/1/5 337/1/5
f 345/1/5 340/1/5 339/1/5
f 345/1/5 339/1/5 338/1/5
f 346/1/5 340/1/5 345/1/5
f 347/1/5 343/1/5 342/1/5
f 347/1/5 342/1/5 341/1/5
f 347/1/5 344/1/5 343/1/5
f 348/1/5 336/1/5 344/1/5
f 348/1/5 344/1/5 347/1/5
f 349/1/5 345/1/5 327/1/5
f 350/1/5 345/1/5 349/1/5
f 351/1/5 336/1/5 348/1/5
f 352/1/5 336/1/5 351/1/5
f 355/2/5 354/2/5 353/2/5
f 356/2/5 354/2/5 355/2/5
f 358/2/5 355/2/5 353/2/5
f 359/1/5 356/1/5 355/1/5
f 359/2/5 355/2/5 358/2/5
f 360/2/5 354/2/5 356/2/5
f 360/1/5 356/1/5 359/1/5
f 361/2/5 354/2/5 360/2/5
f 363/1/5 359/1/5 358/1/5
f 363/1/5 362/1/5 361/1/5
f 363/1/5 361/1/5 360/1/5
f 363/1/5 360/1/5 359/1/5
f 363/1/5 358/1/5 357/1/5
f 364/1/5 362/1/5 363/1/5
f 367/1/5 366/1/5 365/1/5
f 368/1/5 366/1/5 367/1/5
f 369/1/6 370/1/6 377/1/6
f 377/1/6 370/1/6 378/1/6
f 371/1/6 372/1/6 379/1/6
f 379/1/6 372/1/6 380/1/6
f 373/1/6 374/1/6 381/1/6
f 381/1/6 374/1/6 382/1/6
f 375/1/6 376/1/6 383/1/6
f 383/1/6 376/1/6 384/1/6
f 385/3/6 386/3/6 395/3/6
f 386/1/6 387/1/6 396/1/6
f 395/3/6 386/3/6 396/3/6
f 387/3/6 388/3/6 397/3/6
f 396/1/6 387/1/6 397/1/6
f 388/1/6 389/1/6 398/1/6
f 397/3/6 388/3/6 398/3/6
f 398/1/6 389/1/6 399/1/6
f 390/1/6 391/1/6 400/1/6
f 391/3/6 392/3/6 401/3/6
f 400/1/6 391/1/6 401/1/6
f 392/1/6 393/1/6 402/1/6
f 401/3/6 392/3/6 402/3/6
f 393/3/6 394/3/6 403/3/6
f 402/1/6 393/1/6 403/1/6
f 403/3/6 394/3/6 404/3/6
f 396/1/6 397/1/6 405/1/6
f 397/1/6 398/1/6 405/1/6
f 405/1/6 398/1/6 406/1/6
f 401/1/6 402/1/6 407/1/6
f 402/1/6 403/1/6 407/1/6
f 407/1/6 403/1/6 408/1/6
f 411/1/6 412/1/6 417/1/6
f 417/1/6 412/1/6 418/1/6
f 413/1/6 414/1/6 419/1/6
f 419/1/6 414/1/6 420/1/6
f 409/1/6 410/1/6 421/1/6
f 421/1/6 410/1/6 422/1/6
f 415/1/6 416/1/6 423/1/6
f 423/1/6 416/1/6 424/1/6
f 425/1/6 426/1/6 429/1/6
f 429/1/6 426/1/6 430/1/6
f 427/1/6 428/1/6 431/1/6
f 431/1/6 428/1/6 432/1/6
f 433/1/6 434/1/6 437/1/6
f 437/1/6 434/1/6 438/1/6
f 435/1/6 436/1/6 439/1/6
f 439/1/6 436/1/6 440/1/6
f 441/1/6 442/1/6 445/1/6
f 445/1/6 442/1/6 446/1/6
f 443/1/6 444/1/6 447/1/6
f 447/1/6 444/1/6 448/1/6
f 449/3/6 450/3/6 451/3/6
f 451/3/6 450/3/6 452/3/6
f 451/2/6 452/2/6 453/2/6
f 453/2/6 452/2/6 454/2/6
f 455/1/6 456/1/6 457/1/6
f 457/1/6 456/1/6 458/1/6
f 458/1/6 456/1/6 459/1/6
f 459/1/6 456/1/6 460/1/6
f 458/1/6 459/1/6 462/1/6
f 462/1/6 459/1/6 463/1/6
f 461/1/6 462/1/6 465/1/6
f 463/1/6 464/1/6 465/1/6
f 462/1/6 463/1/6 465/1/6
f 465/1/6 464/1/6 466/1/6
f 467/1/6 468/1/6 471/1/6
f 471/1/6 468/1/6 472/1/6
f 469/1/6 470/1/6 473/1/6
f 473/1/6 470/1/6 474/1/6
