# MagicaVoxel @ Ephtracy

# group
g pre_bear

# material
mtllib pre_bear.mtl
usemtl palette

# normals
vn -1 0 0
vn 1 0 0
vn 0 0 1
vn 0 0 -1
vn 0 -1 0
vn 0 1 0

# texcoords
vt 0.876953 0.5
vt 0.880859 0.5
vt 0.978516 0.5

# verts
v -7 7 5.5
v -7 7 -5.5
v -7 11 5.5
v -7 11 -5.5
v -6 0 7.5
v -6 0 -5.5
v -6 3 7.5
v -6 3 6.5
v -6 3 -1.5
v -6 4 7.5
v -6 4 6.5
v -6 7 -1.5
v -6 7 -5.5
v -6 11 -1.5
v -6 11 -5.5
v -6 14 -1.5
v -6 14 -5.5
v -5 3 6.5
v -5 3 -1.5
v -5 4 6.5
v -5 4 -1.5
v -4 14 0.5
v -4 14 -1.5
v -4 14 -5.5
v -4 14 -7.5
v -4 22 0.5
v -4 22 -3.5
v -4 22 -5.5
v -4 22 -7.5
v -4 24 -3.5
v -4 24 -5.5
v -2 14 4.5
v -2 14 0.5
v -2 16 4.5
v -2 16 2.5
v -2 18 4.5
v -2 18 2.5
v -2 18 0.5
v 1 22 -3.5
v 1 22 -5.5
v 1 24 -3.5
v 1 24 -5.5
v 2 0 7.5
v 2 0 -5.5
v 2 3 6.5
v 2 3 -1.5
v 2 4 7.5
v 2 4 6.5
v 2 4 -1.5
v 2 4 -5.5
v 3 3 6.5
v 3 3 -1.5
v 3 4 6.5
v 3 4 -1.5
v 3 7 5.5
v 3 7 4.5
v 3 7 -1.5
v 3 8 5.5
v 3 8 4.5
v 3 11 5.5
v 3 11 -1.5
v -3 3 6.5
v -3 3 -1.5
v -3 4 6.5
v -3 4 -1.5
v -3 7 5.5
v -3 7 4.5
v -3 7 -1.5
v -3 8 5.5
v -3 8 4.5
v -3 11 5.5
v -3 11 -1.5
v -2 0 7.5
v -2 0 -5.5
v -2 3 6.5
v -2 3 -1.5
v -2 4 7.5
v -2 4 6.5
v -2 4 -1.5
v -2 4 -5.5
v -1 22 -3.5
v -1 22 -5.5
v -1 24 -3.5
v -1 24 -5.5
v 2 14 4.5
v 2 14 0.5
v 2 16 4.5
v 2 16 2.5
v 2 18 4.5
v 2 18 2.5
v 2 18 0.5
v 4 14 0.5
v 4 14 -1.5
v 4 14 -5.5
v 4 14 -7.5
v 4 22 0.5
v 4 22 -3.5
v 4 22 -5.5
v 4 22 -7.5
v 4 24 -3.5
v 4 24 -5.5
v 5 3 6.5
v 5 3 -1.5
v 5 4 6.5
v 5 4 -1.5
v 6 0 7.5
v 6 0 -5.5
v 6 3 7.5
v 6 3 6.5
v 6 3 -1.5
v 6 4 7.5
v 6 4 6.5
v 6 7 -1.5
v 6 7 -5.5
v 6 11 -1.5
v 6 11 -5.5
v 6 14 -1.5
v 6 14 -5.5
v 7 7 5.5
v 7 7 -5.5
v 7 11 5.5
v 7 11 -5.5
v -6 0 7.5
v -6 3 7.5
v -6 4 7.5
v -5 3 7.5
v -5 4 7.5
v -4 3 7.5
v -4 4 7.5
v -3 3 7.5
v -3 4 7.5
v -2 0 7.5
v -2 4 7.5
v 2 0 7.5
v 2 4 7.5
v 3 3 7.5
v 3 4 7.5
v 4 3 7.5
v 4 4 7.5
v 5 3 7.5
v 5 4 7.5
v 6 0 7.5
v 6 3 7.5
v 6 4 7.5
v -7 7 5.5
v -7 11 5.5
v -6 7 5.5
v -6 8 5.5
v -5 7 5.5
v -5 8 5.5
v -4 7 5.5
v -4 8 5.5
v -3 7 5.5
v -3 8 5.5
v -3 11 5.5
v 3 7 5.5
v 3 8 5.5
v 3 11 5.5
v 4 7 5.5
v 4 8 5.5
v 5 7 5.5
v 5 8 5.5
v 6 7 5.5
v 6 8 5.5
v 7 7 5.5
v 7 11 5.5
v -2 14 4.5
v -2 16 4.5
v -2 18 4.5
v 2 14 4.5
v 2 16 4.5
v 2 18 4.5
v -4 14 0.5
v -4 22 0.5
v -2 14 0.5
v -2 18 0.5
v 2 14 0.5
v 2 18 0.5
v 4 14 0.5
v 4 22 0.5
v -6 3 -1.5
v -6 7 -1.5
v -6 11 -1.5
v -6 14 -1.5
v -5 3 -1.5
v -5 4 -1.5
v -4 14 -1.5
v -3 3 -1.5
v -3 4 -1.5
v -3 7 -1.5
v -3 11 -1.5
v -2 3 -1.5
v -2 4 -1.5
v 2 3 -1.5
v 2 4 -1.5
v 3 3 -1.5
v 3 4 -1.5
v 3 7 -1.5
v 3 11 -1.5
v 4 14 -1.5
v 5 3 -1.5
v 5 4 -1.5
v 6 3 -1.5
v 6 7 -1.5
v 6 11 -1.5
v 6 14 -1.5
v -4 22 -3.5
v -4 24 -3.5
v -1 22 -3.5
v -1 24 -3.5
v 1 22 -3.5
v 1 24 -3.5
v 4 22 -3.5
v 4 24 -3.5
v -6 3 6.5
v -6 4 6.5
v -5 3 6.5
v -5 4 6.5
v -3 3 6.5
v -3 4 6.5
v -2 3 6.5
v -2 4 6.5
v 2 3 6.5
v 2 4 6.5
v 3 3 6.5
v 3 4 6.5
v 5 3 6.5
v 5 4 6.5
v 6 3 6.5
v 6 4 6.5
v -7 7 -5.5
v -7 11 -5.5
v -6 0 -5.5
v -6 7 -5.5
v -6 11 -5.5
v -6 14 -5.5
v -4 14 -5.5
v -4 22 -5.5
v -4 24 -5.5
v -2 0 -5.5
v -2 4 -5.5
v -1 22 -5.5
v -1 24 -5.5
v 1 22 -5.5
v 1 24 -5.5
v 2 0 -5.5
v 2 4 -5.5
v 4 14 -5.5
v 4 22 -5.5
v 4 24 -5.5
v 6 0 -5.5
v 6 7 -5.5
v 6 11 -5.5
v 6 14 -5.5
v 7 7 -5.5
v 7 11 -5.5
v -4 14 -7.5
v -4 22 -7.5
v 4 14 -7.5
v 4 22 -7.5
v -6 0 7.5
v -2 0 7.5
v 2 0 7.5
v 6 0 7.5
v -6 0 -5.5
v -2 0 -5.5
v 2 0 -5.5
v 6 0 -5.5
v -2 4 -1.5
v 2 4 -1.5
v -2 4 -5.5
v 2 4 -5.5
v -7 7 5.5
v -6 7 5.5
v -5 7 5.5
v -4 7 5.5
v -3 7 5.5
v 3 7 5.5
v 4 7 5.5
v 5 7 5.5
v 6 7 5.5
v 7 7 5.5
v -6 7 4.5
v -5 7 4.5
v -4 7 4.5
v -3 7 4.5
v 3 7 4.5
v 4 7 4.5
v 5 7 4.5
v 6 7 4.5
v -6 7 -1.5
v -3 7 -1.5
v 3 7 -1.5
v 6 7 -1.5
v -7 7 -5.5
v -6 7 -5.5
v 6 7 -5.5
v 7 7 -5.5
v -2 14 4.5
v 2 14 4.5
v -1 14 3.5
v 1 14 3.5
v -4 14 0.5
v -2 14 0.5
v -1 14 0.5
v 1 14 0.5
v 2 14 0.5
v 4 14 0.5
v -4 14 -1.5
v 4 14 -1.5
v -4 14 -5.5
v 4 14 -5.5
v -4 14 -7.5
v 4 14 -7.5
v -6 3 6.5
v -5 3 6.5
v -3 3 6.5
v -2 3 6.5
v 2 3 6.5
v 3 3 6.5
v 5 3 6.5
v 6 3 6.5
v -6 3 -1.5
v -5 3 -1.5
v -3 3 -1.5
v -2 3 -1.5
v 2 3 -1.5
v 3 3 -1.5
v 5 3 -1.5
v 6 3 -1.5
v -6 4 7.5
v -5 4 7.5
v -4 4 7.5
v -3 4 7.5
v -2 4 7.5
v 2 4 7.5
v 3 4 7.5
v 4 4 7.5
v 5 4 7.5
v 6 4 7.5
v -6 4 6.5
v -5 4 6.5
v -4 4 6.5
v -3 4 6.5
v -2 4 6.5
v 2 4 6.5
v 3 4 6.5
v 4 4 6.5
v 5 4 6.5
v 6 4 6.5
v -5 4 -1.5
v -3 4 -1.5
v 3 4 -1.5
v 5 4 -1.5
v -7 11 5.5
v -3 11 5.5
v 3 11 5.5
v 7 11 5.5
v -6 11 -1.5
v -3 11 -1.5
v 3 11 -1.5
v 6 11 -1.5
v -7 11 -5.5
v -6 11 -5.5
v 6 11 -5.5
v 7 11 -5.5
v -6 14 -1.5
v -4 14 -1.5
v 4 14 -1.5
v 6 14 -1.5
v -6 14 -5.5
v -4 14 -5.5
v 4 14 -5.5
v 6 14 -5.5
v -2 18 4.5
v 2 18 4.5
v -2 18 2.5
v 2 18 2.5
v -2 18 0.5
v 2 18 0.5
v -4 22 0.5
v 4 22 0.5
v -4 22 -3.5
v -1 22 -3.5
v 1 22 -3.5
v 4 22 -3.5
v -4 22 -5.5
v -1 22 -5.5
v 1 22 -5.5
v 4 22 -5.5
v -4 22 -7.5
v 4 22 -7.5
v -4 24 -3.5
v -1 24 -3.5
v 1 24 -3.5
v 4 24 -3.5
v -4 24 -5.5
v -1 24 -5.5
v 1 24 -5.5
v 4 24 -5.5

# faces
f 3/1/1 2/1/1 1/1/1
f 4/1/1 2/1/1 3/1/1
f 7/1/1 6/1/1 5/1/1
f 8/1/1 6/1/1 7/1/1
f 9/1/1 6/1/1 8/1/1
f 10/3/1 8/3/1 7/3/1
f 11/3/1 8/3/1 10/3/1
f 12/1/1 6/1/1 9/1/1
f 13/1/1 6/1/1 12/1/1
f 16/1/1 15/1/1 14/1/1
f 17/1/1 15/1/1 16/1/1
f 20/1/1 19/1/1 18/1/1
f 21/1/1 19/1/1 20/1/1
f 26/1/1 23/1/1 22/1/1
f 26/1/1 25/1/1 24/1/1
f 26/1/1 24/1/1 23/1/1
f 27/1/1 25/1/1 26/1/1
f 28/1/1 25/1/1 27/1/1
f 29/1/1 25/1/1 28/1/1
f 30/1/1 28/1/1 27/1/1
f 31/1/1 28/1/1 30/1/1
f 34/2/1 33/2/1 32/2/1
f 35/2/1 33/2/1 34/2/1
f 36/3/1 35/3/1 34/3/1
f 37/2/1 33/2/1 35/2/1
f 37/3/1 35/3/1 36/3/1
f 38/2/1 33/2/1 37/2/1
f 41/1/1 40/1/1 39/1/1
f 42/1/1 40/1/1 41/1/1
f 45/1/1 44/1/1 43/1/1
f 46/1/1 44/1/1 45/1/1
f 47/1/1 45/1/1 43/1/1
f 48/1/1 45/1/1 47/1/1
f 49/1/1 44/1/1 46/1/1
f 50/1/1 44/1/1 49/1/1
f 53/1/1 52/1/1 51/1/1
f 54/1/1 52/1/1 53/1/1
f 58/3/1 56/3/1 55/3/1
f 59/1/1 57/1/1 56/1/1
f 59/3/1 56/3/1 58/3/1
f 60/1/1 59/1/1 58/1/1
f 61/1/1 57/1/1 59/1/1
f 61/1/1 59/1/1 60/1/1
f 62/1/2 63/1/2 64/1/2
f 64/1/2 63/1/2 65/1/2
f 66/3/2 67/3/2 69/3/2
f 67/1/2 68/1/2 70/1/2
f 69/3/2 67/3/2 70/3/2
f 69/1/2 70/1/2 71/1/2
f 70/1/2 68/1/2 72/1/2
f 71/1/2 70/1/2 72/1/2
f 73/1/2 74/1/2 75/1/2
f 75/1/2 74/1/2 76/1/2
f 73/1/2 75/1/2 77/1/2
f 77/1/2 75/1/2 78/1/2
f 76/1/2 74/1/2 79/1/2
f 79/1/2 74/1/2 80/1/2
f 81/1/2 82/1/2 83/1/2
f 83/1/2 82/1/2 84/1/2
f 85/2/2 86/2/2 87/2/2
f 87/2/2 86/2/2 88/2/2
f 87/3/2 88/3/2 89/3/2
f 88/2/2 86/2/2 90/2/2
f 89/3/2 88/3/2 90/3/2
f 90/2/2 86/2/2 91/2/2
f 92/1/2 93/1/2 96/1/2
f 94/1/2 95/1/2 96/1/2
f 93/1/2 94/1/2 96/1/2
f 96/1/2 95/1/2 97/1/2
f 97/1/2 95/1/2 98/1/2
f 98/1/2 95/1/2 99/1/2
f 97/1/2 98/1/2 100/1/2
f 100/1/2 98/1/2 101/1/2
f 102/1/2 103/1/2 104/1/2
f 104/1/2 103/1/2 105/1/2
f 106/1/2 107/1/2 108/1/2
f 108/1/2 107/1/2 109/1/2
f 109/1/2 107/1/2 110/1/2
f 108/3/2 109/3/2 111/3/2
f 111/3/2 109/3/2 112/3/2
f 110/1/2 107/1/2 113/1/2
f 113/1/2 107/1/2 114/1/2
f 115/1/2 116/1/2 117/1/2
f 117/1/2 116/1/2 118/1/2
f 119/1/2 120/1/2 121/1/2
f 121/1/2 120/1/2 122/1/2
f 126/1/3 124/1/3 123/1/3
f 126/3/3 125/3/3 124/3/3
f 127/3/3 125/3/3 126/3/3
f 128/1/3 126/1/3 123/1/3
f 128/1/3 127/1/3 126/1/3
f 129/1/3 127/1/3 128/1/3
f 130/1/3 128/1/3 123/1/3
f 130/3/3 129/3/3 128/3/3
f 131/3/3 129/3/3 130/3/3
f 132/1/3 130/1/3 123/1/3
f 132/1/3 131/1/3 130/1/3
f 133/1/3 131/1/3 132/1/3
f 136/1/3 135/1/3 134/1/3
f 137/1/3 135/1/3 136/1/3
f 138/1/3 136/1/3 134/1/3
f 138/3/3 137/3/3 136/3/3
f 139/3/3 137/3/3 138/3/3
f 140/1/3 138/1/3 134/1/3
f 140/1/3 139/1/3 138/1/3
f 141/1/3 139/1/3 140/1/3
f 142/1/3 140/1/3 134/1/3
f 143/3/3 141/3/3 140/3/3
f 143/1/3 140/1/3 142/1/3
f 144/3/3 141/3/3 143/3/3
f 147/1/3 146/1/3 145/1/3
f 148/1/3 146/1/3 147/1/3
f 149/3/3 148/3/3 147/3/3
f 150/1/3 146/1/3 148/1/3
f 150/3/3 148/3/3 149/3/3
f 151/1/3 150/1/3 149/1/3
f 152/1/3 146/1/3 150/1/3
f 152/1/3 150/1/3 151/1/3
f 153/3/3 152/3/3 151/3/3
f 154/1/3 146/1/3 152/1/3
f 154/3/3 152/3/3 153/3/3
f 155/1/3 146/1/3 154/1/3
f 159/3/3 157/3/3 156/3/3
f 160/1/3 158/1/3 157/1/3
f 160/3/3 157/3/3 159/3/3
f 161/1/3 160/1/3 159/1/3
f 162/1/3 158/1/3 160/1/3
f 162/1/3 160/1/3 161/1/3
f 163/3/3 162/3/3 161/3/3
f 164/1/3 158/1/3 162/1/3
f 164/3/3 162/3/3 163/3/3
f 165/1/3 164/1/3 163/1/3
f 166/1/3 158/1/3 164/1/3
f 166/1/3 164/1/3 165/1/3
f 170/2/3 168/2/3 167/2/3
f 171/3/3 169/3/3 168/3/3
f 171/2/3 168/2/3 170/2/3
f 172/3/3 169/3/3 171/3/3
f 175/1/3 174/1/3 173/1/3
f 176/1/3 174/1/3 175/1/3
f 178/1/3 174/1/3 176/1/3
f 179/1/3 178/1/3 177/1/3
f 180/1/3 174/1/3 178/1/3
f 180/1/3 178/1/3 179/1/3
f 185/1/3 182/1/3 181/1/3
f 186/1/3 182/1/3 185/1/3
f 187/1/3 184/1/3 183/1/3
f 189/1/3 182/1/3 186/1/3
f 190/1/3 182/1/3 189/1/3
f 191/1/3 187/1/3 183/1/3
f 192/1/3 190/1/3 189/1/3
f 192/1/3 191/1/3 190/1/3
f 192/1/3 189/1/3 188/1/3
f 193/1/3 191/1/3 192/1/3
f 195/1/3 191/1/3 193/1/3
f 196/1/3 195/1/3 194/1/3
f 197/1/3 191/1/3 195/1/3
f 197/1/3 195/1/3 196/1/3
f 198/1/3 191/1/3 197/1/3
f 199/1/3 187/1/3 191/1/3
f 199/1/3 191/1/3 198/1/3
f 200/1/3 187/1/3 199/1/3
f 202/1/3 198/1/3 197/1/3
f 203/1/3 202/1/3 201/1/3
f 204/1/3 198/1/3 202/1/3
f 204/1/3 202/1/3 203/1/3
f 205/1/3 200/1/3 199/1/3
f 206/1/3 200/1/3 205/1/3
f 209/1/3 208/1/3 207/1/3
f 210/1/3 208/1/3 209/1/3
f 213/1/3 212/1/3 211/1/3
f 214/1/3 212/1/3 213/1/3
f 215/3/4 216/3/4 217/3/4
f 217/3/4 216/3/4 218/3/4
f 219/1/4 220/1/4 221/1/4
f 221/1/4 220/1/4 222/1/4
f 223/1/4 224/1/4 225/1/4
f 225/1/4 224/1/4 226/1/4
f 227/3/4 228/3/4 229/3/4
f 229/3/4 228/3/4 230/3/4
f 231/1/4 232/1/4 234/1/4
f 234/1/4 232/1/4 235/1/4
f 233/1/4 234/1/4 237/1/4
f 235/1/4 236/1/4 237/1/4
f 234/1/4 235/1/4 237/1/4
f 233/1/4 237/1/4 240/1/4
f 240/1/4 237/1/4 241/1/4
f 238/1/4 239/1/4 242/1/4
f 242/1/4 239/1/4 243/1/4
f 241/1/4 237/1/4 247/1/4
f 247/1/4 237/1/4 248/1/4
f 246/1/4 247/1/4 248/1/4
f 244/1/4 245/1/4 249/1/4
f 249/1/4 245/1/4 250/1/4
f 246/1/4 248/1/4 251/1/4
f 251/1/4 248/1/4 252/1/4
f 252/1/4 248/1/4 253/1/4
f 253/1/4 248/1/4 254/1/4
f 252/1/4 253/1/4 255/1/4
f 255/1/4 253/1/4 256/1/4
f 257/1/4 258/1/4 259/1/4
f 259/1/4 258/1/4 260/1/4
f 265/1/5 262/1/5 261/1/5
f 266/1/5 262/1/5 265/1/5
f 267/1/5 264/1/5 263/1/5
f 268/1/5 264/1/5 267/1/5
f 271/1/5 270/1/5 269/1/5
f 272/1/5 270/1/5 271/1/5
f 283/1/5 274/1/5 273/1/5
f 283/3/5 275/3/5 274/3/5
f 284/1/5 276/1/5 275/1/5
f 284/3/5 275/3/5 283/3/5
f 285/3/5 277/3/5 276/3/5
f 285/1/5 276/1/5 284/1/5
f 286/3/5 277/3/5 285/3/5
f 287/3/5 279/3/5 278/3/5
f 288/1/5 280/1/5 279/1/5
f 288/3/5 279/3/5 287/3/5
f 289/3/5 281/3/5 280/3/5
f 289/1/5 280/1/5 288/1/5
f 290/1/5 282/1/5 281/1/5
f 290/3/5 281/3/5 289/3/5
f 291/1/5 283/1/5 273/1/5
f 291/1/5 284/1/5 283/1/5
f 291/1/5 286/1/5 285/1/5
f 291/1/5 285/1/5 284/1/5
f 292/1/5 286/1/5 291/1/5
f 293/1/5 289/1/5 288/1/5
f 293/1/5 288/1/5 287/1/5
f 293/1/5 290/1/5 289/1/5
f 294/1/5 282/1/5 290/1/5
f 294/1/5 290/1/5 293/1/5
f 295/1/5 291/1/5 273/1/5
f 296/1/5 291/1/5 295/1/5
f 297/1/5 282/1/5 294/1/5
f 298/1/5 282/1/5 297/1/5
f 301/2/5 300/2/5 299/2/5
f 302/2/5 300/2/5 301/2/5
f 304/2/5 301/2/5 299/2/5
f 305/1/5 302/1/5 301/1/5
f 305/2/5 301/2/5 304/2/5
f 306/2/5 300/2/5 302/2/5
f 306/1/5 302/1/5 305/1/5
f 307/2/5 300/2/5 306/2/5
f 309/1/5 305/1/5 304/1/5
f 309/1/5 308/1/5 307/1/5
f 309/1/5 307/1/5 306/1/5
f 309/1/5 306/1/5 305/1/5
f 309/1/5 304/1/5 303/1/5
f 310/1/5 308/1/5 309/1/5
f 313/1/5 312/1/5 311/1/5
f 314/1/5 312/1/5 313/1/5
f 315/1/6 316/1/6 323/1/6
f 323/1/6 316/1/6 324/1/6
f 317/1/6 318/1/6 325/1/6
f 325/1/6 318/1/6 326/1/6
f 319/1/6 320/1/6 327/1/6
f 327/1/6 320/1/6 328/1/6
f 321/1/6 322/1/6 329/1/6
f 329/1/6 322/1/6 330/1/6
f 331/3/6 332/3/6 341/3/6
f 332/1/6 333/1/6 342/1/6
f 341/3/6 332/3/6 342/3/6
f 333/3/6 334/3/6 343/3/6
f 342/1/6 333/1/6 343/1/6
f 334/1/6 335/1/6 344/1/6
f 343/3/6 334/3/6 344/3/6
f 344/1/6 335/1/6 345/1/6
f 336/1/6 337/1/6 346/1/6
f 337/3/6 338/3/6 347/3/6
f 346/1/6 337/1/6 347/1/6
f 338/1/6 339/1/6 348/1/6
f 347/3/6 338/3/6 348/3/6
f 339/3/6 340/3/6 349/3/6
f 348/1/6 339/1/6 349/1/6
f 349/3/6 340/3/6 350/3/6
f 342/1/6 343/1/6 351/1/6
f 343/1/6 344/1/6 351/1/6
f 351/1/6 344/1/6 352/1/6
f 347/1/6 348/1/6 353/1/6
f 348/1/6 349/1/6 353/1/6
f 353/1/6 349/1/6 354/1/6
f 355/1/6 356/1/6 359/1/6
f 359/1/6 356/1/6 360/1/6
f 357/1/6 358/1/6 361/1/6
f 361/1/6 358/1/6 362/1/6
f 355/1/6 359/1/6 363/1/6
f 363/1/6 359/1/6 364/1/6
f 362/1/6 358/1/6 365/1/6
f 365/1/6 358/1/6 366/1/6
f 367/1/6 368/1/6 371/1/6
f 371/1/6 368/1/6 372/1/6
f 369/1/6 370/1/6 373/1/6
f 373/1/6 370/1/6 374/1/6
f 375/3/6 376/3/6 377/3/6
f 377/3/6 376/3/6 378/3/6
f 377/2/6 378/2/6 379/2/6
f 379/2/6 378/2/6 380/2/6
f 381/1/6 382/1/6 383/1/6
f 383/1/6 382/1/6 384/1/6
f 384/1/6 382/1/6 385/1/6
f 385/1/6 382/1/6 386/1/6
f 384/1/6 385/1/6 388/1/6
f 388/1/6 385/1/6 389/1/6
f 387/1/6 388/1/6 391/1/6
f 389/1/6 390/1/6 391/1/6
f 388/1/6 389/1/6 391/1/6
f 391/1/6 390/1/6 392/1/6
f 393/1/6 394/1/6 397/1/6
f 397/1/6 394/1/6 398/1/6
f 395/1/6 396/1/6 399/1/6
f 399/1/6 396/1/6 400/1/6
