# MagicaVoxel @ Ephtracy

# group
g sledge

# material
mtllib sledge.mtl
usemtl palette

# normals
vn -1 0 0
vn 1 0 0
vn 0 0 1
vn 0 0 -1
vn 0 -1 0
vn 0 1 0

# texcoords
vt 0.673828 0.5
vt 0.939453 0.5
vt 0.970703 0.5

# verts
v -11 0 22
v -11 0 -23
v -11 1 23
v -11 1 22
v -11 1 17
v -11 1 16
v -11 1 -1
v -11 1 -2
v -11 1 -16
v -11 1 -17
v -11 1 -23
v -11 1 -24
v -11 2 24
v -11 2 23
v -11 2 22
v -11 5 18
v -11 5 17
v -11 5 16
v -11 5 -1
v -11 5 -2
v -11 5 -16
v -11 5 -17
v -11 5 -18
v -11 5 -22
v -11 5 -23
v -11 5 -24
v -11 6 24
v -11 6 23
v -11 6 17
v -11 6 -17
v -11 6 -22
v -11 6 -23
v -11 15 17
v -11 15 2
v -11 16 18
v -11 16 3
v -11 22 2
v -11 22 -17
v -11 23 3
v -11 23 -18
v 10 0 22
v 10 0 -23
v 10 1 23
v 10 1 22
v 10 1 17
v 10 1 16
v 10 1 -1
v 10 1 -2
v 10 1 -16
v 10 1 -17
v 10 1 -23
v 10 1 -24
v 10 2 24
v 10 2 23
v 10 2 22
v 10 5 18
v 10 5 17
v 10 5 16
v 10 5 -1
v 10 5 -2
v 10 5 -16
v 10 5 -17
v 10 5 -18
v 10 5 -22
v 10 5 -23
v 10 5 -24
v 10 6 24
v 10 6 23
v 10 6 17
v 10 6 -17
v 10 6 -22
v 10 6 -23
v 10 7 16
v 10 7 3
v 10 7 2
v 10 7 -16
v 10 15 17
v 10 15 16
v 10 15 3
v 10 15 2
v 10 16 18
v 10 16 3
v 10 22 2
v 10 22 -16
v 10 22 -17
v 10 23 3
v 10 23 -18
v -10 0 22
v -10 0 -23
v -10 1 23
v -10 1 22
v -10 1 17
v -10 1 16
v -10 1 -1
v -10 1 -2
v -10 1 -16
v -10 1 -17
v -10 1 -23
v -10 1 -24
v -10 2 24
v -10 2 23
v -10 2 22
v -10 5 18
v -10 5 17
v -10 5 16
v -10 5 -1
v -10 5 -2
v -10 5 -16
v -10 5 -17
v -10 5 -18
v -10 5 -22
v -10 5 -23
v -10 5 -24
v -10 6 24
v -10 6 23
v -10 6 17
v -10 6 -17
v -10 6 -22
v -10 6 -23
v -10 7 16
v -10 7 3
v -10 7 2
v -10 7 -16
v -10 15 17
v -10 15 16
v -10 15 3
v -10 15 2
v -10 16 18
v -10 16 3
v -10 22 2
v -10 22 -16
v -10 22 -17
v -10 23 3
v -10 23 -18
v 11 0 22
v 11 0 -23
v 11 1 23
v 11 1 22
v 11 1 17
v 11 1 16
v 11 1 -1
v 11 1 -2
v 11 1 -16
v 11 1 -17
v 11 1 -23
v 11 1 -24
v 11 2 24
v 11 2 23
v 11 2 22
v 11 5 18
v 11 5 17
v 11 5 16
v 11 5 -1
v 11 5 -2
v 11 5 -16
v 11 5 -17
v 11 5 -18
v 11 5 -22
v 11 5 -23
v 11 5 -24
v 11 6 24
v 11 6 23
v 11 6 17
v 11 6 -17
v 11 6 -22
v 11 6 -23
v 11 15 17
v 11 15 2
v 11 16 18
v 11 16 3
v 11 22 2
v 11 22 -17
v 11 23 3
v 11 23 -18
v -11 2 24
v -11 6 24
v -10 2 24
v -10 6 24
v 10 2 24
v 10 6 24
v 11 2 24
v 11 6 24
v -11 1 23
v -11 2 23
v -10 1 23
v -10 2 23
v 10 1 23
v 10 2 23
v 11 1 23
v 11 2 23
v -11 0 22
v -11 1 22
v -10 0 22
v -10 1 22
v 10 0 22
v 10 1 22
v 11 0 22
v 11 1 22
v -11 5 18
v -11 16 18
v -10 5 18
v -10 16 18
v 10 5 18
v 10 16 18
v 11 5 18
v 11 16 18
v -11 1 17
v -11 5 17
v -10 1 17
v -10 5 17
v -10 6 17
v -10 15 17
v 10 1 17
v 10 5 17
v 10 6 17
v 10 15 17
v 11 1 17
v 11 5 17
v -11 16 3
v -11 23 3
v -10 7 3
v -10 15 3
v -10 16 3
v -10 23 3
v 10 7 3
v 10 15 3
v 10 16 3
v 10 23 3
v 11 16 3
v 11 23 3
v -11 1 -1
v -11 5 -1
v -10 1 -1
v -10 5 -1
v 10 1 -1
v 10 5 -1
v 11 1 -1
v 11 5 -1
v -11 1 -16
v -11 5 -16
v -10 1 -16
v -10 5 -16
v -10 7 -16
v -10 22 -16
v 10 1 -16
v 10 5 -16
v 10 7 -16
v 10 22 -16
v 11 1 -16
v 11 5 -16
v -11 5 -22
v -11 6 -22
v -10 5 -22
v -10 6 -22
v 10 5 -22
v 10 6 -22
v 11 5 -22
v 11 6 -22
v -11 1 -23
v -11 5 -23
v -10 1 -23
v -10 5 -23
v 10 1 -23
v 10 5 -23
v 11 1 -23
v 11 5 -23
v -11 2 23
v -11 6 23
v -10 2 23
v -10 6 23
v 10 2 23
v 10 6 23
v 11 2 23
v 11 6 23
v -11 1 22
v -11 2 22
v -10 1 22
v -10 2 22
v 10 1 22
v 10 2 22
v 11 1 22
v 11 2 22
v -11 1 16
v -11 5 16
v -10 1 16
v -10 5 16
v -10 7 16
v -10 15 16
v 10 1 16
v 10 5 16
v 10 7 16
v 10 15 16
v 11 1 16
v 11 5 16
v -10 7 2
v -10 15 2
v 10 7 2
v 10 15 2
v -11 1 -2
v -11 5 -2
v -10 1 -2
v -10 5 -2
v 10 1 -2
v 10 5 -2
v 11 1 -2
v 11 5 -2
v -11 1 -17
v -11 5 -17
v -10 1 -17
v -10 5 -17
v -10 6 -17
v -10 22 -17
v 10 1 -17
v 10 5 -17
v 10 6 -17
v 10 22 -17
v 11 1 -17
v 11 5 -17
v -11 5 -18
v -11 23 -18
v -10 5 -18
v -10 23 -18
v 10 5 -18
v 10 23 -18
v 11 5 -18
v 11 23 -18
v -11 0 -23
v -11 1 -23
v -11 5 -23
v -11 6 -23
v -10 0 -23
v -10 1 -23
v -10 5 -23
v -10 6 -23
v 10 0 -23
v 10 1 -23
v 10 5 -23
v 10 6 -23
v 11 0 -23
v 11 1 -23
v 11 5 -23
v 11 6 -23
v -11 1 -24
v -11 5 -24
v -10 1 -24
v -10 5 -24
v 10 1 -24
v 10 5 -24
v 11 1 -24
v 11 5 -24
v -11 0 22
v -10 0 22
v 10 0 22
v 11 0 22
v -11 0 -23
v -10 0 -23
v 10 0 -23
v 11 0 -23
v -11 1 23
v -10 1 23
v 10 1 23
v 11 1 23
v -11 1 22
v -10 1 22
v 10 1 22
v 11 1 22
v -11 1 -23
v -10 1 -23
v 10 1 -23
v 11 1 -23
v -11 1 -24
v -10 1 -24
v 10 1 -24
v 11 1 -24
v -11 2 24
v -10 2 24
v 10 2 24
v 11 2 24
v -11 2 23
v -10 2 23
v 10 2 23
v 11 2 23
v -11 5 18
v -10 5 18
v 10 5 18
v 11 5 18
v -11 5 17
v -10 5 17
v 10 5 17
v 11 5 17
v -11 5 16
v -10 5 16
v 10 5 16
v 11 5 16
v -11 5 -1
v -10 5 -1
v 10 5 -1
v 11 5 -1
v -11 5 -2
v -10 5 -2
v 10 5 -2
v 11 5 -2
v -11 5 -16
v -10 5 -16
v 10 5 -16
v 11 5 -16
v -11 5 -17
v -10 5 -17
v 10 5 -17
v 11 5 -17
v -11 5 -18
v -10 5 -18
v 10 5 -18
v 11 5 -18
v -11 5 -22
v -10 5 -22
v 10 5 -22
v 11 5 -22
v -11 5 -23
v -10 5 -23
v 10 5 -23
v 11 5 -23
v -10 6 17
v 10 6 17
v -10 6 -17
v 10 6 -17
v -11 1 22
v -10 1 22
v 10 1 22
v 11 1 22
v -11 1 17
v -10 1 17
v 10 1 17
v 11 1 17
v -11 1 16
v -10 1 16
v 10 1 16
v 11 1 16
v -11 1 -1
v -10 1 -1
v 10 1 -1
v 11 1 -1
v -11 1 -2
v -10 1 -2
v 10 1 -2
v 11 1 -2
v -11 1 -16
v -10 1 -16
v 10 1 -16
v 11 1 -16
v -11 1 -17
v -10 1 -17
v 10 1 -17
v 11 1 -17
v -11 1 -23
v -10 1 -23
v 10 1 -23
v 11 1 -23
v -11 2 23
v -10 2 23
v 10 2 23
v 11 2 23
v -11 2 22
v -10 2 22
v 10 2 22
v 11 2 22
v -11 5 -23
v -10 5 -23
v 10 5 -23
v 11 5 -23
v -11 5 -24
v -10 5 -24
v 10 5 -24
v 11 5 -24
v -11 6 24
v -10 6 24
v 10 6 24
v 11 6 24
v -11 6 23
v -10 6 23
v 10 6 23
v 11 6 23
v -11 6 -22
v -10 6 -22
v 10 6 -22
v 11 6 -22
v -11 6 -23
v -10 6 -23
v 10 6 -23
v 11 6 -23
v -10 7 16
v 10 7 16
v -10 7 3
v 10 7 3
v -10 7 2
v 10 7 2
v -10 7 -16
v 10 7 -16
v -10 15 17
v 10 15 17
v -10 15 16
v 10 15 16
v -10 15 3
v 10 15 3
v -10 15 2
v 10 15 2
v -11 16 18
v -10 16 18
v 10 16 18
v 11 16 18
v -11 16 3
v -10 16 3
v 10 16 3
v 11 16 3
v -10 22 -16
v 10 22 -16
v -10 22 -17
v 10 22 -17
v -11 23 3
v -10 23 3
v 10 23 3
v 11 23 3
v -11 23 -18
v -10 23 -18
v 10 23 -18
v 11 23 -18

# faces
f 4/2/1 2/2/1 1/2/1
f 5/2/1 2/2/1 4/2/1
f 6/2/1 2/2/1 5/2/1
f 7/2/1 2/2/1 6/2/1
f 8/2/1 2/2/1 7/2/1
f 9/2/1 2/2/1 8/2/1
f 10/2/1 2/2/1 9/2/1
f 11/2/1 2/2/1 10/2/1
f 14/2/1 4/2/1 3/2/1
f 15/2/1 4/2/1 14/2/1
f 17/2/1 6/2/1 5/2/1
f 18/2/1 6/2/1 17/2/1
f 19/2/1 8/2/1 7/2/1
f 20/2/1 8/2/1 19/2/1
f 21/2/1 10/2/1 9/2/1
f 22/2/1 10/2/1 21/2/1
f 25/2/1 12/2/1 11/2/1
f 26/2/1 12/2/1 25/2/1
f 27/2/1 14/2/1 13/2/1
f 28/2/1 14/2/1 27/2/1
f 29/1/1 18/1/1 17/1/1
f 29/1/1 23/1/1 22/1/1
f 29/1/1 20/1/1 19/1/1
f 29/1/1 17/1/1 16/1/1
f 29/1/1 19/1/1 18/1/1
f 29/1/1 22/1/1 21/1/1
f 29/1/1 21/1/1 20/1/1
f 30/1/1 23/1/1 29/1/1
f 31/2/1 25/2/1 24/2/1
f 32/2/1 25/2/1 31/2/1
f 33/1/1 29/1/1 16/1/1
f 33/3/1 30/3/1 29/3/1
f 34/3/1 30/3/1 33/3/1
f 35/1/1 33/1/1 16/1/1
f 35/1/1 34/1/1 33/1/1
f 36/1/1 34/1/1 35/1/1
f 37/3/1 30/3/1 34/3/1
f 37/1/1 34/1/1 36/1/1
f 38/1/1 23/1/1 30/1/1
f 38/3/1 30/3/1 37/3/1
f 39/1/1 37/1/1 36/1/1
f 39/1/1 38/1/1 37/1/1
f 40/1/1 23/1/1 38/1/1
f 40/1/1 38/1/1 39/1/1
f 44/2/1 42/2/1 41/2/1
f 45/2/1 42/2/1 44/2/1
f 46/2/1 42/2/1 45/2/1
f 47/2/1 42/2/1 46/2/1
f 48/2/1 42/2/1 47/2/1
f 49/2/1 42/2/1 48/2/1
f 50/2/1 42/2/1 49/2/1
f 51/2/1 42/2/1 50/2/1
f 54/2/1 44/2/1 43/2/1
f 55/2/1 44/2/1 54/2/1
f 57/2/1 46/2/1 45/2/1
f 58/2/1 46/2/1 57/2/1
f 59/2/1 48/2/1 47/2/1
f 60/2/1 48/2/1 59/2/1
f 61/2/1 50/2/1 49/2/1
f 62/2/1 50/2/1 61/2/1
f 65/2/1 52/2/1 51/2/1
f 66/2/1 52/2/1 65/2/1
f 67/2/1 54/2/1 53/2/1
f 68/2/1 54/2/1 67/2/1
f 69/1/1 58/1/1 57/1/1
f 69/1/1 63/1/1 62/1/1
f 69/1/1 60/1/1 59/1/1
f 69/1/1 57/1/1 56/1/1
f 69/1/1 59/1/1 58/1/1
f 69/1/1 62/1/1 61/1/1
f 69/1/1 61/1/1 60/1/1
f 70/1/1 63/1/1 69/1/1
f 71/2/1 65/2/1 64/2/1
f 72/2/1 65/2/1 71/2/1
f 77/1/1 69/1/1 56/1/1
f 78/3/1 74/3/1 73/3/1
f 79/3/1 74/3/1 78/3/1
f 80/3/1 76/3/1 75/3/1
f 81/1/1 79/1/1 78/1/1
f 81/1/1 80/1/1 79/1/1
f 81/1/1 77/1/1 56/1/1
f 81/1/1 78/1/1 77/1/1
f 82/1/1 80/1/1 81/1/1
f 83/3/1 76/3/1 80/3/1
f 83/1/1 80/1/1 82/1/1
f 84/3/1 76/3/1 83/3/1
f 85/1/1 63/1/1 70/1/1
f 86/1/1 84/1/1 83/1/1
f 86/1/1 85/1/1 84/1/1
f 86/1/1 83/1/1 82/1/1
f 87/1/1 63/1/1 85/1/1
f 87/1/1 85/1/1 86/1/1
f 88/2/2 89/2/2 91/2/2
f 91/2/2 89/2/2 92/2/2
f 92/2/2 89/2/2 93/2/2
f 93/2/2 89/2/2 94/2/2
f 94/2/2 89/2/2 95/2/2
f 95/2/2 89/2/2 96/2/2
f 96/2/2 89/2/2 97/2/2
f 97/2/2 89/2/2 98/2/2
f 90/2/2 91/2/2 101/2/2
f 101/2/2 91/2/2 102/2/2
f 92/2/2 93/2/2 104/2/2
f 104/2/2 93/2/2 105/2/2
f 94/2/2 95/2/2 106/2/2
f 106/2/2 95/2/2 107/2/2
f 96/2/2 97/2/2 108/2/2
f 108/2/2 97/2/2 109/2/2
f 98/2/2 99/2/2 112/2/2
f 112/2/2 99/2/2 113/2/2
f 100/2/2 101/2/2 114/2/2
f 114/2/2 101/2/2 115/2/2
f 104/1/2 105/1/2 116/1/2
f 109/1/2 110/1/2 116/1/2
f 106/1/2 107/1/2 116/1/2
f 103/1/2 104/1/2 116/1/2
f 105/1/2 106/1/2 116/1/2
f 108/1/2 109/1/2 116/1/2
f 107/1/2 108/1/2 116/1/2
f 116/1/2 110/1/2 117/1/2
f 111/2/2 112/2/2 118/2/2
f 118/2/2 112/2/2 119/2/2
f 103/1/2 116/1/2 124/1/2
f 120/3/2 121/3/2 125/3/2
f 125/3/2 121/3/2 126/3/2
f 122/3/2 123/3/2 127/3/2
f 125/1/2 126/1/2 128/1/2
f 126/1/2 127/1/2 128/1/2
f 103/1/2 124/1/2 128/1/2
f 124/1/2 125/1/2 128/1/2
f 128/1/2 127/1/2 129/1/2
f 127/3/2 123/3/2 130/3/2
f 129/1/2 127/1/2 130/1/2
f 130/3/2 123/3/2 131/3/2
f 117/1/2 110/1/2 132/1/2
f 130/1/2 131/1/2 133/1/2
f 131/1/2 132/1/2 133/1/2
f 129/1/2 130/1/2 133/1/2
f 132/1/2 110/1/2 134/1/2
f 133/1/2 132/1/2 134/1/2
f 135/2/2 136/2/2 138/2/2
f 138/2/2 136/2/2 139/2/2
f 139/2/2 136/2/2 140/2/2
f 140/2/2 136/2/2 141/2/2
f 141/2/2 136/2/2 142/2/2
f 142/2/2 136/2/2 143/2/2
f 143/2/2 136/2/2 144/2/2
f 144/2/2 136/2/2 145/2/2
f 137/2/2 138/2/2 148/2/2
f 148/2/2 138/2/2 149/2/2
f 139/2/2 140/2/2 151/2/2
f 151/2/2 140/2/2 152/2/2
f 141/2/2 142/2/2 153/2/2
f 153/2/2 142/2/2 154/2/2
f 143/2/2 144/2/2 155/2/2
f 155/2/2 144/2/2 156/2/2
f 145/2/2 146/2/2 159/2/2
f 159/2/2 146/2/2 160/2/2
f 147/2/2 148/2/2 161/2/2
f 161/2/2 148/2/2 162/2/2
f 151/1/2 152/1/2 163/1/2
f 156/1/2 157/1/2 163/1/2
f 153/1/2 154/1/2 163/1/2
f 150/1/2 151/1/2 163/1/2
f 152/1/2 153/1/2 163/1/2
f 155/1/2 156/1/2 163/1/2
f 154/1/2 155/1/2 163/1/2
f 163/1/2 157/1/2 164/1/2
f 158/2/2 159/2/2 165/2/2
f 165/2/2 159/2/2 166/2/2
f 150/1/2 163/1/2 167/1/2
f 163/3/2 164/3/2 167/3/2
f 167/3/2 164/3/2 168/3/2
f 150/1/2 167/1/2 169/1/2
f 167/1/2 168/1/2 169/1/2
f 169/1/2 168/1/2 170/1/2
f 168/3/2 164/3/2 171/3/2
f 170/1/2 168/1/2 171/1/2
f 164/1/2 157/1/2 172/1/2
f 171/3/2 164/3/2 172/3/2
f 170/1/2 171/1/2 173/1/2
f 171/1/2 172/1/2 173/1/2
f 172/1/2 157/1/2 174/1/2
f 173/1/2 172/1/2 174/1/2
f 177/2/3 176/2/3 175/2/3
f 178/2/3 176/2/3 177/2/3
f 181/2/3 180/2/3 179/2/3
f 182/2/3 180/2/3 181/2/3
f 185/2/3 184/2/3 183/2/3
f 186/2/3 184/2/3 185/2/3
f 189/2/3 188/2/3 187/2/3
f 190/2/3 188/2/3 189/2/3
f 193/2/3 192/2/3 191/2/3
f 194/2/3 192/2/3 193/2/3
f 197/2/3 196/2/3 195/2/3
f 198/2/3 196/2/3 197/2/3
f 201/1/3 200/1/3 199/1/3
f 202/1/3 200/1/3 201/1/3
f 205/1/3 204/1/3 203/1/3
f 206/1/3 204/1/3 205/1/3
f 209/2/3 208/2/3 207/2/3
f 210/2/3 208/2/3 209/2/3
f 215/3/3 212/3/3 211/3/3
f 216/3/3 212/3/3 215/3/3
f 217/2/3 214/2/3 213/2/3
f 218/2/3 214/2/3 217/2/3
f 223/1/3 220/1/3 219/1/3
f 224/1/3 220/1/3 223/1/3
f 225/3/3 222/3/3 221/3/3
f 226/3/3 222/3/3 225/3/3
f 229/1/3 228/1/3 227/1/3
f 230/1/3 228/1/3 229/1/3
f 233/2/3 232/2/3 231/2/3
f 234/2/3 232/2/3 233/2/3
f 237/2/3 236/2/3 235/2/3
f 238/2/3 236/2/3 237/2/3
f 241/2/3 240/2/3 239/2/3
f 242/2/3 240/2/3 241/2/3
f 247/3/3 244/3/3 243/3/3
f 248/3/3 244/3/3 247/3/3
f 249/2/3 246/2/3 245/2/3
f 250/2/3 246/2/3 249/2/3
f 253/2/3 252/2/3 251/2/3
f 254/2/3 252/2/3 253/2/3
f 257/2/3 256/2/3 255/2/3
f 258/2/3 256/2/3 257/2/3
f 261/2/3 260/2/3 259/2/3
f 262/2/3 260/2/3 261/2/3
f 265/2/3 264/2/3 263/2/3
f 266/2/3 264/2/3 265/2/3
f 267/2/4 268/2/4 269/2/4
f 269/2/4 268/2/4 270/2/4
f 271/2/4 272/2/4 273/2/4
f 273/2/4 272/2/4 274/2/4
f 275/2/4 276/2/4 277/2/4
f 277/2/4 276/2/4 278/2/4
f 279/2/4 280/2/4 281/2/4
f 281/2/4 280/2/4 282/2/4
f 283/2/4 284/2/4 285/2/4
f 285/2/4 284/2/4 286/2/4
f 287/3/4 288/3/4 291/3/4
f 291/3/4 288/3/4 292/3/4
f 289/2/4 290/2/4 293/2/4
f 293/2/4 290/2/4 294/2/4
f 295/3/4 296/3/4 297/3/4
f 297/3/4 296/3/4 298/3/4
f 299/2/4 300/2/4 301/2/4
f 301/2/4 300/2/4 302/2/4
f 303/2/4 304/2/4 305/2/4
f 305/2/4 304/2/4 306/2/4
f 307/2/4 308/2/4 309/2/4
f 309/2/4 308/2/4 310/2/4
f 311/3/4 312/3/4 315/3/4
f 315/3/4 312/3/4 316/3/4
f 313/2/4 314/2/4 317/2/4
f 317/2/4 314/2/4 318/2/4
f 319/1/4 320/1/4 321/1/4
f 321/1/4 320/1/4 322/1/4
f 323/1/4 324/1/4 325/1/4
f 325/1/4 324/1/4 326/1/4
f 327/2/4 328/2/4 331/2/4
f 331/2/4 328/2/4 332/2/4
f 329/2/4 330/2/4 333/2/4
f 333/2/4 330/2/4 334/2/4
f 335/2/4 336/2/4 339/2/4
f 339/2/4 336/2/4 340/2/4
f 337/2/4 338/2/4 341/2/4
f 341/2/4 338/2/4 342/2/4
f 343/2/4 344/2/4 345/2/4
f 345/2/4 344/2/4 346/2/4
f 347/2/4 348/2/4 349/2/4
f 349/2/4 348/2/4 350/2/4
f 355/2/5 352/2/5 351/2/5
f 356/2/5 352/2/5 355/2/5
f 357/2/5 354/2/5 353/2/5
f 358/2/5 354/2/5 357/2/5
f 363/2/5 360/2/5 359/2/5
f 364/2/5 360/2/5 363/2/5
f 365/2/5 362/2/5 361/2/5
f 366/2/5 362/2/5 365/2/5
f 371/2/5 368/2/5 367/2/5
f 372/2/5 368/2/5 371/2/5
f 373/2/5 370/2/5 369/2/5
f 374/2/5 370/2/5 373/2/5
f 379/2/5 376/2/5 375/2/5
f 380/2/5 376/2/5 379/2/5
f 381/2/5 378/2/5 377/2/5
f 382/2/5 378/2/5 381/2/5
f 387/1/5 384/1/5 383/1/5
f 388/1/5 384/1/5 387/1/5
f 389/1/5 386/1/5 385/1/5
f 390/1/5 386/1/5 389/1/5
f 395/1/5 392/1/5 391/1/5
f 396/1/5 392/1/5 395/1/5
f 397/1/5 394/1/5 393/1/5
f 398/1/5 394/1/5 397/1/5
f 403/1/5 400/1/5 399/1/5
f 404/1/5 400/1/5 403/1/5
f 405/1/5 402/1/5 401/1/5
f 406/1/5 402/1/5 405/1/5
f 411/1/5 408/1/5 407/1/5
f 412/1/5 408/1/5 411/1/5
f 413/1/5 410/1/5 409/1/5
f 414/1/5 410/1/5 413/1/5
f 419/2/5 416/2/5 415/2/5
f 420/2/5 416/2/5 419/2/5
f 421/2/5 418/2/5 417/2/5
f 422/2/5 418/2/5 421/2/5
f 425/3/5 424/3/5 423/3/5
f 426/3/5 424/3/5 425/3/5
f 427/2/6 428/2/6 431/2/6
f 431/2/6 428/2/6 432/2/6
f 429/2/6 430/2/6 433/2/6
f 433/2/6 430/2/6 434/2/6
f 435/2/6 436/2/6 439/2/6
f 439/2/6 436/2/6 440/2/6
f 437/2/6 438/2/6 441/2/6
f 441/2/6 438/2/6 442/2/6
f 443/2/6 444/2/6 447/2/6
f 447/2/6 444/2/6 448/2/6
f 445/2/6 446/2/6 449/2/6
f 449/2/6 446/2/6 450/2/6
f 451/2/6 452/2/6 455/2/6
f 455/2/6 452/2/6 456/2/6
f 453/2/6 454/2/6 457/2/6
f 457/2/6 454/2/6 458/2/6
f 459/2/6 460/2/6 463/2/6
f 463/2/6 460/2/6 464/2/6
f 461/2/6 462/2/6 465/2/6
f 465/2/6 462/2/6 466/2/6
f 467/2/6 468/2/6 471/2/6
f 471/2/6 468/2/6 472/2/6
f 469/2/6 470/2/6 473/2/6
f 473/2/6 470/2/6 474/2/6
f 475/2/6 476/2/6 479/2/6
f 479/2/6 476/2/6 480/2/6
f 477/2/6 478/2/6 481/2/6
f 481/2/6 478/2/6 482/2/6
f 483/2/6 484/2/6 487/2/6
f 487/2/6 484/2/6 488/2/6
f 485/2/6 486/2/6 489/2/6
f 489/2/6 486/2/6 490/2/6
f 491/3/6 492/3/6 493/3/6
f 493/3/6 492/3/6 494/3/6
f 495/3/6 496/3/6 497/3/6
f 497/3/6 496/3/6 498/3/6
f 499/3/6 500/3/6 501/3/6
f 501/3/6 500/3/6 502/3/6
f 503/3/6 504/3/6 505/3/6
f 505/3/6 504/3/6 506/3/6
f 507/1/6 508/1/6 511/1/6
f 511/1/6 508/1/6 512/1/6
f 509/1/6 510/1/6 513/1/6
f 513/1/6 510/1/6 514/1/6
f 515/3/6 516/3/6 517/3/6
f 517/3/6 516/3/6 518/3/6
f 519/1/6 520/1/6 523/1/6
f 523/1/6 520/1/6 524/1/6
f 521/1/6 522/1/6 525/1/6
f 525/1/6 522/1/6 526/1/6
