# MagicaVoxel @ Ephtracy

# group
g pre_frog

# material
mtllib pre_frog.mtl
usemtl palette

# normals
vn -1 0 0
vn 1 0 0
vn 0 0 1
vn 0 0 -1
vn 0 -1 0
vn 0 1 0

# texcoords
vt 0.916016 0.5
vt 0.947266 0.5
vt 0.951172 0.5
vt 0.970703 0.5
vt 0.974609 0.5

# verts
v -5 0 0.5
v -5 0 -0.5
v -5 0 -1.5
v -5 0 -2.5
v -5 0 -3.5
v -5 1 0.5
v -5 1 -0.5
v -5 1 -1.5
v -5 1 -2.5
v -5 1 -3.5
v -5 2 -1.5
v -5 2 -3.5
v -4 2 2.5
v -4 2 1.5
v -4 2 0.5
v -4 2 -0.5
v -4 2 -1.5
v -4 2 -2.5
v -4 2 -3.5
v -4 3 2.5
v -4 3 1.5
v -4 3 -1.5
v -4 3 -2.5
v -4 3 -3.5
v -4 4 2.5
v -4 4 0.5
v -4 4 -0.5
v -4 4 -1.5
v -4 4 -2.5
v -4 4 -3.5
v -3 0 3.5
v -3 0 0.5
v -3 0 -3.5
v -3 0 -4.5
v -3 1 3.5
v -3 1 2.5
v -3 1 0.5
v -3 1 -3.5
v -3 1 -4.5
v -3 2 2.5
v -3 2 1.5
v -3 2 0.5
v -3 2 -3.5
v -3 2 -4.5
v -3 3 4.5
v -3 3 2.5
v -3 4 4.5
v -3 4 3.5
v -3 4 2.5
v -3 4 0.5
v -3 4 -0.5
v -3 4 -1.5
v -3 4 -2.5
v -3 5 4.5
v -3 5 3.5
v -3 5 2.5
v -3 5 0.5
v -3 5 -1.5
v -3 5 -2.5
v -3 6 4.5
v -3 6 3.5
v -3 6 2.5
v -3 6 0.5
v -3 6 -0.5
v -3 6 -1.5
v -3 6 -2.5
v -3 7 3.5
v -3 7 2.5
v -3 7 -0.5
v -2 4 4.5
v -2 4 3.5
v -2 5 4.5
v -2 5 3.5
v -2 6 -0.5
v -2 6 -1.5
v -2 7 3.5
v -2 7 2.5
v -2 7 1.5
v -2 7 0.5
v -2 7 -0.5
v -2 7 -1.5
v -2 8 3.5
v -2 8 2.5
v -2 8 1.5
v -2 8 0.5
v -2 8 -0.5
v 1 0 3.5
v 1 0 0.5
v 1 1 3.5
v 1 1 2.5
v 1 2 1.5
v 1 2 0.5
v 1 3 2.5
v 1 3 1.5
v 3 0 0.5
v 3 0 -2.5
v 3 1 0.5
v 3 1 -1.5
v 3 2 -1.5
v 3 2 -2.5
v -3 0 0.5
v -3 0 -2.5
v -3 1 0.5
v -3 1 -1.5
v -3 2 -1.5
v -3 2 -2.5
v -1 0 3.5
v -1 0 0.5
v -1 1 3.5
v -1 1 2.5
v -1 2 1.5
v -1 2 0.5
v -1 3 2.5
v -1 3 1.5
v 2 4 4.5
v 2 4 3.5
v 2 5 4.5
v 2 5 3.5
v 2 6 -0.5
v 2 6 -1.5
v 2 7 3.5
v 2 7 2.5
v 2 7 1.5
v 2 7 0.5
v 2 7 -0.5
v 2 7 -1.5
v 2 8 3.5
v 2 8 2.5
v 2 8 1.5
v 2 8 0.5
v 2 8 -0.5
v 3 0 3.5
v 3 0 0.5
v 3 0 -3.5
v 3 0 -4.5
v 3 1 3.5
v 3 1 2.5
v 3 1 0.5
v 3 1 -3.5
v 3 1 -4.5
v 3 2 2.5
v 3 2 1.5
v 3 2 0.5
v 3 2 -3.5
v 3 2 -4.5
v 3 3 4.5
v 3 3 2.5
v 3 4 4.5
v 3 4 3.5
v 3 4 2.5
v 3 4 0.5
v 3 4 -0.5
v 3 4 -1.5
v 3 4 -2.5
v 3 5 4.5
v 3 5 3.5
v 3 5 2.5
v 3 5 0.5
v 3 5 -1.5
v 3 5 -2.5
v 3 6 4.5
v 3 6 3.5
v 3 6 2.5
v 3 6 0.5
v 3 6 -0.5
v 3 6 -1.5
v 3 6 -2.5
v 3 7 3.5
v 3 7 2.5
v 3 7 -0.5
v 4 2 2.5
v 4 2 1.5
v 4 2 0.5
v 4 2 -0.5
v 4 2 -1.5
v 4 2 -2.5
v 4 2 -3.5
v 4 3 2.5
v 4 3 1.5
v 4 3 -1.5
v 4 3 -2.5
v 4 3 -3.5
v 4 4 2.5
v 4 4 0.5
v 4 4 -0.5
v 4 4 -1.5
v 4 4 -2.5
v 4 4 -3.5
v 5 0 0.5
v 5 0 -0.5
v 5 0 -1.5
v 5 0 -2.5
v 5 0 -3.5
v 5 1 0.5
v 5 1 -0.5
v 5 1 -1.5
v 5 1 -2.5
v 5 1 -3.5
v 5 2 -1.5
v 5 2 -3.5
v -3 3 4.5
v -3 4 4.5
v -3 5 4.5
v -3 6 4.5
v -2 4 4.5
v -2 5 4.5
v 2 4 4.5
v 2 5 4.5
v 3 3 4.5
v 3 4 4.5
v 3 5 4.5
v 3 6 4.5
v -3 0 3.5
v -3 1 3.5
v -3 4 3.5
v -3 5 3.5
v -3 6 3.5
v -3 7 3.5
v -2 4 3.5
v -2 5 3.5
v -2 6 3.5
v -2 7 3.5
v -2 8 3.5
v -1 0 3.5
v -1 1 3.5
v -1 6 3.5
v -1 7 3.5
v -1 8 3.5
v 1 0 3.5
v 1 1 3.5
v 1 6 3.5
v 1 7 3.5
v 1 8 3.5
v 2 4 3.5
v 2 5 3.5
v 2 6 3.5
v 2 7 3.5
v 2 8 3.5
v 3 0 3.5
v 3 1 3.5
v 3 4 3.5
v 3 5 3.5
v 3 6 3.5
v 3 7 3.5
v -4 2 2.5
v -4 3 2.5
v -4 4 2.5
v -3 1 2.5
v -3 2 2.5
v -3 3 2.5
v -3 4 2.5
v -1 1 2.5
v -1 3 2.5
v 1 1 2.5
v 1 3 2.5
v 3 1 2.5
v 3 2 2.5
v 3 3 2.5
v 3 4 2.5
v 4 2 2.5
v 4 3 2.5
v 4 4 2.5
v -1 2 1.5
v -1 3 1.5
v 1 2 1.5
v 1 3 1.5
v -5 0 0.5
v -5 1 0.5
v -3 0 0.5
v -3 1 0.5
v 3 0 0.5
v 3 1 0.5
v 5 0 0.5
v 5 1 0.5
v -5 1 -1.5
v -5 2 -1.5
v -4 1 -1.5
v -4 2 -1.5
v -3 1 -1.5
v -3 2 -1.5
v 3 1 -1.5
v 3 2 -1.5
v 4 1 -1.5
v 4 2 -1.5
v 5 1 -1.5
v 5 2 -1.5
v -3 0 -2.5
v -3 2 -2.5
v 3 0 -2.5
v 3 2 -2.5
v -3 0 0.5
v -3 1 0.5
v -3 2 0.5
v -1 0 0.5
v -1 2 0.5
v 1 0 0.5
v 1 2 0.5
v 3 0 0.5
v 3 1 0.5
v 3 2 0.5
v -3 6 -0.5
v -3 7 -0.5
v -2 6 -0.5
v -2 7 -0.5
v -2 8 -0.5
v -1 7 -0.5
v -1 8 -0.5
v 1 7 -0.5
v 1 8 -0.5
v 2 6 -0.5
v 2 7 -0.5
v 2 8 -0.5
v 3 6 -0.5
v 3 7 -0.5
v -2 6 -1.5
v -2 7 -1.5
v -1 6 -1.5
v 1 6 -1.5
v 2 6 -1.5
v 2 7 -1.5
v -3 4 -2.5
v -3 5 -2.5
v -3 6 -2.5
v -2 4 -2.5
v -2 5 -2.5
v -2 6 -2.5
v -1 4 -2.5
v -1 5 -2.5
v -1 6 -2.5
v 1 4 -2.5
v 1 5 -2.5
v 1 6 -2.5
v 2 4 -2.5
v 2 5 -2.5
v 2 6 -2.5
v 3 4 -2.5
v 3 5 -2.5
v 3 6 -2.5
v -5 0 -3.5
v -5 1 -3.5
v -5 2 -3.5
v -4 0 -3.5
v -4 1 -3.5
v -4 2 -3.5
v -4 3 -3.5
v -4 4 -3.5
v -3 0 -3.5
v -3 1 -3.5
v -3 2 -3.5
v -2 2 -3.5
v -2 3 -3.5
v -2 4 -3.5
v -1 2 -3.5
v -1 3 -3.5
v -1 4 -3.5
v 1 2 -3.5
v 1 3 -3.5
v 1 4 -3.5
v 2 2 -3.5
v 2 3 -3.5
v 2 4 -3.5
v 3 0 -3.5
v 3 1 -3.5
v 3 2 -3.5
v 4 0 -3.5
v 4 1 -3.5
v 4 2 -3.5
v 4 3 -3.5
v 4 4 -3.5
v 5 0 -3.5
v 5 1 -3.5
v 5 2 -3.5
v -3 0 -4.5
v -3 1 -4.5
v -3 2 -4.5
v -2 1 -4.5
v -2 2 -4.5
v -1 0 -4.5
v -1 1 -4.5
v 1 0 -4.5
v 1 1 -4.5
v 2 1 -4.5
v 2 2 -4.5
v 3 0 -4.5
v 3 1 -4.5
v 3 2 -4.5
v -3 0 3.5
v -1 0 3.5
v 1 0 3.5
v 3 0 3.5
v -5 0 0.5
v -3 0 0.5
v -1 0 0.5
v 1 0 0.5
v 3 0 0.5
v 5 0 0.5
v -5 0 -0.5
v -4 0 -0.5
v 4 0 -0.5
v 5 0 -0.5
v -5 0 -1.5
v -4 0 -1.5
v 4 0 -1.5
v 5 0 -1.5
v -5 0 -2.5
v -4 0 -2.5
v -3 0 -2.5
v 3 0 -2.5
v 4 0 -2.5
v 5 0 -2.5
v -5 0 -3.5
v -4 0 -3.5
v -3 0 -3.5
v -1 0 -3.5
v 1 0 -3.5
v 3 0 -3.5
v 4 0 -3.5
v 5 0 -3.5
v -3 0 -4.5
v -1 0 -4.5
v 1 0 -4.5
v 3 0 -4.5
v -4 2 2.5
v -3 2 2.5
v 3 2 2.5
v 4 2 2.5
v -4 2 1.5
v -3 2 1.5
v -1 2 1.5
v 1 2 1.5
v 3 2 1.5
v 4 2 1.5
v -4 2 0.5
v -3 2 0.5
v -1 2 0.5
v 1 2 0.5
v 3 2 0.5
v 4 2 0.5
v -4 2 -0.5
v -3 2 -0.5
v 3 2 -0.5
v 4 2 -0.5
v -4 2 -1.5
v -3 2 -1.5
v 3 2 -1.5
v 4 2 -1.5
v -3 2 -2.5
v 3 2 -2.5
v -3 3 4.5
v 3 3 4.5
v -3 3 2.5
v -1 3 2.5
v 1 3 2.5
v 3 3 2.5
v -1 3 1.5
v 1 3 1.5
v -3 5 4.5
v -2 5 4.5
v 2 5 4.5
v 3 5 4.5
v -3 5 3.5
v -2 5 3.5
v 2 5 3.5
v 3 5 3.5
v -3 1 3.5
v -1 1 3.5
v 1 1 3.5
v 3 1 3.5
v -3 1 2.5
v -1 1 2.5
v 1 1 2.5
v 3 1 2.5
v -5 1 0.5
v -3 1 0.5
v 3 1 0.5
v 5 1 0.5
v -5 1 -0.5
v -4 1 -0.5
v 4 1 -0.5
v 5 1 -0.5
v -5 1 -1.5
v -4 1 -1.5
v -3 1 -1.5
v 3 1 -1.5
v 4 1 -1.5
v 5 1 -1.5
v -5 2 -1.5
v -4 2 -1.5
v 4 2 -1.5
v 5 2 -1.5
v -4 2 -2.5
v 4 2 -2.5
v -5 2 -3.5
v -4 2 -3.5
v -3 2 -3.5
v -2 2 -3.5
v -1 2 -3.5
v 1 2 -3.5
v 2 2 -3.5
v 3 2 -3.5
v 4 2 -3.5
v 5 2 -3.5
v -3 2 -4.5
v -2 2 -4.5
v 2 2 -4.5
v 3 2 -4.5
v -3 4 4.5
v -2 4 4.5
v 2 4 4.5
v 3 4 4.5
v -3 4 3.5
v -2 4 3.5
v 2 4 3.5
v 3 4 3.5
v -4 4 2.5
v -3 4 2.5
v 3 4 2.5
v 4 4 2.5
v -4 4 0.5
v -3 4 0.5
v 3 4 0.5
v 4 4 0.5
v -4 4 -0.5
v -3 4 -0.5
v 3 4 -0.5
v 4 4 -0.5
v -4 4 -1.5
v -3 4 -1.5
v 3 4 -1.5
v 4 4 -1.5
v -4 4 -2.5
v -3 4 -2.5
v -2 4 -2.5
v -1 4 -2.5
v 1 4 -2.5
v 2 4 -2.5
v 3 4 -2.5
v 4 4 -2.5
v -4 4 -3.5
v -2 4 -3.5
v -1 4 -3.5
v 1 4 -3.5
v 2 4 -3.5
v 4 4 -3.5
v -3 6 4.5
v 3 6 4.5
v -3 6 3.5
v -2 6 3.5
v -1 6 3.5
v 1 6 3.5
v 2 6 3.5
v 3 6 3.5
v -3 6 -0.5
v -2 6 -0.5
v 2 6 -0.5
v 3 6 -0.5
v -3 6 -1.5
v -2 6 -1.5
v -1 6 -1.5
v 1 6 -1.5
v 2 6 -1.5
v 3 6 -1.5
v -3 6 -2.5
v -2 6 -2.5
v -1 6 -2.5
v 1 6 -2.5
v 2 6 -2.5
v 3 6 -2.5
v -3 7 3.5
v -2 7 3.5
v 2 7 3.5
v 3 7 3.5
v -3 7 2.5
v -2 7 2.5
v 2 7 2.5
v 3 7 2.5
v -2 7 1.5
v 2 7 1.5
v -2 7 0.5
v 2 7 0.5
v -3 7 -0.5
v -2 7 -0.5
v -1 7 -0.5
v 1 7 -0.5
v 2 7 -0.5
v 3 7 -0.5
v -2 7 -1.5
v 2 7 -1.5
v -2 8 3.5
v -1 8 3.5
v 1 8 3.5
v 2 8 3.5
v -2 8 2.5
v -1 8 2.5
v 1 8 2.5
v 2 8 2.5
v -2 8 1.5
v -1 8 1.5
v 1 8 1.5
v 2 8 1.5
v -2 8 0.5
v -1 8 0.5
v 1 8 0.5
v 2 8 0.5
v -2 8 -0.5
v -1 8 -0.5
v 1 8 -0.5
v 2 8 -0.5

# faces
f 6/2/1 2/2/1 1/2/1
f 7/1/1 3/1/1 2/1/1
f 7/2/1 2/2/1 6/2/1
f 8/2/1 4/2/1 3/2/1
f 8/1/1 3/1/1 7/1/1
f 9/1/1 5/1/1 4/1/1
f 9/2/1 4/2/1 8/2/1
f 10/1/1 5/1/1 9/1/1
f 11/2/1 10/2/1 9/2/1
f 11/2/1 9/2/1 8/2/1
f 12/2/1 10/2/1 11/2/1
f 20/1/1 14/1/1 13/1/1
f 21/2/1 15/2/1 14/2/1
f 21/1/1 14/1/1 20/1/1
f 22/2/1 17/2/1 16/2/1
f 22/2/1 18/2/1 17/2/1
f 23/1/1 19/1/1 18/1/1
f 23/2/1 18/2/1 22/2/1
f 24/1/1 19/1/1 23/1/1
f 25/2/1 21/2/1 20/2/1
f 26/1/1 16/1/1 15/1/1
f 26/2/1 21/2/1 25/2/1
f 26/2/1 15/2/1 21/2/1
f 27/2/1 22/2/1 16/2/1
f 27/1/1 16/1/1 26/1/1
f 28/1/1 23/1/1 22/1/1
f 28/2/1 22/2/1 27/2/1
f 29/2/1 24/2/1 23/2/1
f 29/1/1 23/1/1 28/1/1
f 30/2/1 24/2/1 29/2/1
f 35/2/1 32/2/1 31/2/1
f 36/2/1 32/2/1 35/2/1
f 37/2/1 32/2/1 36/2/1
f 38/2/1 34/2/1 33/2/1
f 39/2/1 34/2/1 38/2/1
f 40/2/1 37/2/1 36/2/1
f 41/2/1 37/2/1 40/2/1
f 42/2/1 37/2/1 41/2/1
f 43/1/1 39/1/1 38/1/1
f 44/1/1 39/1/1 43/1/1
f 47/2/1 46/2/1 45/2/1
f 48/2/1 46/2/1 47/2/1
f 49/2/1 46/2/1 48/2/1
f 55/2/1 49/2/1 48/2/1
f 56/4/1 50/4/1 49/4/1
f 56/4/1 51/4/1 50/4/1
f 56/2/1 49/2/1 55/2/1
f 57/4/1 51/4/1 56/4/1
f 58/2/1 53/2/1 52/2/1
f 58/2/1 52/2/1 51/2/1
f 59/2/1 53/2/1 58/2/1
f 60/2/1 55/2/1 54/2/1
f 60/2/1 56/2/1 55/2/1
f 61/2/1 56/2/1 60/2/1
f 62/5/1 57/5/1 56/5/1
f 62/2/1 56/2/1 61/2/1
f 63/4/1 51/4/1 57/4/1
f 63/5/1 57/5/1 62/5/1
f 64/2/1 58/2/1 51/2/1
f 64/4/1 51/4/1 63/4/1
f 65/1/1 59/1/1 58/1/1
f 65/2/1 58/2/1 64/2/1
f 66/1/1 59/1/1 65/1/1
f 67/2/1 62/2/1 61/2/1
f 68/4/1 64/4/1 63/4/1
f 68/2/1 62/2/1 67/2/1
f 68/4/1 63/4/1 62/4/1
f 69/4/1 64/4/1 68/4/1
f 72/3/1 71/3/1 70/3/1
f 73/3/1 71/3/1 72/3/1
f 80/2/1 75/2/1 74/2/1
f 81/2/1 75/2/1 80/2/1
f 82/2/1 77/2/1 76/2/1
f 83/1/1 78/1/1 77/1/1
f 83/2/1 77/2/1 82/2/1
f 84/2/1 79/2/1 78/2/1
f 84/1/1 78/1/1 83/1/1
f 85/1/1 80/1/1 79/1/1
f 85/2/1 79/2/1 84/2/1
f 86/1/1 80/1/1 85/1/1
f 89/2/1 88/2/1 87/2/1
f 90/2/1 88/2/1 89/2/1
f 91/2/1 88/2/1 90/2/1
f 92/2/1 88/2/1 91/2/1
f 93/2/1 91/2/1 90/2/1
f 94/2/1 91/2/1 93/2/1
f 97/2/1 96/2/1 95/2/1
f 98/2/1 96/2/1 97/2/1
f 99/2/1 96/2/1 98/2/1
f 100/2/1 96/2/1 99/2/1
f 101/2/2 102/2/2 103/2/2
f 103/2/2 102/2/2 104/2/2
f 104/2/2 102/2/2 105/2/2
f 105/2/2 102/2/2 106/2/2
f 107/2/2 108/2/2 109/2/2
f 109/2/2 108/2/2 110/2/2
f 110/2/2 108/2/2 111/2/2
f 111/2/2 108/2/2 112/2/2
f 110/2/2 111/2/2 113/2/2
f 113/2/2 111/2/2 114/2/2
f 115/3/2 116/3/2 117/3/2
f 117/3/2 116/3/2 118/3/2
f 119/2/2 120/2/2 125/2/2
f 125/2/2 120/2/2 126/2/2
f 121/2/2 122/2/2 127/2/2
f 122/1/2 123/1/2 128/1/2
f 127/2/2 122/2/2 128/2/2
f 123/2/2 124/2/2 129/2/2
f 128/1/2 123/1/2 129/1/2
f 124/1/2 125/1/2 130/1/2
f 129/2/2 124/2/2 130/2/2
f 130/1/2 125/1/2 131/1/2
f 132/2/2 133/2/2 136/2/2
f 136/2/2 133/2/2 137/2/2
f 137/2/2 133/2/2 138/2/2
f 134/2/2 135/2/2 139/2/2
f 139/2/2 135/2/2 140/2/2
f 137/2/2 138/2/2 141/2/2
f 141/2/2 138/2/2 142/2/2
f 142/2/2 138/2/2 143/2/2
f 139/1/2 140/1/2 144/1/2
f 144/1/2 140/1/2 145/1/2
f 146/2/2 147/2/2 148/2/2
f 148/2/2 147/2/2 149/2/2
f 149/2/2 147/2/2 150/2/2
f 149/2/2 150/2/2 156/2/2
f 150/4/2 151/4/2 157/4/2
f 151/4/2 152/4/2 157/4/2
f 156/2/2 150/2/2 157/2/2
f 157/4/2 152/4/2 158/4/2
f 153/2/2 154/2/2 159/2/2
f 152/2/2 153/2/2 159/2/2
f 159/2/2 154/2/2 160/2/2
f 155/2/2 156/2/2 161/2/2
f 156/2/2 157/2/2 161/2/2
f 161/2/2 157/2/2 162/2/2
f 157/5/2 158/5/2 163/5/2
f 162/2/2 157/2/2 163/2/2
f 158/4/2 152/4/2 164/4/2
f 163/5/2 158/5/2 164/5/2
f 152/2/2 159/2/2 165/2/2
f 164/4/2 152/4/2 165/4/2
f 159/1/2 160/1/2 166/1/2
f 165/2/2 159/2/2 166/2/2
f 166/1/2 160/1/2 167/1/2
f 162/2/2 163/2/2 168/2/2
f 164/4/2 165/4/2 169/4/2
f 168/2/2 163/2/2 169/2/2
f 163/4/2 164/4/2 169/4/2
f 169/4/2 165/4/2 170/4/2
f 171/1/2 172/1/2 178/1/2
f 172/2/2 173/2/2 179/2/2
f 178/1/2 172/1/2 179/1/2
f 174/2/2 175/2/2 180/2/2
f 175/2/2 176/2/2 180/2/2
f 176/1/2 177/1/2 181/1/2
f 180/2/2 176/2/2 181/2/2
f 181/1/2 177/1/2 182/1/2
f 178/2/2 179/2/2 183/2/2
f 173/1/2 174/1/2 184/1/2
f 183/2/2 179/2/2 184/2/2
f 179/2/2 173/2/2 184/2/2
f 174/2/2 180/2/2 185/2/2
f 184/1/2 174/1/2 185/1/2
f 180/1/2 181/1/2 186/1/2
f 185/2/2 180/2/2 186/2/2
f 181/2/2 182/2/2 187/2/2
f 186/1/2 181/1/2 187/1/2
f 187/2/2 182/2/2 188/2/2
f 189/2/2 190/2/2 194/2/2
f 190/1/2 191/1/2 195/1/2
f 194/2/2 190/2/2 195/2/2
f 191/2/2 192/2/2 196/2/2
f 195/1/2 191/1/2 196/1/2
f 192/1/2 193/1/2 197/1/2
f 196/2/2 192/2/2 197/2/2
f 197/1/2 193/1/2 198/1/2
f 197/2/2 198/2/2 199/2/2
f 196/2/2 197/2/2 199/2/2
f 199/2/2 198/2/2 200/2/2
f 205/2/3 202/2/3 201/2/3
f 206/2/3 204/2/3 203/2/3
f 207/2/3 205/2/3 201/2/3
f 207/3/3 206/3/3 205/3/3
f 208/2/3 204/2/3 206/2/3
f 208/3/3 206/3/3 207/3/3
f 209/2/3 207/2/3 201/2/3
f 210/2/3 207/2/3 209/2/3
f 211/2/3 204/2/3 208/2/3
f 212/2/3 204/2/3 211/2/3
f 219/2/3 216/2/3 215/2/3
f 220/2/3 216/2/3 219/2/3
f 221/2/3 218/2/3 217/2/3
f 222/2/3 218/2/3 221/2/3
f 224/2/3 214/2/3 213/2/3
f 225/2/3 214/2/3 224/2/3
f 226/1/3 222/1/3 221/1/3
f 227/2/3 223/2/3 222/2/3
f 227/1/3 222/1/3 226/1/3
f 228/2/3 223/2/3 227/2/3
f 231/2/3 227/2/3 226/2/3
f 232/1/3 228/1/3 227/1/3
f 232/2/3 227/2/3 231/2/3
f 233/1/3 228/1/3 232/1/3
f 236/1/3 232/1/3 231/1/3
f 237/2/3 233/2/3 232/2/3
f 237/1/3 232/1/3 236/1/3
f 238/2/3 233/2/3 237/2/3
f 239/2/3 230/2/3 229/2/3
f 240/2/3 230/2/3 239/2/3
f 241/2/3 235/2/3 234/2/3
f 242/2/3 235/2/3 241/2/3
f 243/2/3 237/2/3 236/2/3
f 244/2/3 237/2/3 243/2/3
f 249/1/3 246/1/3 245/1/3
f 250/2/3 247/2/3 246/2/3
f 250/1/3 246/1/3 249/1/3
f 251/2/3 247/2/3 250/2/3
f 252/2/3 249/2/3 248/2/3
f 252/2/3 250/2/3 249/2/3
f 253/2/3 250/2/3 252/2/3
f 256/2/3 255/2/3 254/2/3
f 257/2/3 255/2/3 256/2/3
f 258/2/3 255/2/3 257/2/3
f 260/1/3 258/1/3 257/1/3
f 261/2/3 259/2/3 258/2/3
f 261/1/3 258/1/3 260/1/3
f 262/2/3 259/2/3 261/2/3
f 265/2/3 264/2/3 263/2/3
f 266/2/3 264/2/3 265/2/3
f 269/2/3 268/2/3 267/2/3
f 270/2/3 268/2/3 269/2/3
f 273/2/3 272/2/3 271/2/3
f 274/2/3 272/2/3 273/2/3
f 277/2/3 276/2/3 275/2/3
f 278/2/3 276/2/3 277/2/3
f 279/2/3 278/2/3 277/2/3
f 280/2/3 278/2/3 279/2/3
f 283/2/3 282/2/3 281/2/3
f 284/2/3 282/2/3 283/2/3
f 285/2/3 284/2/3 283/2/3
f 286/2/3 284/2/3 285/2/3
f 289/2/3 288/2/3 287/2/3
f 290/2/3 288/2/3 289/2/3
f 291/2/4 292/2/4 294/2/4
f 292/2/4 293/2/4 294/2/4
f 294/2/4 293/2/4 295/2/4
f 296/2/4 297/2/4 298/2/4
f 298/2/4 297/2/4 299/2/4
f 299/2/4 297/2/4 300/2/4
f 301/4/4 302/4/4 303/4/4
f 303/4/4 302/4/4 304/4/4
f 304/1/4 305/1/4 306/1/4
f 306/1/4 305/1/4 307/1/4
f 306/2/4 307/2/4 308/2/4
f 308/2/4 307/2/4 309/2/4
f 308/1/4 309/1/4 311/1/4
f 311/1/4 309/1/4 312/1/4
f 310/4/4 311/4/4 313/4/4
f 313/4/4 311/4/4 314/4/4
f 315/2/4 316/2/4 317/2/4
f 317/2/4 316/2/4 318/2/4
f 318/2/4 316/2/4 319/2/4
f 319/2/4 316/2/4 320/2/4
f 321/2/4 322/2/4 324/2/4
f 322/1/4 323/1/4 325/1/4
f 324/2/4 322/2/4 325/2/4
f 325/1/4 323/1/4 326/1/4
f 324/2/4 325/2/4 327/2/4
f 325/2/4 326/2/4 327/2/4
f 327/2/4 326/2/4 328/2/4
f 328/2/4 326/2/4 329/2/4
f 327/2/4 328/2/4 330/2/4
f 328/1/4 329/1/4 331/1/4
f 330/2/4 328/2/4 331/2/4
f 331/1/4 329/1/4 332/1/4
f 330/2/4 331/2/4 333/2/4
f 331/2/4 332/2/4 333/2/4
f 333/2/4 332/2/4 334/2/4
f 334/2/4 332/2/4 335/2/4
f 333/2/4 334/2/4 336/2/4
f 334/1/4 335/1/4 337/1/4
f 336/2/4 334/2/4 337/2/4
f 337/1/4 335/1/4 338/1/4
f 339/1/4 340/1/4 342/1/4
f 340/2/4 341/2/4 343/2/4
f 342/1/4 340/1/4 343/1/4
f 343/2/4 341/2/4 344/2/4
f 342/2/4 343/2/4 347/2/4
f 343/2/4 344/2/4 347/2/4
f 347/2/4 344/2/4 348/2/4
f 344/1/4 345/1/4 349/1/4
f 348/2/4 344/2/4 349/2/4
f 349/1/4 345/1/4 350/1/4
f 345/2/4 346/2/4 351/2/4
f 350/1/4 345/1/4 351/1/4
f 351/2/4 346/2/4 352/2/4
f 350/2/4 351/2/4 353/2/4
f 351/1/4 352/1/4 354/1/4
f 353/2/4 351/2/4 354/2/4
f 354/1/4 352/1/4 355/1/4
f 353/1/4 354/1/4 356/1/4
f 354/2/4 355/2/4 357/2/4
f 356/1/4 354/1/4 357/1/4
f 357/2/4 355/2/4 358/2/4
f 356/2/4 357/2/4 359/2/4
f 357/1/4 358/1/4 360/1/4
f 359/2/4 357/2/4 360/2/4
f 360/1/4 358/1/4 361/1/4
f 359/1/4 360/1/4 364/1/4
f 362/2/4 363/2/4 365/2/4
f 363/2/4 364/2/4 365/2/4
f 365/2/4 364/2/4 366/2/4
f 364/1/4 360/1/4 367/1/4
f 366/2/4 364/2/4 367/2/4
f 360/2/4 361/2/4 368/2/4
f 367/1/4 360/1/4 368/1/4
f 368/2/4 361/2/4 369/2/4
f 365/1/4 366/1/4 370/1/4
f 366/2/4 367/2/4 371/2/4
f 370/1/4 366/1/4 371/1/4
f 371/2/4 367/2/4 372/2/4
f 373/2/4 374/2/4 376/2/4
f 374/1/4 375/1/4 376/1/4
f 376/1/4 375/1/4 377/1/4
f 373/2/4 376/2/4 378/2/4
f 376/2/4 377/2/4 378/2/4
f 378/2/4 377/2/4 379/2/4
f 378/1/4 379/1/4 380/1/4
f 379/2/4 377/2/4 381/2/4
f 380/1/4 379/1/4 381/1/4
f 380/2/4 381/2/4 382/2/4
f 381/2/4 377/2/4 382/2/4
f 382/2/4 377/2/4 383/2/4
f 380/2/4 382/2/4 384/2/4
f 382/1/4 383/1/4 385/1/4
f 384/2/4 382/2/4 385/2/4
f 385/1/4 383/1/4 386/1/4
f 392/2/5 388/2/5 387/2/5
f 393/2/5 388/2/5 392/2/5
f 394/2/5 390/2/5 389/2/5
f 395/2/5 390/2/5 394/2/5
f 397/2/5 392/2/5 391/2/5
f 398/2/5 392/2/5 397/2/5
f 399/2/5 396/2/5 395/2/5
f 400/2/5 396/2/5 399/2/5
f 401/1/5 398/1/5 397/1/5
f 402/2/5 392/2/5 398/2/5
f 402/1/5 398/1/5 401/1/5
f 403/2/5 399/2/5 395/2/5
f 403/1/5 400/1/5 399/1/5
f 404/1/5 400/1/5 403/1/5
f 405/2/5 402/2/5 401/2/5
f 406/2/5 392/2/5 402/2/5
f 406/2/5 402/2/5 405/2/5
f 407/2/5 392/2/5 406/2/5
f 408/2/5 403/2/5 395/2/5
f 408/2/5 404/2/5 403/2/5
f 409/2/5 404/2/5 408/2/5
f 410/2/5 404/2/5 409/2/5
f 411/1/5 406/1/5 405/1/5
f 412/2/5 407/2/5 406/2/5
f 412/1/5 406/1/5 411/1/5
f 412/2/5 408/2/5 407/2/5
f 412/2/5 409/2/5 408/2/5
f 413/2/5 409/2/5 412/2/5
f 414/2/5 409/2/5 413/2/5
f 415/2/5 409/2/5 414/2/5
f 416/2/5 409/2/5 415/2/5
f 417/1/5 410/1/5 409/1/5
f 417/2/5 409/2/5 416/2/5
f 418/1/5 410/1/5 417/1/5
f 419/2/5 414/2/5 413/2/5
f 420/1/5 415/1/5 414/1/5
f 420/2/5 414/2/5 419/2/5
f 421/2/5 416/2/5 415/2/5
f 421/1/5 415/1/5 420/1/5
f 422/2/5 416/2/5 421/2/5
f 427/1/5 424/1/5 423/1/5
f 428/1/5 424/1/5 427/1/5
f 431/1/5 426/1/5 425/1/5
f 432/1/5 426/1/5 431/1/5
f 433/2/5 428/2/5 427/2/5
f 434/2/5 428/2/5 433/2/5
f 435/2/5 430/2/5 429/2/5
f 436/2/5 430/2/5 435/2/5
f 437/2/5 432/2/5 431/2/5
f 438/2/5 432/2/5 437/2/5
f 439/1/5 434/1/5 433/1/5
f 440/2/5 436/2/5 435/2/5
f 440/1/5 434/1/5 439/1/5
f 440/2/5 435/2/5 434/2/5
f 440/2/5 437/2/5 436/2/5
f 441/1/5 438/1/5 437/1/5
f 441/2/5 437/2/5 440/2/5
f 442/1/5 438/1/5 441/1/5
f 443/2/5 440/2/5 439/2/5
f 443/2/5 441/2/5 440/2/5
f 443/2/5 442/2/5 441/2/5
f 444/2/5 442/2/5 443/2/5
f 445/2/5 442/2/5 444/2/5
f 446/2/5 442/2/5 445/2/5
f 447/2/5 445/2/5 444/2/5
f 448/2/5 445/2/5 447/2/5
f 451/2/5 450/2/5 449/2/5
f 452/2/5 450/2/5 451/2/5
f 453/2/5 450/2/5 452/2/5
f 454/2/5 450/2/5 453/2/5
f 455/2/5 453/2/5 452/2/5
f 456/2/5 453/2/5 455/2/5
f 461/2/5 458/2/5 457/2/5
f 462/2/5 458/2/5 461/2/5
f 463/2/5 460/2/5 459/2/5
f 464/2/5 460/2/5 463/2/5
f 465/2/6 466/2/6 469/2/6
f 469/2/6 466/2/6 470/2/6
f 467/2/6 468/2/6 471/2/6
f 471/2/6 468/2/6 472/2/6
f 473/2/6 474/2/6 477/2/6
f 477/2/6 474/2/6 478/2/6
f 475/2/6 476/2/6 479/2/6
f 479/2/6 476/2/6 480/2/6
f 477/1/6 478/1/6 481/1/6
f 478/2/6 474/2/6 482/2/6
f 481/1/6 478/1/6 482/1/6
f 482/2/6 474/2/6 483/2/6
f 475/2/6 479/2/6 484/2/6
f 479/1/6 480/1/6 485/1/6
f 484/2/6 479/2/6 485/2/6
f 485/1/6 480/1/6 486/1/6
f 487/2/6 488/2/6 491/2/6
f 489/2/6 490/2/6 492/2/6
f 487/2/6 491/2/6 493/2/6
f 493/2/6 491/2/6 494/2/6
f 492/2/6 490/2/6 501/2/6
f 501/2/6 490/2/6 502/2/6
f 495/1/6 496/1/6 503/1/6
f 496/2/6 497/2/6 504/2/6
f 503/1/6 496/1/6 504/1/6
f 497/2/6 498/2/6 504/2/6
f 498/2/6 499/2/6 504/2/6
f 499/1/6 500/1/6 505/1/6
f 504/2/6 499/2/6 505/2/6
f 505/1/6 500/1/6 506/1/6
f 507/2/6 508/2/6 511/2/6
f 511/2/6 508/2/6 512/2/6
f 509/2/6 510/2/6 513/2/6
f 513/2/6 510/2/6 514/2/6
f 515/2/6 516/2/6 519/2/6
f 519/2/6 516/2/6 520/2/6
f 517/2/6 518/2/6 521/2/6
f 521/2/6 518/2/6 522/2/6
f 519/1/6 520/1/6 523/1/6
f 523/1/6 520/1/6 524/1/6
f 521/1/6 522/1/6 525/1/6
f 525/1/6 522/1/6 526/1/6
f 523/2/6 524/2/6 527/2/6
f 527/2/6 524/2/6 528/2/6
f 525/2/6 526/2/6 529/2/6
f 529/2/6 526/2/6 530/2/6
f 527/1/6 528/1/6 531/1/6
f 531/1/6 528/1/6 532/1/6
f 529/1/6 530/1/6 537/1/6
f 537/1/6 530/1/6 538/1/6
f 531/2/6 532/2/6 539/2/6
f 532/2/6 533/2/6 539/2/6
f 533/1/6 534/1/6 540/1/6
f 539/2/6 533/2/6 540/2/6
f 534/2/6 535/2/6 541/2/6
f 540/1/6 534/1/6 541/1/6
f 535/1/6 536/1/6 542/1/6
f 541/2/6 535/2/6 542/2/6
f 537/2/6 538/2/6 543/2/6
f 542/1/6 536/1/6 543/1/6
f 536/2/6 537/2/6 543/2/6
f 543/2/6 538/2/6 544/2/6
f 545/2/6 546/2/6 547/2/6
f 547/2/6 546/2/6 548/2/6
f 548/2/6 546/2/6 549/2/6
f 549/2/6 546/2/6 550/2/6
f 550/2/6 546/2/6 551/2/6
f 551/2/6 546/2/6 552/2/6
f 553/2/6 554/2/6 557/2/6
f 557/2/6 554/2/6 558/2/6
f 555/2/6 556/2/6 561/2/6
f 561/2/6 556/2/6 562/2/6
f 557/1/6 558/1/6 563/1/6
f 558/2/6 559/2/6 564/2/6
f 563/1/6 558/1/6 564/1/6
f 559/1/6 560/1/6 565/1/6
f 564/2/6 559/2/6 565/2/6
f 560/2/6 561/2/6 566/2/6
f 565/1/6 560/1/6 566/1/6
f 561/1/6 562/1/6 567/1/6
f 566/2/6 561/2/6 567/2/6
f 567/1/6 562/1/6 568/1/6
f 569/2/6 570/2/6 573/2/6
f 573/2/6 570/2/6 574/2/6
f 571/2/6 572/2/6 575/2/6
f 575/2/6 572/2/6 576/2/6
f 573/4/6 574/4/6 577/4/6
f 575/4/6 576/4/6 578/4/6
f 573/4/6 577/4/6 579/4/6
f 578/4/6 576/4/6 580/4/6
f 573/4/6 579/4/6 581/4/6
f 581/4/6 579/4/6 582/4/6
f 580/4/6 576/4/6 585/4/6
f 585/4/6 576/4/6 586/4/6
f 583/2/6 584/2/6 587/2/6
f 584/2/6 585/2/6 587/2/6
f 582/2/6 583/2/6 587/2/6
f 587/2/6 585/2/6 588/2/6
f 589/2/6 590/2/6 593/2/6
f 590/1/6 591/1/6 594/1/6
f 593/2/6 590/2/6 594/2/6
f 591/2/6 592/2/6 595/2/6
f 594/1/6 591/1/6 595/1/6
f 595/2/6 592/2/6 596/2/6
f 593/1/6 594/1/6 597/1/6
f 594/2/6 595/2/6 598/2/6
f 597/1/6 594/1/6 598/1/6
f 595/1/6 596/1/6 599/1/6
f 598/2/6 595/2/6 599/2/6
f 599/1/6 596/1/6 600/1/6
f 597/2/6 598/2/6 601/2/6
f 598/2/6 599/2/6 601/2/6
f 599/2/6 600/2/6 601/2/6
f 601/2/6 600/2/6 602/2/6
f 602/2/6 600/2/6 603/2/6
f 603/2/6 600/2/6 604/2/6
f 601/1/6 602/1/6 605/1/6
f 602/2/6 603/2/6 606/2/6
f 605/1/6 602/1/6 606/1/6
f 603/1/6 604/1/6 607/1/6
f 606/2/6 603/2/6 607/2/6
f 607/1/6 604/1/6 608/1/6
