# MagicaVoxel @ Ephtracy

# group
g boxes03

# material
mtllib boxes03.mtl
usemtl palette

# normals
vn -1 0 0
vn 1 0 0
vn 0 0 1
vn 0 0 -1
vn 0 -1 0
vn 0 1 0

# texcoords
vt 0.0527344 0.5
vt 0.220703 0.5
vt 0.224609 0.5
vt 0.228516 0.5
vt 0.662109 0.5
vt 0.705078 0.5

# verts
v -9 15 9
v -9 15 1
v -9 15 -1
v -9 15 -9
v -9 16 9
v -9 16 1
v -9 16 -1
v -9 16 -9
v -8 0 8
v -8 0 1
v -8 0 -1
v -8 0 -8
v -8 15 8
v -8 15 1
v -8 15 -1
v -8 15 -8
v -3 16 1
v -3 16 -1
v -3 18 1
v -3 18 -1
v -1 16 3
v -1 16 2
v -1 16 1
v -1 16 -1
v -1 16 -2
v -1 16 -3
v -1 17 2
v -1 17 1
v -1 17 -1
v -1 17 -2
v -1 18 3
v -1 18 1
v -1 18 -1
v -1 18 -3
v 1 17 1
v 1 17 -1
v 1 18 1
v 1 18 -1
v 2 16 1
v 2 16 -1
v 2 17 1
v 2 17 -1
v -2 16 1
v -2 16 -1
v -2 17 1
v -2 17 -1
v -1 17 1
v -1 17 -1
v -1 18 1
v -1 18 -1
v 1 16 3
v 1 16 2
v 1 16 1
v 1 16 -1
v 1 16 -2
v 1 16 -3
v 1 17 2
v 1 17 1
v 1 17 -1
v 1 17 -2
v 1 18 3
v 1 18 1
v 1 18 -1
v 1 18 -3
v 3 16 1
v 3 16 -1
v 3 18 1
v 3 18 -1
v 8 0 8
v 8 0 1
v 8 0 -1
v 8 0 -8
v 8 15 8
v 8 15 1
v 8 15 -1
v 8 15 -8
v 9 15 9
v 9 15 1
v 9 15 -1
v 9 15 -9
v 9 16 9
v 9 16 1
v 9 16 -1
v 9 16 -9
v -9 15 9
v -9 16 9
v -1 15 9
v -1 16 9
v 1 15 9
v 1 16 9
v 9 15 9
v 9 16 9
v -8 0 8
v -8 15 8
v -1 0 8
v -1 15 8
v 1 0 8
v 1 15 8
v 8 0 8
v 8 15 8
v -1 16 3
v -1 18 3
v 1 16 3
v 1 18 3
v -3 16 1
v -3 18 1
v -2 16 1
v -2 17 1
v -1 16 1
v -1 17 1
v -1 18 1
v 1 16 1
v 1 17 1
v 1 18 1
v 2 16 1
v 2 17 1
v 3 16 1
v 3 18 1
v -1 17 -1
v -1 18 -1
v 1 17 -1
v 1 18 -1
v -1 16 -2
v -1 17 -2
v 1 16 -2
v 1 17 -2
v -1 16 2
v -1 17 2
v 1 16 2
v 1 17 2
v -1 17 1
v -1 18 1
v 1 17 1
v 1 18 1
v -3 16 -1
v -3 18 -1
v -2 16 -1
v -2 17 -1
v -1 16 -1
v -1 17 -1
v -1 18 -1
v 1 16 -1
v 1 17 -1
v 1 18 -1
v 2 16 -1
v 2 17 -1
v 3 16 -1
v 3 18 -1
v -1 16 -3
v -1 18 -3
v 1 16 -3
v 1 18 -3
v -8 0 -8
v -8 15 -8
v -1 0 -8
v -1 15 -8
v 1 0 -8
v 1 15 -8
v 8 0 -8
v 8 15 -8
v -9 15 -9
v -9 16 -9
v -1 15 -9
v -1 16 -9
v 1 15 -9
v 1 16 -9
v 9 15 -9
v 9 16 -9
v -8 0 8
v -1 0 8
v 1 0 8
v 8 0 8
v -8 0 1
v -1 0 1
v 1 0 1
v 8 0 1
v -8 0 -1
v -1 0 -1
v 1 0 -1
v 8 0 -1
v -8 0 -8
v -1 0 -8
v 1 0 -8
v 8 0 -8
v -9 15 9
v -1 15 9
v 1 15 9
v 9 15 9
v -8 15 8
v -1 15 8
v 1 15 8
v 8 15 8
v -9 15 1
v -8 15 1
v 8 15 1
v 9 15 1
v -9 15 -1
v -8 15 -1
v 8 15 -1
v 9 15 -1
v -8 15 -8
v -1 15 -8
v 1 15 -8
v 8 15 -8
v -9 15 -9
v -1 15 -9
v 1 15 -9
v 9 15 -9
v -1 17 2
v 1 17 2
v -2 17 1
v -1 17 1
v 1 17 1
v 2 17 1
v -2 17 -1
v -1 17 -1
v 1 17 -1
v 2 17 -1
v -1 17 -2
v 1 17 -2
v -9 16 9
v -1 16 9
v 1 16 9
v 9 16 9
v -1 16 3
v 1 16 3
v -1 16 2
v 1 16 2
v -9 16 1
v -3 16 1
v -2 16 1
v -1 16 1
v 1 16 1
v 2 16 1
v 3 16 1
v 9 16 1
v -9 16 -1
v -3 16 -1
v -2 16 -1
v -1 16 -1
v 1 16 -1
v 2 16 -1
v 3 16 -1
v 9 16 -1
v -1 16 -2
v 1 16 -2
v -1 16 -3
v 1 16 -3
v -9 16 -9
v -1 16 -9
v 1 16 -9
v 9 16 -9
v -1 17 1
v 1 17 1
v -1 17 -1
v 1 17 -1
v -1 18 3
v 1 18 3
v -3 18 1
v -1 18 1
v 1 18 1
v 3 18 1
v -3 18 -1
v -1 18 -1
v 1 18 -1
v 3 18 -1
v -1 18 -3
v 1 18 -3

# faces
f 5/4/1 2/4/1 1/4/1
f 6/3/1 3/3/1 2/3/1
f 6/4/1 2/4/1 5/4/1
f 7/4/1 4/4/1 3/4/1
f 7/3/1 3/3/1 6/3/1
f 8/4/1 4/4/1 7/4/1
f 13/2/1 10/2/1 9/2/1
f 14/3/1 11/3/1 10/3/1
f 14/2/1 10/2/1 13/2/1
f 15/2/1 12/2/1 11/2/1
f 15/3/1 11/3/1 14/3/1
f 16/2/1 12/2/1 15/2/1
f 19/3/1 18/3/1 17/3/1
f 20/3/1 18/3/1 19/3/1
f 27/3/1 22/3/1 21/3/1
f 28/3/1 24/3/1 23/3/1
f 29/3/1 24/3/1 28/3/1
f 30/3/1 26/3/1 25/3/1
f 31/3/1 27/3/1 21/3/1
f 31/3/1 28/3/1 27/3/1
f 32/3/1 28/3/1 31/3/1
f 33/3/1 30/3/1 29/3/1
f 34/3/1 26/3/1 30/3/1
f 34/3/1 30/3/1 33/3/1
f 37/3/1 36/3/1 35/3/1
f 38/3/1 36/3/1 37/3/1
f 41/3/1 40/3/1 39/3/1
f 42/3/1 40/3/1 41/3/1
f 43/3/2 44/3/2 45/3/2
f 45/3/2 44/3/2 46/3/2
f 47/3/2 48/3/2 49/3/2
f 49/3/2 48/3/2 50/3/2
f 51/3/2 52/3/2 57/3/2
f 53/3/2 54/3/2 58/3/2
f 58/3/2 54/3/2 59/3/2
f 55/3/2 56/3/2 60/3/2
f 51/3/2 57/3/2 61/3/2
f 57/3/2 58/3/2 61/3/2
f 61/3/2 58/3/2 62/3/2
f 59/3/2 60/3/2 63/3/2
f 60/3/2 56/3/2 64/3/2
f 63/3/2 60/3/2 64/3/2
f 65/3/2 66/3/2 67/3/2
f 67/3/2 66/3/2 68/3/2
f 69/2/2 70/2/2 73/2/2
f 70/3/2 71/3/2 74/3/2
f 73/2/2 70/2/2 74/2/2
f 71/2/2 72/2/2 75/2/2
f 74/3/2 71/3/2 75/3/2
f 75/2/2 72/2/2 76/2/2
f 77/4/2 78/4/2 81/4/2
f 78/3/2 79/3/2 82/3/2
f 81/4/2 78/4/2 82/4/2
f 79/4/2 80/4/2 83/4/2
f 82/3/2 79/3/2 83/3/2
f 83/4/2 80/4/2 84/4/2
f 87/4/3 86/4/3 85/4/3
f 88/4/3 86/4/3 87/4/3
f 89/3/3 88/3/3 87/3/3
f 90/3/3 88/3/3 89/3/3
f 91/4/3 90/4/3 89/4/3
f 92/4/3 90/4/3 91/4/3
f 95/2/3 94/2/3 93/2/3
f 96/2/3 94/2/3 95/2/3
f 97/3/3 96/3/3 95/3/3
f 98/3/3 96/3/3 97/3/3
f 99/2/3 98/2/3 97/2/3
f 100/2/3 98/2/3 99/2/3
f 103/3/3 102/3/3 101/3/3
f 104/3/3 102/3/3 103/3/3
f 107/3/3 106/3/3 105/3/3
f 108/3/3 106/3/3 107/3/3
f 110/3/3 106/3/3 108/3/3
f 111/3/3 106/3/3 110/3/3
f 112/3/3 110/3/3 109/3/3
f 113/3/3 110/3/3 112/3/3
f 116/3/3 114/3/3 113/3/3
f 117/3/3 116/3/3 115/3/3
f 118/3/3 114/3/3 116/3/3
f 118/3/3 116/3/3 117/3/3
f 121/3/3 120/3/3 119/3/3
f 122/3/3 120/3/3 121/3/3
f 125/3/3 124/3/3 123/3/3
f 126/3/3 124/3/3 125/3/3
f 127/3/4 128/3/4 129/3/4
f 129/3/4 128/3/4 130/3/4
f 131/3/4 132/3/4 133/3/4
f 133/3/4 132/3/4 134/3/4
f 135/3/4 136/3/4 137/3/4
f 137/3/4 136/3/4 138/3/4
f 138/3/4 136/3/4 140/3/4
f 140/3/4 136/3/4 141/3/4
f 139/3/4 140/3/4 142/3/4
f 142/3/4 140/3/4 143/3/4
f 143/3/4 144/3/4 146/3/4
f 145/3/4 146/3/4 147/3/4
f 146/3/4 144/3/4 148/3/4
f 147/3/4 146/3/4 148/3/4
f 149/3/4 150/3/4 151/3/4
f 151/3/4 150/3/4 152/3/4
f 153/2/4 154/2/4 155/2/4
f 155/2/4 154/2/4 156/2/4
f 155/3/4 156/3/4 157/3/4
f 157/3/4 156/3/4 158/3/4
f 157/2/4 158/2/4 159/2/4
f 159/2/4 158/2/4 160/2/4
f 161/4/4 162/4/4 163/4/4
f 163/4/4 162/4/4 164/4/4
f 163/3/4 164/3/4 165/3/4
f 165/3/4 164/3/4 166/3/4
f 165/4/4 166/4/4 167/4/4
f 167/4/4 166/4/4 168/4/4
f 173/2/5 170/2/5 169/2/5
f 174/3/5 171/3/5 170/3/5
f 174/2/5 170/2/5 173/2/5
f 175/2/5 172/2/5 171/2/5
f 175/3/5 171/3/5 174/3/5
f 176/2/5 172/2/5 175/2/5
f 177/3/5 174/3/5 173/3/5
f 177/3/5 175/3/5 174/3/5
f 177/3/5 176/3/5 175/3/5
f 178/3/5 176/3/5 177/3/5
f 179/3/5 176/3/5 178/3/5
f 180/3/5 176/3/5 179/3/5
f 181/2/5 178/2/5 177/2/5
f 182/3/5 179/3/5 178/3/5
f 182/2/5 178/2/5 181/2/5
f 183/2/5 180/2/5 179/2/5
f 183/3/5 179/3/5 182/3/5
f 184/2/5 180/2/5 183/2/5
f 189/4/5 186/4/5 185/4/5
f 190/3/5 187/3/5 186/3/5
f 190/4/5 186/4/5 189/4/5
f 191/4/5 188/4/5 187/4/5
f 191/3/5 187/3/5 190/3/5
f 192/4/5 188/4/5 191/4/5
f 193/4/5 189/4/5 185/4/5
f 194/4/5 189/4/5 193/4/5
f 195/4/5 188/4/5 192/4/5
f 196/4/5 188/4/5 195/4/5
f 197/3/5 194/3/5 193/3/5
f 198/3/5 194/3/5 197/3/5
f 199/3/5 196/3/5 195/3/5
f 200/3/5 196/3/5 199/3/5
f 201/4/5 198/4/5 197/4/5
f 204/4/5 200/4/5 199/4/5
f 205/4/5 201/4/5 197/4/5
f 205/4/5 202/4/5 201/4/5
f 206/3/5 203/3/5 202/3/5
f 206/4/5 202/4/5 205/4/5
f 207/4/5 204/4/5 203/4/5
f 207/3/5 203/3/5 206/3/5
f 208/4/5 200/4/5 204/4/5
f 208/4/5 204/4/5 207/4/5
f 212/3/5 210/3/5 209/3/5
f 213/3/5 210/3/5 212/3/5
f 215/3/5 212/3/5 211/3/5
f 216/3/5 212/3/5 215/3/5
f 217/3/5 214/3/5 213/3/5
f 218/3/5 214/3/5 217/3/5
f 219/3/5 217/3/5 216/3/5
f 220/3/5 217/3/5 219/3/5
f 221/4/6 222/4/6 225/4/6
f 222/3/6 223/3/6 225/3/6
f 223/4/6 224/4/6 226/4/6
f 225/3/6 223/3/6 226/3/6
f 221/4/6 225/4/6 227/4/6
f 226/4/6 224/4/6 228/4/6
f 221/4/6 227/4/6 229/4/6
f 227/4/6 228/4/6 229/4/6
f 229/4/6 228/4/6 230/4/6
f 230/4/6 228/4/6 231/4/6
f 231/4/6 228/4/6 232/4/6
f 228/4/6 224/4/6 233/4/6
f 232/4/6 228/4/6 233/4/6
f 233/4/6 224/4/6 234/4/6
f 234/4/6 224/4/6 235/4/6
f 235/4/6 224/4/6 236/4/6
f 229/3/6 230/3/6 237/3/6
f 237/3/6 230/3/6 238/3/6
f 231/4/6 232/4/6 239/4/6
f 239/4/6 232/4/6 240/4/6
f 233/4/6 234/4/6 241/4/6
f 241/4/6 234/4/6 242/4/6
f 235/3/6 236/3/6 243/3/6
f 243/3/6 236/3/6 244/3/6
f 237/4/6 238/4/6 245/4/6
f 241/4/6 242/4/6 245/4/6
f 243/4/6 244/4/6 245/4/6
f 242/4/6 243/4/6 245/4/6
f 239/4/6 240/4/6 245/4/6
f 240/4/6 241/4/6 245/4/6
f 238/4/6 239/4/6 245/4/6
f 245/4/6 244/4/6 246/4/6
f 237/4/6 245/4/6 247/4/6
f 246/4/6 244/4/6 248/4/6
f 237/4/6 247/4/6 249/4/6
f 247/3/6 248/3/6 250/3/6
f 249/4/6 247/4/6 250/4/6
f 248/4/6 244/4/6 251/4/6
f 250/3/6 248/3/6 251/3/6
f 251/4/6 244/4/6 252/4/6
f 253/3/6 254/3/6 255/3/6
f 255/3/6 254/3/6 256/3/6
f 257/3/6 258/3/6 260/3/6
f 260/3/6 258/3/6 261/3/6
f 259/3/6 260/3/6 263/3/6
f 263/3/6 260/3/6 264/3/6
f 261/3/6 262/3/6 265/3/6
f 265/3/6 262/3/6 266/3/6
f 264/3/6 265/3/6 267/3/6
f 267/3/6 265/3/6 268/3/6
