# MagicaVoxel @ Ephtracy

# group
g pre_duck

# material
mtllib pre_duck.mtl
usemtl palette

# normals
vn -1 0 0
vn 1 0 0
vn 0 0 1
vn 0 0 -1
vn 0 -1 0
vn 0 1 0

# texcoords
vt 0.970703 0.5
vt 0.974609 0.5
vt 0.978516 0.5

# verts
v -2 0 2.5
v -2 0 -3.5
v -2 2 2.5
v -2 2 1.5
v -2 2 -1.5
v -2 2 -3.5
v -2 3 0.5
v -2 3 -0.5
v -2 4 0.5
v -2 4 -0.5
v -2 5 1.5
v -2 5 -1.5
v -1 3 3.5
v -1 3 1.5
v -1 4 3.5
v -1 4 1.5
v 1 3 3.5
v 1 3 1.5
v 1 4 3.5
v 1 4 1.5
v 2 0 2.5
v 2 0 -3.5
v 2 2 2.5
v 2 2 1.5
v 2 2 -1.5
v 2 2 -3.5
v 2 3 0.5
v 2 3 -0.5
v 2 4 0.5
v 2 4 -0.5
v 2 5 1.5
v 2 5 -1.5
v -1 3 3.5
v -1 4 3.5
v 1 3 3.5
v 1 4 3.5
v -2 0 2.5
v -2 2 2.5
v 2 0 2.5
v 2 2 2.5
v -2 2 1.5
v -2 5 1.5
v -1 3 1.5
v -1 4 1.5
v 1 3 1.5
v 1 4 1.5
v 2 2 1.5
v 2 5 1.5
v -2 2 -1.5
v -2 5 -1.5
v 2 2 -1.5
v 2 5 -1.5
v -2 0 -3.5
v -2 2 -3.5
v 2 0 -3.5
v 2 2 -3.5
v -2 0 2.5
v 2 0 2.5
v -2 0 -3.5
v 2 0 -3.5
v -1 3 3.5
v 1 3 3.5
v -1 3 1.5
v 1 3 1.5
v -2 2 2.5
v 2 2 2.5
v -2 2 1.5
v 2 2 1.5
v -2 2 -1.5
v 2 2 -1.5
v -2 2 -3.5
v 2 2 -3.5
v -1 4 3.5
v 1 4 3.5
v -1 4 1.5
v 1 4 1.5
v -2 5 1.5
v 2 5 1.5
v -2 5 -1.5
v 2 5 -1.5

# faces
f 3/1/1 2/1/1 1/1/1
f 4/1/1 2/1/1 3/1/1
f 5/1/1 2/1/1 4/1/1
f 6/1/1 2/1/1 5/1/1
f 7/1/1 5/1/1 4/1/1
f 8/1/1 5/1/1 7/1/1
f 9/1/1 7/1/1 4/1/1
f 9/3/1 8/3/1 7/3/1
f 10/1/1 5/1/1 8/1/1
f 10/3/1 8/3/1 9/3/1
f 11/1/1 9/1/1 4/1/1
f 11/1/1 10/1/1 9/1/1
f 12/1/1 5/1/1 10/1/1
f 12/1/1 10/1/1 11/1/1
f 15/2/1 14/2/1 13/2/1
f 16/2/1 14/2/1 15/2/1
f 17/2/2 18/2/2 19/2/2
f 19/2/2 18/2/2 20/2/2
f 21/1/2 22/1/2 23/1/2
f 23/1/2 22/1/2 24/1/2
f 24/1/2 22/1/2 25/1/2
f 25/1/2 22/1/2 26/1/2
f 24/1/2 25/1/2 27/1/2
f 27/1/2 25/1/2 28/1/2
f 24/1/2 27/1/2 29/1/2
f 27/3/2 28/3/2 29/3/2
f 28/1/2 25/1/2 30/1/2
f 29/3/2 28/3/2 30/3/2
f 24/1/2 29/1/2 31/1/2
f 29/1/2 30/1/2 31/1/2
f 30/1/2 25/1/2 32/1/2
f 31/1/2 30/1/2 32/1/2
f 35/2/3 34/2/3 33/2/3
f 36/2/3 34/2/3 35/2/3
f 39/1/3 38/1/3 37/1/3
f 40/1/3 38/1/3 39/1/3
f 43/1/3 42/1/3 41/1/3
f 44/1/3 42/1/3 43/1/3
f 45/1/3 43/1/3 41/1/3
f 46/1/3 42/1/3 44/1/3
f 47/1/3 45/1/3 41/1/3
f 47/1/3 46/1/3 45/1/3
f 48/1/3 42/1/3 46/1/3
f 48/1/3 46/1/3 47/1/3
f 49/1/4 50/1/4 51/1/4
f 51/1/4 50/1/4 52/1/4
f 53/1/4 54/1/4 55/1/4
f 55/1/4 54/1/4 56/1/4
f 59/1/5 58/1/5 57/1/5
f 60/1/5 58/1/5 59/1/5
f 63/2/5 62/2/5 61/2/5
f 64/2/5 62/2/5 63/2/5
f 65/1/6 66/1/6 67/1/6
f 67/1/6 66/1/6 68/1/6
f 69/1/6 70/1/6 71/1/6
f 71/1/6 70/1/6 72/1/6
f 73/2/6 74/2/6 75/2/6
f 75/2/6 74/2/6 76/2/6
f 77/1/6 78/1/6 79/1/6
f 79/1/6 78/1/6 80/1/6
