# MagicaVoxel @ Ephtracy

# group
g pre_doggy

# material
mtllib pre_doggy.mtl
usemtl palette

# normals
vn -1 0 0
vn 1 0 0
vn 0 0 1
vn 0 0 -1
vn 0 -1 0
vn 0 1 0

# texcoords
vt 0.908203 0.5
vt 0.939453 0.5
vt 0.951172 0.5
vt 0.970703 0.5
vt 0.974609 0.5
vt 0.982422 0.5

# verts
v -3 0 5
v -3 0 3
v -3 0 -4
v -3 0 -6
v -3 1 5
v -3 1 4
v -3 1 -4
v -3 1 -5
v -3 2 3
v -3 2 -5
v -3 3 3
v -3 3 -5
v -3 5 -1
v -3 5 -6
v -3 8 -0
v -3 8 -1
v -3 9 4
v -3 9 3
v -3 10 -0
v -3 10 -1
v -3 11 4
v -3 11 3
v -3 11 1
v -3 11 -0
v -3 12 4
v -3 12 1
v -3 12 -0
v -3 13 1
v -3 13 -0
v -3 14 1
v -3 14 -1
v -2 5 5
v -2 5 4
v -2 7 5
v -2 7 4
v -2 8 6
v -2 8 4
v -2 9 6
v -2 9 4
v -1 5 -5
v -1 5 -6
v -1 7 6
v -1 7 5
v -1 7 4
v -1 7 -5
v -1 7 -6
v -1 8 6
v -1 8 5
v -1 8 4
v 1 0 5
v 1 0 3
v 1 0 -4
v 1 0 -6
v 1 1 5
v 1 1 4
v 1 1 -4
v 1 1 -5
v 1 2 4
v 1 2 3
v 1 2 -5
v 1 2 -6
v 1 12 -0
v 1 12 -1
v 1 13 1
v 1 13 -0
v 1 14 1
v 1 14 -1
v -1 0 5
v -1 0 3
v -1 0 -4
v -1 0 -6
v -1 1 5
v -1 1 4
v -1 1 -4
v -1 1 -5
v -1 2 4
v -1 2 3
v -1 2 -5
v -1 2 -6
v -1 12 -0
v -1 12 -1
v -1 13 1
v -1 13 -0
v -1 14 1
v -1 14 -1
v 1 5 -5
v 1 5 -6
v 1 7 6
v 1 7 5
v 1 7 4
v 1 7 -5
v 1 7 -6
v 1 8 6
v 1 8 5
v 1 8 4
v 2 5 5
v 2 5 4
v 2 7 5
v 2 7 4
v 2 8 6
v 2 8 4
v 2 9 6
v 2 9 4
v 3 0 5
v 3 0 3
v 3 0 -4
v 3 0 -6
v 3 1 5
v 3 1 4
v 3 1 -4
v 3 1 -5
v 3 2 3
v 3 2 -5
v 3 3 3
v 3 3 -5
v 3 5 -1
v 3 5 -6
v 3 8 -0
v 3 8 -1
v 3 9 4
v 3 9 3
v 3 10 -0
v 3 10 -1
v 3 11 4
v 3 11 3
v 3 11 1
v 3 11 -0
v 3 12 4
v 3 12 1
v 3 12 -0
v 3 13 1
v 3 13 -0
v 3 14 1
v 3 14 -1
v -2 8 6
v -2 9 6
v -1 7 6
v -1 8 6
v -1 9 6
v 1 7 6
v 1 8 6
v 1 9 6
v 2 8 6
v 2 9 6
v -3 0 5
v -3 1 5
v -2 5 5
v -2 7 5
v -1 0 5
v -1 1 5
v -1 6 5
v -1 7 5
v 1 0 5
v 1 1 5
v 1 6 5
v 1 7 5
v 2 5 5
v 2 7 5
v 3 0 5
v 3 1 5
v -3 1 4
v -3 9 4
v -3 11 4
v -3 12 4
v -2 5 4
v -2 7 4
v -2 8 4
v -2 9 4
v -2 10 4
v -1 1 4
v -1 2 4
v -1 4 4
v -1 7 4
v -1 8 4
v -1 9 4
v -1 10 4
v -1 11 4
v 1 1 4
v 1 2 4
v 1 4 4
v 1 7 4
v 1 8 4
v 1 9 4
v 1 10 4
v 1 11 4
v 2 5 4
v 2 7 4
v 2 8 4
v 2 9 4
v 2 10 4
v 3 1 4
v 3 9 4
v 3 11 4
v 3 12 4
v -3 13 1
v -3 14 1
v -1 13 1
v -1 14 1
v 1 13 1
v 1 14 1
v 3 13 1
v 3 14 1
v -3 12 -0
v -3 13 -0
v -1 12 -0
v -1 13 -0
v 1 12 -0
v 1 13 -0
v 3 12 -0
v 3 13 -0
v -3 0 -4
v -3 1 -4
v -1 0 -4
v -1 1 -4
v 1 0 -4
v 1 1 -4
v 3 0 -4
v 3 1 -4
v -3 1 -5
v -3 2 -5
v -2 2 -5
v -1 1 -5
v -1 2 -5
v -1 5 -5
v -1 7 -5
v 1 1 -5
v 1 2 -5
v 1 5 -5
v 1 7 -5
v 2 2 -5
v 3 1 -5
v 3 2 -5
v -3 0 3
v -3 2 3
v -2 2 3
v -1 0 3
v -1 2 3
v 1 0 3
v 1 2 3
v 2 2 3
v 3 0 3
v 3 2 3
v -3 8 -0
v -3 10 -0
v 3 8 -0
v 3 10 -0
v -3 5 -1
v -3 8 -1
v -3 10 -1
v -3 14 -1
v -1 12 -1
v -1 14 -1
v 1 12 -1
v 1 14 -1
v 3 5 -1
v 3 8 -1
v 3 10 -1
v 3 14 -1
v -3 0 -6
v -3 5 -6
v -1 0 -6
v -1 2 -6
v -1 5 -6
v -1 7 -6
v 1 0 -6
v 1 2 -6
v 1 5 -6
v 1 7 -6
v 3 0 -6
v 3 5 -6
v -3 0 5
v -1 0 5
v 1 0 5
v 3 0 5
v -3 0 3
v -1 0 3
v 1 0 3
v 3 0 3
v -3 0 -4
v -1 0 -4
v 1 0 -4
v 3 0 -4
v -3 0 -6
v -1 0 -6
v 1 0 -6
v 3 0 -6
v -1 2 4
v 1 2 4
v -3 2 3
v -2 2 3
v -1 2 3
v 1 2 3
v 2 2 3
v 3 2 3
v -3 2 -5
v -2 2 -5
v -1 2 -5
v 1 2 -5
v 2 2 -5
v 3 2 -5
v -1 2 -6
v 1 2 -6
v -2 5 5
v 2 5 5
v -2 5 4
v 2 5 4
v -1 7 6
v 1 7 6
v -1 7 5
v 1 7 5
v -2 8 6
v -1 8 6
v 1 8 6
v 2 8 6
v -1 8 5
v 1 8 5
v -2 8 4
v -1 8 4
v 1 8 4
v 2 8 4
v -3 10 -0
v 3 10 -0
v -3 10 -1
v 3 10 -1
v -3 13 1
v -1 13 1
v 1 13 1
v 3 13 1
v -3 13 -0
v -1 13 -0
v 1 13 -0
v 3 13 -0
v -3 1 5
v -1 1 5
v 1 1 5
v 3 1 5
v -3 1 4
v -1 1 4
v 1 1 4
v 3 1 4
v -3 1 -4
v -1 1 -4
v 1 1 -4
v 3 1 -4
v -3 1 -5
v -1 1 -5
v 1 1 -5
v 3 1 -5
v -3 5 -1
v 3 5 -1
v -1 5 -5
v 1 5 -5
v -3 5 -6
v -1 5 -6
v 1 5 -6
v 3 5 -6
v -2 7 5
v -1 7 5
v 1 7 5
v 2 7 5
v -2 7 4
v -1 7 4
v 1 7 4
v 2 7 4
v -1 7 -5
v 1 7 -5
v -1 7 -6
v 1 7 -6
v -3 8 -0
v 3 8 -0
v -3 8 -1
v 3 8 -1
v -2 9 6
v -1 9 6
v 1 9 6
v 2 9 6
v -1 9 5
v 1 9 5
v -2 9 4
v -1 9 4
v 1 9 4
v 2 9 4
v -3 12 4
v 3 12 4
v -3 12 1
v -1 12 1
v 1 12 1
v 3 12 1
v -3 12 -0
v -1 12 -0
v 1 12 -0
v 3 12 -0
v -1 12 -1
v 1 12 -1
v -3 14 1
v -1 14 1
v 1 14 1
v 3 14 1
v -3 14 -1
v -1 14 -1
v 1 14 -1
v 3 14 -1

# faces
f 5/4/1 2/4/1 1/4/1
f 6/4/1 2/4/1 5/4/1
f 7/4/1 4/4/1 3/4/1
f 8/4/1 4/4/1 7/4/1
f 9/4/1 2/4/1 6/4/1
f 10/4/1 4/4/1 8/4/1
f 11/4/1 9/4/1 6/4/1
f 11/1/1 10/1/1 9/1/1
f 12/4/1 4/4/1 10/4/1
f 12/1/1 10/1/1 11/1/1
f 13/4/1 12/4/1 11/4/1
f 14/4/1 4/4/1 12/4/1
f 14/4/1 12/4/1 13/4/1
f 15/4/1 13/4/1 11/4/1
f 16/4/1 13/4/1 15/4/1
f 17/4/1 11/4/1 6/4/1
f 17/4/1 15/4/1 11/4/1
f 18/4/1 15/4/1 17/4/1
f 19/4/1 15/4/1 18/4/1
f 21/5/1 18/5/1 17/5/1
f 22/4/1 20/4/1 19/4/1
f 22/5/1 18/5/1 21/5/1
f 22/4/1 19/4/1 18/4/1
f 23/4/1 20/4/1 22/4/1
f 24/4/1 20/4/1 23/4/1
f 25/4/1 22/4/1 21/4/1
f 25/4/1 23/4/1 22/4/1
f 26/1/1 24/1/1 23/1/1
f 26/4/1 23/4/1 25/4/1
f 27/4/1 20/4/1 24/4/1
f 27/1/1 24/1/1 26/1/1
f 29/4/1 20/4/1 27/4/1
f 30/4/1 29/4/1 28/4/1
f 31/4/1 20/4/1 29/4/1
f 31/4/1 29/4/1 30/4/1
f 34/4/1 33/4/1 32/4/1
f 35/4/1 33/4/1 34/4/1
f 38/4/1 37/4/1 36/4/1
f 39/4/1 37/4/1 38/4/1
f 45/2/1 41/2/1 40/2/1
f 46/2/1 41/2/1 45/2/1
f 47/6/1 43/6/1 42/6/1
f 48/4/1 44/4/1 43/4/1
f 48/6/1 43/6/1 47/6/1
f 49/4/1 44/4/1 48/4/1
f 54/4/1 51/4/1 50/4/1
f 55/4/1 51/4/1 54/4/1
f 56/4/1 53/4/1 52/4/1
f 57/4/1 53/4/1 56/4/1
f 58/4/1 51/4/1 55/4/1
f 59/4/1 51/4/1 58/4/1
f 60/4/1 53/4/1 57/4/1
f 61/4/1 53/4/1 60/4/1
f 65/4/1 63/4/1 62/4/1
f 66/4/1 65/4/1 64/4/1
f 67/4/1 63/4/1 65/4/1
f 67/4/1 65/4/1 66/4/1
f 68/4/2 69/4/2 72/4/2
f 72/4/2 69/4/2 73/4/2
f 70/4/2 71/4/2 74/4/2
f 74/4/2 71/4/2 75/4/2
f 73/4/2 69/4/2 76/4/2
f 76/4/2 69/4/2 77/4/2
f 75/4/2 71/4/2 78/4/2
f 78/4/2 71/4/2 79/4/2
f 80/4/2 81/4/2 83/4/2
f 82/4/2 83/4/2 84/4/2
f 83/4/2 81/4/2 85/4/2
f 84/4/2 83/4/2 85/4/2
f 86/2/2 87/2/2 91/2/2
f 91/2/2 87/2/2 92/2/2
f 88/6/2 89/6/2 93/6/2
f 89/4/2 90/4/2 94/4/2
f 93/6/2 89/6/2 94/6/2
f 94/4/2 90/4/2 95/4/2
f 96/4/2 97/4/2 98/4/2
f 98/4/2 97/4/2 99/4/2
f 100/4/2 101/4/2 102/4/2
f 102/4/2 101/4/2 103/4/2
f 104/4/2 105/4/2 108/4/2
f 108/4/2 105/4/2 109/4/2
f 106/4/2 107/4/2 110/4/2
f 110/4/2 107/4/2 111/4/2
f 109/4/2 105/4/2 112/4/2
f 111/4/2 107/4/2 113/4/2
f 109/4/2 112/4/2 114/4/2
f 112/1/2 113/1/2 114/1/2
f 113/4/2 107/4/2 115/4/2
f 114/1/2 113/1/2 115/1/2
f 114/4/2 115/4/2 116/4/2
f 115/4/2 107/4/2 117/4/2
f 116/4/2 115/4/2 117/4/2
f 114/4/2 116/4/2 118/4/2
f 118/4/2 116/4/2 119/4/2
f 109/4/2 114/4/2 120/4/2
f 114/4/2 118/4/2 120/4/2
f 120/4/2 118/4/2 121/4/2
f 121/4/2 118/4/2 122/4/2
f 120/5/2 121/5/2 124/5/2
f 122/4/2 123/4/2 125/4/2
f 124/5/2 121/5/2 125/5/2
f 121/4/2 122/4/2 125/4/2
f 125/4/2 123/4/2 126/4/2
f 126/4/2 123/4/2 127/4/2
f 124/4/2 125/4/2 128/4/2
f 125/4/2 126/4/2 128/4/2
f 126/1/2 127/1/2 129/1/2
f 128/4/2 126/4/2 129/4/2
f 127/4/2 123/4/2 130/4/2
f 129/1/2 127/1/2 130/1/2
f 130/4/2 123/4/2 132/4/2
f 131/4/2 132/4/2 133/4/2
f 132/4/2 123/4/2 134/4/2
f 133/4/2 132/4/2 134/4/2
f 138/4/3 136/4/3 135/4/3
f 139/4/3 136/4/3 138/4/3
f 140/6/3 138/6/3 137/6/3
f 140/6/3 139/6/3 138/6/3
f 141/6/3 139/6/3 140/6/3
f 142/6/3 139/6/3 141/6/3
f 143/4/3 142/4/3 141/4/3
f 144/4/3 142/4/3 143/4/3
f 149/4/3 146/4/3 145/4/3
f 150/4/3 146/4/3 149/4/3
f 151/4/3 148/4/3 147/4/3
f 152/4/3 148/4/3 151/4/3
f 155/4/3 151/4/3 147/4/3
f 155/3/3 152/3/3 151/3/3
f 156/3/3 152/3/3 155/3/3
f 157/4/3 155/4/3 147/4/3
f 157/4/3 156/4/3 155/4/3
f 158/4/3 156/4/3 157/4/3
f 159/4/3 154/4/3 153/4/3
f 160/4/3 154/4/3 159/4/3
f 165/4/3 162/4/3 161/4/3
f 166/4/3 162/4/3 165/4/3
f 167/4/3 162/4/3 166/4/3
f 168/5/3 163/5/3 162/5/3
f 168/4/3 162/4/3 167/4/3
f 169/5/3 163/5/3 168/5/3
f 170/4/3 165/4/3 161/4/3
f 171/4/3 165/4/3 170/4/3
f 172/4/3 165/4/3 171/4/3
f 173/4/3 167/4/3 166/4/3
f 174/4/3 167/4/3 173/4/3
f 175/6/3 169/6/3 168/6/3
f 176/5/3 163/5/3 169/5/3
f 176/6/3 169/6/3 175/6/3
f 177/4/3 164/4/3 163/4/3
f 177/5/3 163/5/3 176/5/3
f 179/1/3 172/1/3 171/1/3
f 180/4/3 165/4/3 172/4/3
f 180/1/3 172/1/3 179/1/3
f 183/4/3 176/4/3 175/4/3
f 183/4/3 177/4/3 176/4/3
f 184/4/3 177/4/3 183/4/3
f 185/4/3 164/4/3 177/4/3
f 185/4/3 177/4/3 184/4/3
f 186/4/3 179/4/3 178/4/3
f 186/4/3 165/4/3 180/4/3
f 186/4/3 180/4/3 179/4/3
f 187/4/3 182/4/3 181/4/3
f 188/4/3 182/4/3 187/4/3
f 189/6/3 184/6/3 183/6/3
f 190/5/3 185/5/3 184/5/3
f 190/6/3 184/6/3 189/6/3
f 191/4/3 186/4/3 178/4/3
f 191/4/3 188/4/3 187/4/3
f 191/4/3 189/4/3 188/4/3
f 191/4/3 187/4/3 186/4/3
f 192/5/3 190/5/3 189/5/3
f 192/4/3 189/4/3 191/4/3
f 193/5/3 185/5/3 190/5/3
f 193/5/3 190/5/3 192/5/3
f 193/4/3 164/4/3 185/4/3
f 194/4/3 164/4/3 193/4/3
f 197/4/3 196/4/3 195/4/3
f 198/4/3 196/4/3 197/4/3
f 201/4/3 200/4/3 199/4/3
f 202/4/3 200/4/3 201/4/3
f 205/4/3 204/4/3 203/4/3
f 206/4/3 204/4/3 205/4/3
f 209/4/3 208/4/3 207/4/3
f 210/4/3 208/4/3 209/4/3
f 213/4/3 212/4/3 211/4/3
f 214/4/3 212/4/3 213/4/3
f 217/4/3 216/4/3 215/4/3
f 218/4/3 216/4/3 217/4/3
f 221/4/3 220/4/3 219/4/3
f 222/4/3 221/4/3 219/4/3
f 223/4/3 221/4/3 222/4/3
f 228/2/3 225/2/3 224/2/3
f 229/2/3 225/2/3 228/2/3
f 230/4/3 227/4/3 226/4/3
f 231/4/3 230/4/3 226/4/3
f 232/4/3 230/4/3 231/4/3
f 233/4/4 234/4/4 235/4/4
f 233/4/4 235/4/4 236/4/4
f 236/4/4 235/4/4 237/4/4
f 238/4/4 239/4/4 240/4/4
f 238/4/4 240/4/4 241/4/4
f 241/4/4 240/4/4 242/4/4
f 243/4/4 244/4/4 245/4/4
f 245/4/4 244/4/4 246/4/4
f 249/4/4 250/4/4 251/4/4
f 251/4/4 250/4/4 252/4/4
f 249/4/4 251/4/4 253/4/4
f 247/4/4 248/4/4 255/4/4
f 255/4/4 248/4/4 256/4/4
f 253/4/4 254/4/4 257/4/4
f 249/4/4 253/4/4 257/4/4
f 257/4/4 254/4/4 258/4/4
f 259/4/4 260/4/4 261/4/4
f 261/4/4 260/4/4 262/4/4
f 262/4/4 260/4/4 263/4/4
f 262/4/4 263/4/4 266/4/4
f 263/2/4 264/2/4 267/2/4
f 266/4/4 263/4/4 267/4/4
f 267/2/4 264/2/4 268/2/4
f 265/4/4 266/4/4 269/4/4
f 266/4/4 267/4/4 269/4/4
f 269/4/4 267/4/4 270/4/4
f 275/4/5 272/4/5 271/4/5
f 276/4/5 272/4/5 275/4/5
f 277/4/5 274/4/5 273/4/5
f 278/4/5 274/4/5 277/4/5
f 283/4/5 280/4/5 279/4/5
f 284/4/5 280/4/5 283/4/5
f 285/4/5 282/4/5 281/4/5
f 286/4/5 282/4/5 285/4/5
f 291/1/5 288/1/5 287/1/5
f 292/1/5 288/1/5 291/1/5
f 295/1/5 290/1/5 289/1/5
f 296/4/5 291/4/5 290/4/5
f 296/1/5 290/1/5 295/1/5
f 296/4/5 292/4/5 291/4/5
f 296/4/5 293/4/5 292/4/5
f 297/4/5 293/4/5 296/4/5
f 298/4/5 293/4/5 297/4/5
f 299/1/5 294/1/5 293/1/5
f 299/4/5 293/4/5 298/4/5
f 300/1/5 294/1/5 299/1/5
f 301/4/5 298/4/5 297/4/5
f 302/4/5 298/4/5 301/4/5
f 305/4/5 304/4/5 303/4/5
f 306/4/5 304/4/5 305/4/5
f 309/6/5 308/6/5 307/6/5
f 310/6/5 308/6/5 309/6/5
f 315/4/5 312/4/5 311/4/5
f 316/4/5 314/4/5 313/4/5
f 317/4/5 315/4/5 311/4/5
f 318/4/5 315/4/5 317/4/5
f 319/4/5 314/4/5 316/4/5
f 320/4/5 314/4/5 319/4/5
f 323/4/5 322/4/5 321/4/5
f 324/4/5 322/4/5 323/4/5
f 329/4/5 326/4/5 325/4/5
f 330/4/5 326/4/5 329/4/5
f 331/4/5 328/4/5 327/4/5
f 332/4/5 328/4/5 331/4/5
f 333/4/6 334/4/6 337/4/6
f 337/4/6 334/4/6 338/4/6
f 335/4/6 336/4/6 339/4/6
f 339/4/6 336/4/6 340/4/6
f 341/4/6 342/4/6 345/4/6
f 345/4/6 342/4/6 346/4/6
f 343/4/6 344/4/6 347/4/6
f 347/4/6 344/4/6 348/4/6
f 349/4/6 350/4/6 351/4/6
f 351/4/6 350/4/6 352/4/6
f 349/4/6 351/4/6 353/4/6
f 353/4/6 351/4/6 354/4/6
f 352/4/6 350/4/6 355/4/6
f 355/4/6 350/4/6 356/4/6
f 357/4/6 358/4/6 361/4/6
f 361/4/6 358/4/6 362/4/6
f 359/4/6 360/4/6 363/4/6
f 363/4/6 360/4/6 364/4/6
f 365/2/6 366/2/6 367/2/6
f 367/2/6 366/2/6 368/2/6
f 369/4/6 370/4/6 371/4/6
f 371/4/6 370/4/6 372/4/6
f 373/4/6 374/4/6 377/4/6
f 374/6/6 375/6/6 377/6/6
f 375/4/6 376/4/6 378/4/6
f 377/6/6 375/6/6 378/6/6
f 373/4/6 377/4/6 379/4/6
f 377/4/6 378/4/6 379/4/6
f 379/4/6 378/4/6 380/4/6
f 378/4/6 376/4/6 381/4/6
f 380/4/6 378/4/6 381/4/6
f 381/4/6 376/4/6 382/4/6
f 383/4/6 384/4/6 385/4/6
f 385/4/6 384/4/6 386/4/6
f 386/4/6 384/4/6 387/4/6
f 387/4/6 384/4/6 388/4/6
f 385/1/6 386/1/6 389/1/6
f 386/4/6 387/4/6 390/4/6
f 389/1/6 386/1/6 390/1/6
f 387/1/6 388/1/6 391/1/6
f 390/4/6 387/4/6 391/4/6
f 391/1/6 388/1/6 392/1/6
f 390/4/6 391/4/6 393/4/6
f 393/4/6 391/4/6 394/4/6
f 395/4/6 396/4/6 399/4/6
f 399/4/6 396/4/6 400/4/6
f 397/4/6 398/4/6 401/4/6
f 401/4/6 398/4/6 402/4/6
