# MagicaVoxel @ Ephtracy

# group
g pre_ratel

# material
mtllib pre_ratel.mtl
usemtl palette

# normals
vn -1 0 0
vn 1 0 0
vn 0 0 1
vn 0 0 -1
vn 0 -1 0
vn 0 1 0

# texcoords
vt 0.970703 0.5
vt 0.974609 0.5
vt 0.978516 0.5
vt 0.982422 0.5

# verts
v -4.5 0 5
v -4.5 0 2
v -4.5 0 -3
v -4.5 0 -6
v -4.5 1 5
v -4.5 1 4
v -4.5 1 -3
v -4.5 1 -4
v -4.5 2 -3
v -4.5 2 -4
v -4.5 5 2
v -4.5 5 -3
v -4.5 7 4
v -4.5 7 -6
v -3.5 5 8
v -3.5 5 5
v -3.5 6 7
v -3.5 6 6
v -3.5 7 7
v -3.5 7 6
v -3.5 7 4
v -3.5 7 -6
v -3.5 8 8
v -3.5 8 5
v -3.5 8 4
v -3.5 8 -6
v -2.5 3 11
v -2.5 3 7
v -2.5 4 11
v -2.5 4 10
v -2.5 4 9
v -2.5 4 8
v -2.5 5 11
v -2.5 5 10
v -2.5 5 9
v -2.5 5 8
v -2.5 5 7
v -2.5 5 5
v -2.5 5 4
v -2.5 6 11
v -2.5 6 8
v -2.5 7 11
v -2.5 7 8
v -2.5 7 5
v -2.5 7 4
v -2.5 8 5
v -2.5 8 4
v -1.5 4 10
v -1.5 4 9
v -1.5 5 10
v -1.5 5 9
v -1.5 5 -6
v -1.5 5 -12
v -1.5 6 12
v -1.5 6 11
v -1.5 7 12
v -1.5 7 11
v -1.5 7 -6
v -1.5 7 -12
v -1.5 8 5
v -1.5 8 -6
v -1.5 9 5
v -1.5 9 -6
v 0.5 2 4
v 0.5 2 2
v 0.5 4 11
v 0.5 4 10
v 0.5 4 4
v 0.5 4 2
v 0.5 5 11
v 0.5 5 10
v 1.5 0 5
v 1.5 0 2
v 1.5 0 -3
v 1.5 0 -6
v 1.5 1 5
v 1.5 1 4
v 1.5 1 -3
v 1.5 1 -4
v 1.5 2 4
v 1.5 2 2
v 1.5 2 -3
v 1.5 2 -4
v 1.5 5 -3
v 1.5 5 -6
v -2.5 0 5
v -2.5 0 2
v -2.5 0 -3
v -2.5 0 -6
v -2.5 1 5
v -2.5 1 4
v -2.5 1 -3
v -2.5 1 -4
v -2.5 2 4
v -2.5 2 2
v -2.5 2 -3
v -2.5 2 -4
v -2.5 5 -3
v -2.5 5 -6
v -1.5 2 4
v -1.5 2 2
v -1.5 4 11
v -1.5 4 10
v -1.5 4 4
v -1.5 4 2
v -1.5 5 11
v -1.5 5 10
v 0.5 4 10
v 0.5 4 9
v 0.5 5 10
v 0.5 5 9
v 0.5 5 -6
v 0.5 5 -10
v 0.5 6 12
v 0.5 6 11
v 0.5 7 12
v 0.5 7 11
v 0.5 7 -6
v 0.5 7 -10
v 0.5 8 5
v 0.5 8 -6
v 0.5 9 5
v 0.5 9 -6
v 1.5 3 11
v 1.5 3 7
v 1.5 4 11
v 1.5 4 10
v 1.5 4 9
v 1.5 4 8
v 1.5 5 11
v 1.5 5 10
v 1.5 5 9
v 1.5 5 8
v 1.5 5 7
v 1.5 5 5
v 1.5 5 4
v 1.5 6 11
v 1.5 6 8
v 1.5 7 11
v 1.5 7 8
v 1.5 7 5
v 1.5 7 4
v 1.5 8 5
v 1.5 8 4
v 2.5 5 8
v 2.5 5 5
v 2.5 6 7
v 2.5 6 6
v 2.5 7 7
v 2.5 7 6
v 2.5 7 4
v 2.5 7 -6
v 2.5 8 8
v 2.5 8 5
v 2.5 8 4
v 2.5 8 -6
v 3.5 0 5
v 3.5 0 2
v 3.5 0 -3
v 3.5 0 -6
v 3.5 1 5
v 3.5 1 4
v 3.5 1 -3
v 3.5 1 -4
v 3.5 2 -3
v 3.5 2 -4
v 3.5 5 2
v 3.5 5 -3
v 3.5 7 4
v 3.5 7 -6
v 4.5 5 -10
v 4.5 5 -12
v 4.5 7 -10
v 4.5 7 -12
v -1.5 6 12
v -1.5 7 12
v 0.5 6 12
v 0.5 7 12
v -2.5 3 11
v -2.5 4 11
v -2.5 5 11
v -2.5 6 11
v -2.5 7 11
v -1.5 4 11
v -1.5 5 11
v -1.5 6 11
v -1.5 7 11
v 0.5 4 11
v 0.5 5 11
v 0.5 6 11
v 0.5 7 11
v 1.5 3 11
v 1.5 4 11
v 1.5 5 11
v 1.5 6 11
v 1.5 7 11
v -1.5 4 10
v -1.5 5 10
v 0.5 4 10
v 0.5 5 10
v -2.5 4 9
v -2.5 5 9
v -1.5 4 9
v -1.5 5 9
v 0.5 4 9
v 0.5 5 9
v 1.5 4 9
v 1.5 5 9
v -3.5 5 8
v -3.5 8 8
v -2.5 5 8
v -2.5 6 8
v -2.5 7 8
v -2.5 8 8
v -1.5 5 8
v 0.5 5 8
v 1.5 5 8
v 1.5 6 8
v 1.5 7 8
v 1.5 8 8
v 2.5 5 8
v 2.5 8 8
v -4.5 0 5
v -4.5 1 5
v -2.5 0 5
v -2.5 1 5
v -1.5 8 5
v -1.5 9 5
v 0.5 8 5
v 0.5 9 5
v 1.5 0 5
v 1.5 1 5
v 3.5 0 5
v 3.5 1 5
v -4.5 1 4
v -4.5 7 4
v -3.5 7 4
v -3.5 8 4
v -2.5 1 4
v -2.5 2 4
v -2.5 5 4
v -2.5 7 4
v -2.5 8 4
v -1.5 2 4
v -1.5 4 4
v 0.5 2 4
v 0.5 4 4
v 1.5 1 4
v 1.5 2 4
v 1.5 5 4
v 1.5 7 4
v 1.5 8 4
v 2.5 7 4
v 2.5 8 4
v 3.5 1 4
v 3.5 7 4
v -4.5 0 -3
v -4.5 1 -3
v -4.5 2 -3
v -4.5 5 -3
v -2.5 0 -3
v -2.5 1 -3
v -2.5 2 -3
v -2.5 5 -3
v 1.5 0 -3
v 1.5 1 -3
v 1.5 2 -3
v 1.5 5 -3
v 3.5 0 -3
v 3.5 1 -3
v 3.5 2 -3
v 3.5 5 -3
v -4.5 1 -4
v -4.5 2 -4
v -2.5 1 -4
v -2.5 2 -4
v 1.5 1 -4
v 1.5 2 -4
v 3.5 1 -4
v 3.5 2 -4
v 0.5 5 -10
v 0.5 7 -10
v 4.5 5 -10
v 4.5 7 -10
v -2.5 4 10
v -2.5 5 10
v -1.5 4 10
v -1.5 5 10
v 0.5 4 10
v 0.5 5 10
v 1.5 4 10
v 1.5 5 10
v -2.5 3 7
v -2.5 5 7
v 1.5 3 7
v 1.5 5 7
v -3.5 5 5
v -3.5 8 5
v -2.5 5 5
v -2.5 7 5
v -2.5 8 5
v 1.5 5 5
v 1.5 7 5
v 1.5 8 5
v 2.5 5 5
v 2.5 8 5
v -4.5 0 2
v -4.5 5 2
v -2.5 0 2
v -2.5 2 2
v -1.5 2 2
v -1.5 4 2
v 0.5 2 2
v 0.5 4 2
v 1.5 0 2
v 1.5 2 2
v 3.5 0 2
v 3.5 5 2
v -4.5 0 -6
v -4.5 7 -6
v -3.5 7 -6
v -3.5 8 -6
v -2.5 0 -6
v -2.5 5 -6
v -2.5 7 -6
v -2.5 8 -6
v -1.5 5 -6
v -1.5 7 -6
v -1.5 8 -6
v -1.5 9 -6
v 0.5 5 -6
v 0.5 7 -6
v 0.5 8 -6
v 0.5 9 -6
v 1.5 0 -6
v 1.5 5 -6
v 1.5 7 -6
v 1.5 8 -6
v 2.5 7 -6
v 2.5 8 -6
v 3.5 0 -6
v 3.5 7 -6
v -1.5 5 -12
v -1.5 7 -12
v 4.5 5 -12
v 4.5 7 -12
v -4.5 0 5
v -2.5 0 5
v 1.5 0 5
v 3.5 0 5
v -4.5 0 2
v -2.5 0 2
v 1.5 0 2
v 3.5 0 2
v -4.5 0 -3
v -2.5 0 -3
v 1.5 0 -3
v 3.5 0 -3
v -4.5 0 -6
v -2.5 0 -6
v 1.5 0 -6
v 3.5 0 -6
v -2.5 2 4
v -1.5 2 4
v 0.5 2 4
v 1.5 2 4
v -2.5 2 2
v -1.5 2 2
v 0.5 2 2
v 1.5 2 2
v -4.5 2 -3
v -2.5 2 -3
v 1.5 2 -3
v 3.5 2 -3
v -4.5 2 -4
v -2.5 2 -4
v 1.5 2 -4
v 3.5 2 -4
v -2.5 3 11
v 1.5 3 11
v -2.5 3 7
v 1.5 3 7
v -1.5 4 4
v 0.5 4 4
v -1.5 4 2
v 0.5 4 2
v -3.5 5 8
v -2.5 5 8
v 1.5 5 8
v 2.5 5 8
v -2.5 5 7
v 1.5 5 7
v -3.5 5 5
v -2.5 5 5
v 1.5 5 5
v 2.5 5 5
v -2.5 5 4
v 1.5 5 4
v -4.5 5 2
v 3.5 5 2
v -4.5 5 -3
v -2.5 5 -3
v 1.5 5 -3
v 3.5 5 -3
v -2.5 5 -6
v -1.5 5 -6
v 0.5 5 -6
v 1.5 5 -6
v 0.5 5 -10
v 4.5 5 -10
v -1.5 5 -12
v 4.5 5 -12
v -1.5 6 12
v 0.5 6 12
v -2.5 6 11
v -1.5 6 11
v 0.5 6 11
v 1.5 6 11
v -2.5 6 8
v 1.5 6 8
v -4.5 1 5
v -2.5 1 5
v 1.5 1 5
v 3.5 1 5
v -4.5 1 4
v -2.5 1 4
v 1.5 1 4
v 3.5 1 4
v -4.5 1 -3
v -2.5 1 -3
v 1.5 1 -3
v 3.5 1 -3
v -4.5 1 -4
v -2.5 1 -4
v 1.5 1 -4
v 3.5 1 -4
v -1.5 4 11
v 0.5 4 11
v -2.5 4 10
v -1.5 4 10
v 0.5 4 10
v 1.5 4 10
v -2.5 4 9
v -1.5 4 9
v 0.5 4 9
v 1.5 4 9
v -2.5 5 11
v -1.5 5 11
v 0.5 5 11
v 1.5 5 11
v -2.5 5 10
v -1.5 5 10
v 0.5 5 10
v 1.5 5 10
v -2.5 5 9
v -1.5 5 9
v 0.5 5 9
v 1.5 5 9
v -2.5 5 8
v -1.5 5 8
v 0.5 5 8
v 1.5 5 8
v -1.5 7 12
v 0.5 7 12
v -2.5 7 11
v -1.5 7 11
v 0.5 7 11
v 1.5 7 11
v -2.5 7 8
v 1.5 7 8
v -4.5 7 4
v -3.5 7 4
v 2.5 7 4
v 3.5 7 4
v -4.5 7 -6
v -3.5 7 -6
v -1.5 7 -6
v 0.5 7 -6
v 2.5 7 -6
v 3.5 7 -6
v 0.5 7 -10
v 4.5 7 -10
v -1.5 7 -12
v 4.5 7 -12
v -3.5 8 8
v -2.5 8 8
v 1.5 8 8
v 2.5 8 8
v -3.5 8 5
v -2.5 8 5
v -1.5 8 5
v 0.5 8 5
v 1.5 8 5
v 2.5 8 5
v -3.5 8 4
v -2.5 8 4
v 1.5 8 4
v 2.5 8 4
v -3.5 8 -6
v -2.5 8 -6
v -1.5 8 -6
v 0.5 8 -6
v 1.5 8 -6
v 2.5 8 -6
v -1.5 9 5
v 0.5 9 5
v -1.5 9 -6
v 0.5 9 -6

# faces
f 5/1/1 2/1/1 1/1/1
f 6/1/1 2/1/1 5/1/1
f 7/1/1 4/1/1 3/1/1
f 8/1/1 4/1/1 7/1/1
f 10/1/1 4/1/1 8/1/1
f 11/1/1 2/1/1 6/1/1
f 12/1/1 10/1/1 9/1/1
f 13/1/1 11/1/1 6/1/1
f 13/1/1 12/1/1 11/1/1
f 14/1/1 10/1/1 12/1/1
f 14/1/1 12/1/1 13/1/1
f 14/1/1 4/1/1 10/1/1
f 17/2/1 16/2/1 15/2/1
f 18/2/1 16/2/1 17/2/1
f 19/2/1 17/2/1 15/2/1
f 19/1/1 18/1/1 17/1/1
f 20/2/1 16/2/1 18/2/1
f 20/1/1 18/1/1 19/1/1
f 23/2/1 19/2/1 15/2/1
f 23/2/1 20/2/1 19/2/1
f 24/2/1 16/2/1 20/2/1
f 24/2/1 20/2/1 23/2/1
f 25/1/1 22/1/1 21/1/1
f 26/1/1 22/1/1 25/1/1
f 29/1/1 28/1/1 27/1/1
f 30/1/1 28/1/1 29/1/1
f 31/1/1 28/1/1 30/1/1
f 32/1/1 28/1/1 31/1/1
f 33/2/1 30/2/1 29/2/1
f 34/2/1 30/2/1 33/2/1
f 35/2/1 32/2/1 31/2/1
f 36/1/1 28/1/1 32/1/1
f 36/2/1 32/2/1 35/2/1
f 37/1/1 28/1/1 36/1/1
f 42/1/1 41/1/1 40/1/1
f 43/1/1 41/1/1 42/1/1
f 44/1/1 39/1/1 38/1/1
f 45/1/1 39/1/1 44/1/1
f 46/2/1 45/2/1 44/2/1
f 47/2/1 45/2/1 46/2/1
f 50/3/1 49/3/1 48/3/1
f 51/3/1 49/3/1 50/3/1
f 56/4/1 55/4/1 54/4/1
f 57/4/1 55/4/1 56/4/1
f 58/1/1 53/1/1 52/1/1
f 59/1/1 53/1/1 58/1/1
f 62/2/1 61/2/1 60/2/1
f 63/2/1 61/2/1 62/2/1
f 68/1/1 65/1/1 64/1/1
f 69/1/1 65/1/1 68/1/1
f 70/2/1 67/2/1 66/2/1
f 71/2/1 67/2/1 70/2/1
f 76/1/1 73/1/1 72/1/1
f 77/1/1 73/1/1 76/1/1
f 78/1/1 75/1/1 74/1/1
f 79/1/1 75/1/1 78/1/1
f 80/1/1 73/1/1 77/1/1
f 81/1/1 73/1/1 80/1/1
f 83/1/1 75/1/1 79/1/1
f 84/1/1 83/1/1 82/1/1
f 85/1/1 75/1/1 83/1/1
f 85/1/1 83/1/1 84/1/1
f 86/1/2 87/1/2 90/1/2
f 90/1/2 87/1/2 91/1/2
f 88/1/2 89/1/2 92/1/2
f 92/1/2 89/1/2 93/1/2
f 91/1/2 87/1/2 94/1/2
f 94/1/2 87/1/2 95/1/2
f 93/1/2 89/1/2 97/1/2
f 96/1/2 97/1/2 98/1/2
f 97/1/2 89/1/2 99/1/2
f 98/1/2 97/1/2 99/1/2
f 100/1/2 101/1/2 104/1/2
f 104/1/2 101/1/2 105/1/2
f 102/2/2 103/2/2 106/2/2
f 106/2/2 103/2/2 107/2/2
f 108/3/2 109/3/2 110/3/2
f 110/3/2 109/3/2 111/3/2
f 114/4/2 115/4/2 116/4/2
f 116/4/2 115/4/2 117/4/2
f 112/1/2 113/1/2 118/1/2
f 118/1/2 113/1/2 119/1/2
f 120/2/2 121/2/2 122/2/2
f 122/2/2 121/2/2 123/2/2
f 124/1/2 125/1/2 126/1/2
f 126/1/2 125/1/2 127/1/2
f 127/1/2 125/1/2 128/1/2
f 128/1/2 125/1/2 129/1/2
f 126/2/2 127/2/2 130/2/2
f 130/2/2 127/2/2 131/2/2
f 128/2/2 129/2/2 132/2/2
f 129/1/2 125/1/2 133/1/2
f 132/2/2 129/2/2 133/2/2
f 133/1/2 125/1/2 134/1/2
f 137/1/2 138/1/2 139/1/2
f 139/1/2 138/1/2 140/1/2
f 135/1/2 136/1/2 141/1/2
f 141/1/2 136/1/2 142/1/2
f 141/2/2 142/2/2 143/2/2
f 143/2/2 142/2/2 144/2/2
f 145/2/2 146/2/2 147/2/2
f 147/2/2 146/2/2 148/2/2
f 145/2/2 147/2/2 149/2/2
f 147/1/2 148/1/2 149/1/2
f 148/2/2 146/2/2 150/2/2
f 149/1/2 148/1/2 150/1/2
f 145/2/2 149/2/2 153/2/2
f 149/2/2 150/2/2 153/2/2
f 150/2/2 146/2/2 154/2/2
f 153/2/2 150/2/2 154/2/2
f 151/1/2 152/1/2 155/1/2
f 155/1/2 152/1/2 156/1/2
f 157/1/2 158/1/2 161/1/2
f 161/1/2 158/1/2 162/1/2
f 159/1/2 160/1/2 163/1/2
f 163/1/2 160/1/2 164/1/2
f 164/1/2 160/1/2 166/1/2
f 162/1/2 158/1/2 167/1/2
f 165/1/2 166/1/2 168/1/2
f 162/1/2 167/1/2 169/1/2
f 167/1/2 168/1/2 169/1/2
f 168/1/2 166/1/2 170/1/2
f 169/1/2 168/1/2 170/1/2
f 166/1/2 160/1/2 170/1/2
f 171/1/2 172/1/2 173/1/2
f 173/1/2 172/1/2 174/1/2
f 177/4/3 176/4/3 175/4/3
f 178/4/3 176/4/3 177/4/3
f 184/1/3 180/1/3 179/1/3
f 184/2/3 181/2/3 180/2/3
f 185/2/3 181/2/3 184/2/3
f 186/1/3 183/1/3 182/1/3
f 187/1/3 183/1/3 186/1/3
f 188/1/3 184/1/3 179/1/3
f 192/1/3 188/1/3 179/1/3
f 193/2/3 189/2/3 188/2/3
f 193/1/3 188/1/3 192/1/3
f 194/2/3 189/2/3 193/2/3
f 195/1/3 191/1/3 190/1/3
f 196/1/3 191/1/3 195/1/3
f 199/3/3 198/3/3 197/3/3
f 200/3/3 198/3/3 199/3/3
f 203/2/3 202/2/3 201/2/3
f 204/2/3 202/2/3 203/2/3
f 207/2/3 206/2/3 205/2/3
f 208/2/3 206/2/3 207/2/3
f 211/2/3 210/2/3 209/2/3
f 212/2/3 210/2/3 211/2/3
f 213/2/3 210/2/3 212/2/3
f 214/2/3 210/2/3 213/2/3
f 215/1/3 212/1/3 211/1/3
f 216/1/3 212/1/3 215/1/3
f 217/1/3 212/1/3 216/1/3
f 218/1/3 212/1/3 217/1/3
f 219/1/3 214/1/3 213/1/3
f 220/1/3 214/1/3 219/1/3
f 221/2/3 218/2/3 217/2/3
f 221/2/3 219/2/3 218/2/3
f 221/2/3 220/2/3 219/2/3
f 222/2/3 220/2/3 221/2/3
f 225/1/3 224/1/3 223/1/3
f 226/1/3 224/1/3 225/1/3
f 229/2/3 228/2/3 227/2/3
f 230/2/3 228/2/3 229/2/3
f 233/1/3 232/1/3 231/1/3
f 234/1/3 232/1/3 233/1/3
f 237/1/3 236/1/3 235/1/3
f 239/1/3 237/1/3 235/1/3
f 239/1/3 238/1/3 237/1/3
f 240/1/3 238/1/3 239/1/3
f 241/1/3 238/1/3 240/1/3
f 242/1/3 238/1/3 241/1/3
f 243/1/3 238/1/3 242/1/3
f 244/1/3 241/1/3 240/1/3
f 245/1/3 241/1/3 244/1/3
f 247/1/3 241/1/3 245/1/3
f 249/1/3 247/1/3 246/1/3
f 250/1/3 241/1/3 247/1/3
f 250/1/3 247/1/3 249/1/3
f 253/1/3 249/1/3 248/1/3
f 253/1/3 252/1/3 251/1/3
f 253/1/3 251/1/3 250/1/3
f 253/1/3 250/1/3 249/1/3
f 254/1/3 252/1/3 253/1/3
f 255/1/3 253/1/3 248/1/3
f 256/1/3 253/1/3 255/1/3
f 261/1/3 258/1/3 257/1/3
f 262/1/3 258/1/3 261/1/3
f 263/1/3 260/1/3 259/1/3
f 264/1/3 260/1/3 263/1/3
f 269/1/3 266/1/3 265/1/3
f 270/1/3 266/1/3 269/1/3
f 271/1/3 268/1/3 267/1/3
f 272/1/3 268/1/3 271/1/3
f 275/1/3 274/1/3 273/1/3
f 276/1/3 274/1/3 275/1/3
f 279/1/3 278/1/3 277/1/3
f 280/1/3 278/1/3 279/1/3
f 283/1/3 282/1/3 281/1/3
f 284/1/3 282/1/3 283/1/3
f 285/2/4 286/2/4 287/2/4
f 287/2/4 286/2/4 288/2/4
f 289/2/4 290/2/4 291/2/4
f 291/2/4 290/2/4 292/2/4
f 293/1/4 294/1/4 295/1/4
f 295/1/4 294/1/4 296/1/4
f 297/2/4 298/2/4 299/2/4
f 299/2/4 298/2/4 300/2/4
f 300/2/4 298/2/4 301/2/4
f 302/2/4 303/2/4 305/2/4
f 303/2/4 304/2/4 305/2/4
f 305/2/4 304/2/4 306/2/4
f 307/1/4 308/1/4 309/1/4
f 309/1/4 308/1/4 310/1/4
f 310/1/4 308/1/4 311/1/4
f 311/1/4 308/1/4 312/1/4
f 312/1/4 308/1/4 314/1/4
f 313/1/4 314/1/4 316/1/4
f 315/1/4 316/1/4 317/1/4
f 314/1/4 308/1/4 318/1/4
f 317/1/4 316/1/4 318/1/4
f 316/1/4 314/1/4 318/1/4
f 319/1/4 320/1/4 321/1/4
f 319/1/4 321/1/4 323/1/4
f 321/1/4 322/1/4 323/1/4
f 323/1/4 322/1/4 324/1/4
f 324/1/4 322/1/4 325/1/4
f 325/1/4 322/1/4 326/1/4
f 324/1/4 325/1/4 327/1/4
f 325/2/4 326/2/4 328/2/4
f 327/1/4 325/1/4 328/1/4
f 328/2/4 326/2/4 329/2/4
f 328/2/4 329/2/4 332/2/4
f 329/2/4 330/2/4 332/2/4
f 332/2/4 330/2/4 333/2/4
f 333/2/4 330/2/4 334/2/4
f 331/1/4 332/1/4 336/1/4
f 332/2/4 333/2/4 337/2/4
f 336/1/4 332/1/4 337/1/4
f 337/2/4 333/2/4 338/2/4
f 335/1/4 336/1/4 339/1/4
f 336/1/4 337/1/4 339/1/4
f 337/1/4 338/1/4 339/1/4
f 339/1/4 338/1/4 340/1/4
f 335/1/4 339/1/4 341/1/4
f 341/1/4 339/1/4 342/1/4
f 343/1/4 344/1/4 345/1/4
f 345/1/4 344/1/4 346/1/4
f 351/1/5 348/1/5 347/1/5
f 352/1/5 348/1/5 351/1/5
f 353/1/5 350/1/5 349/1/5
f 354/1/5 350/1/5 353/1/5
f 359/1/5 356/1/5 355/1/5
f 360/1/5 356/1/5 359/1/5
f 361/1/5 358/1/5 357/1/5
f 362/1/5 358/1/5 361/1/5
f 367/1/5 364/1/5 363/1/5
f 368/1/5 364/1/5 367/1/5
f 369/1/5 366/1/5 365/1/5
f 370/1/5 366/1/5 369/1/5
f 375/1/5 372/1/5 371/1/5
f 376/1/5 372/1/5 375/1/5
f 377/1/5 374/1/5 373/1/5
f 378/1/5 374/1/5 377/1/5
f 381/1/5 380/1/5 379/1/5
f 382/1/5 380/1/5 381/1/5
f 385/1/5 384/1/5 383/1/5
f 386/1/5 384/1/5 385/1/5
f 391/2/5 388/2/5 387/2/5
f 392/2/5 390/2/5 389/2/5
f 393/2/5 391/2/5 387/2/5
f 394/1/5 392/1/5 391/1/5
f 394/2/5 391/2/5 393/2/5
f 395/2/5 390/2/5 392/2/5
f 395/1/5 392/1/5 394/1/5
f 396/2/5 390/2/5 395/2/5
f 397/1/5 395/1/5 394/1/5
f 398/1/5 395/1/5 397/1/5
f 401/1/5 400/1/5 399/1/5
f 402/1/5 400/1/5 401/1/5
f 403/1/5 400/1/5 402/1/5
f 404/1/5 400/1/5 403/1/5
f 405/1/5 403/1/5 402/1/5
f 406/1/5 403/1/5 405/1/5
f 407/1/5 403/1/5 406/1/5
f 408/1/5 403/1/5 407/1/5
f 409/1/5 407/1/5 406/1/5
f 411/1/5 409/1/5 406/1/5
f 411/1/5 410/1/5 409/1/5
f 412/1/5 410/1/5 411/1/5
f 416/4/5 414/4/5 413/4/5
f 417/4/5 414/4/5 416/4/5
f 419/1/5 416/1/5 415/1/5
f 419/1/5 418/1/5 417/1/5
f 419/1/5 417/1/5 416/1/5
f 420/1/5 418/1/5 419/1/5
f 421/1/6 422/1/6 425/1/6
f 425/1/6 422/1/6 426/1/6
f 423/1/6 424/1/6 427/1/6
f 427/1/6 424/1/6 428/1/6
f 429/1/6 430/1/6 433/1/6
f 433/1/6 430/1/6 434/1/6
f 431/1/6 432/1/6 435/1/6
f 435/1/6 432/1/6 436/1/6
f 437/1/6 438/1/6 440/1/6
f 440/1/6 438/1/6 441/1/6
f 439/1/6 440/1/6 443/1/6
f 443/1/6 440/1/6 444/1/6
f 441/1/6 442/1/6 445/1/6
f 445/1/6 442/1/6 446/1/6
f 447/2/6 448/2/6 451/2/6
f 451/2/6 448/2/6 452/2/6
f 449/2/6 450/2/6 453/2/6
f 453/2/6 450/2/6 454/2/6
f 452/3/6 453/3/6 456/3/6
f 456/3/6 453/3/6 457/3/6
f 455/2/6 456/2/6 459/2/6
f 456/3/6 457/3/6 460/3/6
f 459/2/6 456/2/6 460/2/6
f 457/2/6 458/2/6 461/2/6
f 460/3/6 457/3/6 461/3/6
f 461/2/6 458/2/6 462/2/6
f 463/4/6 464/4/6 466/4/6
f 466/4/6 464/4/6 467/4/6
f 465/1/6 466/1/6 469/1/6
f 467/1/6 468/1/6 469/1/6
f 466/1/6 467/1/6 469/1/6
f 469/1/6 468/1/6 470/1/6
f 471/1/6 472/1/6 475/1/6
f 475/1/6 472/1/6 476/1/6
f 473/1/6 474/1/6 479/1/6
f 479/1/6 474/1/6 480/1/6
f 477/1/6 478/1/6 481/1/6
f 477/1/6 481/1/6 483/1/6
f 481/1/6 482/1/6 483/1/6
f 483/1/6 482/1/6 484/1/6
f 485/2/6 486/2/6 489/2/6
f 486/1/6 487/1/6 490/1/6
f 489/2/6 486/2/6 490/2/6
f 490/1/6 487/1/6 491/1/6
f 491/1/6 487/1/6 492/1/6
f 487/2/6 488/2/6 493/2/6
f 492/1/6 487/1/6 493/1/6
f 493/2/6 488/2/6 494/2/6
f 490/2/6 491/2/6 496/2/6
f 492/2/6 493/2/6 497/2/6
f 495/1/6 496/1/6 499/1/6
f 496/2/6 491/2/6 500/2/6
f 499/1/6 496/1/6 500/1/6
f 500/2/6 491/2/6 501/2/6
f 492/2/6 497/2/6 502/2/6
f 497/1/6 498/1/6 503/1/6
f 502/2/6 497/2/6 503/2/6
f 503/1/6 498/1/6 504/1/6
f 505/2/6 506/2/6 507/2/6
f 507/2/6 506/2/6 508/2/6
