# MagicaVoxel @ Ephtracy

# group
g player

# material
mtllib player.mtl
usemtl palette

# normals
vn -1 0 0
vn 1 0 0
vn 0 0 1
vn 0 0 -1
vn 0 -1 0
vn 0 1 0

# texcoords
vt 0.533203 0.5
vt 0.630859 0.5
vt 0.658203 0.5
vt 0.673828 0.5
vt 0.693359 0.5

# verts
v -3.5 4 1.5
v -3.5 4 0.5
v -3.5 5 1.5
v -3.5 5 0.5
v -3.5 6 1.5
v -3.5 6 0.5
v -3.5 8 1.5
v -3.5 8 0.5
v -2.5 0 2.5
v -2.5 0 0.5
v -2.5 1 2.5
v -2.5 1 1.5
v -2.5 1 0.5
v -2.5 2 1.5
v -2.5 2 0.5
v -2.5 4 2.5
v -2.5 4 1.5
v -2.5 4 0.5
v -2.5 4 -0.5
v -2.5 5 2.5
v -2.5 5 1.5
v -2.5 5 0.5
v -2.5 5 -0.5
v -2.5 6 2.5
v -2.5 6 1.5
v -2.5 6 0.5
v -2.5 6 -0.5
v -2.5 8 2.5
v -2.5 8 1.5
v -2.5 8 0.5
v -2.5 8 -0.5
v -1.5 5 3.5
v -1.5 5 2.5
v -1.5 6 2.5
v -1.5 8 2.5
v -1.5 8 -0.5
v -1.5 9 3.5
v -1.5 9 2.5
v -1.5 10 0.5
v -1.5 10 -0.5
v -1.5 11 2.5
v -1.5 11 0.5
v -1.5 12 2.5
v -1.5 12 -0.5
v -1.5 13 2.5
v -1.5 13 1.5
v -1.5 13 -0.5
v -1.5 13 -2.5
v -1.5 13 -3.5
v -1.5 14 1.5
v -1.5 14 -2.5
v -1.5 14 -3.5
v 1.5 0 2.5
v 1.5 0 0.5
v 1.5 1 2.5
v 1.5 1 1.5
v 1.5 1 0.5
v 1.5 2 1.5
v 1.5 2 0.5
v 1.5 4 1.5
v 1.5 4 0.5
v -1.5 0 2.5
v -1.5 0 0.5
v -1.5 1 2.5
v -1.5 1 1.5
v -1.5 1 0.5
v -1.5 2 1.5
v -1.5 2 0.5
v -1.5 4 1.5
v -1.5 4 0.5
v 1.5 5 3.5
v 1.5 5 2.5
v 1.5 6 2.5
v 1.5 8 2.5
v 1.5 8 -0.5
v 1.5 9 3.5
v 1.5 9 2.5
v 1.5 10 0.5
v 1.5 10 -0.5
v 1.5 11 2.5
v 1.5 11 0.5
v 1.5 12 2.5
v 1.5 12 -0.5
v 1.5 13 2.5
v 1.5 13 1.5
v 1.5 13 -0.5
v 1.5 13 -2.5
v 1.5 13 -3.5
v 1.5 14 1.5
v 1.5 14 -2.5
v 1.5 14 -3.5
v 2.5 0 2.5
v 2.5 0 0.5
v 2.5 1 2.5
v 2.5 1 1.5
v 2.5 1 0.5
v 2.5 2 1.5
v 2.5 2 0.5
v 2.5 4 2.5
v 2.5 4 1.5
v 2.5 4 0.5
v 2.5 4 -0.5
v 2.5 5 2.5
v 2.5 5 1.5
v 2.5 5 0.5
v 2.5 5 -0.5
v 2.5 6 2.5
v 2.5 6 1.5
v 2.5 6 0.5
v 2.5 6 -0.5
v 2.5 8 2.5
v 2.5 8 1.5
v 2.5 8 0.5
v 2.5 8 -0.5
v 3.5 4 1.5
v 3.5 4 0.5
v 3.5 5 1.5
v 3.5 5 0.5
v 3.5 6 1.5
v 3.5 6 0.5
v 3.5 8 1.5
v 3.5 8 0.5
v -1.5 5 3.5
v -1.5 9 3.5
v 1.5 5 3.5
v 1.5 9 3.5
v -2.5 0 2.5
v -2.5 1 2.5
v -2.5 4 2.5
v -2.5 5 2.5
v -2.5 6 2.5
v -2.5 8 2.5
v -1.5 0 2.5
v -1.5 1 2.5
v -1.5 5 2.5
v -1.5 6 2.5
v -1.5 8 2.5
v -1.5 9 2.5
v -1.5 11 2.5
v -1.5 12 2.5
v -1.5 13 2.5
v 1.5 0 2.5
v 1.5 1 2.5
v 1.5 5 2.5
v 1.5 6 2.5
v 1.5 8 2.5
v 1.5 9 2.5
v 1.5 11 2.5
v 1.5 12 2.5
v 1.5 13 2.5
v 2.5 0 2.5
v 2.5 1 2.5
v 2.5 4 2.5
v 2.5 5 2.5
v 2.5 6 2.5
v 2.5 8 2.5
v -3.5 4 1.5
v -3.5 5 1.5
v -3.5 6 1.5
v -3.5 8 1.5
v -2.5 1 1.5
v -2.5 2 1.5
v -2.5 4 1.5
v -2.5 5 1.5
v -2.5 6 1.5
v -2.5 8 1.5
v -1.5 1 1.5
v -1.5 2 1.5
v -1.5 4 1.5
v -1.5 13 1.5
v -1.5 14 1.5
v 1.5 1 1.5
v 1.5 2 1.5
v 1.5 4 1.5
v 1.5 13 1.5
v 1.5 14 1.5
v 2.5 1 1.5
v 2.5 2 1.5
v 2.5 4 1.5
v 2.5 5 1.5
v 2.5 6 1.5
v 2.5 8 1.5
v 3.5 4 1.5
v 3.5 5 1.5
v 3.5 6 1.5
v 3.5 8 1.5
v -3.5 4 0.5
v -3.5 5 0.5
v -3.5 6 0.5
v -3.5 8 0.5
v -2.5 0 0.5
v -2.5 1 0.5
v -2.5 2 0.5
v -2.5 4 0.5
v -2.5 5 0.5
v -2.5 6 0.5
v -2.5 8 0.5
v -1.5 0 0.5
v -1.5 1 0.5
v -1.5 2 0.5
v -1.5 4 0.5
v 1.5 0 0.5
v 1.5 1 0.5
v 1.5 2 0.5
v 1.5 4 0.5
v 2.5 0 0.5
v 2.5 1 0.5
v 2.5 2 0.5
v 2.5 4 0.5
v 2.5 5 0.5
v 2.5 6 0.5
v 2.5 8 0.5
v 3.5 4 0.5
v 3.5 5 0.5
v 3.5 6 0.5
v 3.5 8 0.5
v -2.5 4 -0.5
v -2.5 5 -0.5
v -2.5 6 -0.5
v -2.5 8 -0.5
v -1.5 8 -0.5
v -1.5 10 -0.5
v -1.5 12 -0.5
v -1.5 13 -0.5
v 1.5 8 -0.5
v 1.5 10 -0.5
v 1.5 12 -0.5
v 1.5 13 -0.5
v 2.5 4 -0.5
v 2.5 5 -0.5
v 2.5 6 -0.5
v 2.5 8 -0.5
v -1.5 13 -3.5
v -1.5 14 -3.5
v 1.5 13 -3.5
v 1.5 14 -3.5
v -2.5 0 2.5
v -1.5 0 2.5
v 1.5 0 2.5
v 2.5 0 2.5
v -2.5 0 0.5
v -1.5 0 0.5
v 1.5 0 0.5
v 2.5 0 0.5
v -2.5 4 2.5
v 2.5 4 2.5
v -3.5 4 1.5
v -2.5 4 1.5
v -1.5 4 1.5
v 1.5 4 1.5
v 2.5 4 1.5
v 3.5 4 1.5
v -3.5 4 0.5
v -2.5 4 0.5
v -1.5 4 0.5
v 1.5 4 0.5
v 2.5 4 0.5
v 3.5 4 0.5
v -2.5 4 -0.5
v 2.5 4 -0.5
v -1.5 5 3.5
v 1.5 5 3.5
v -1.5 5 2.5
v 1.5 5 2.5
v -1.5 13 -0.5
v 1.5 13 -0.5
v -1.5 13 -2.5
v 1.5 13 -2.5
v -1.5 13 -3.5
v 1.5 13 -3.5
v -2.5 1 2.5
v -1.5 1 2.5
v 1.5 1 2.5
v 2.5 1 2.5
v -2.5 1 1.5
v -1.5 1 1.5
v 1.5 1 1.5
v 2.5 1 1.5
v -2.5 8 2.5
v -1.5 8 2.5
v 1.5 8 2.5
v 2.5 8 2.5
v -3.5 8 1.5
v -2.5 8 1.5
v 2.5 8 1.5
v 3.5 8 1.5
v -3.5 8 0.5
v -2.5 8 0.5
v 2.5 8 0.5
v 3.5 8 0.5
v -2.5 8 -0.5
v -1.5 8 -0.5
v 1.5 8 -0.5
v 2.5 8 -0.5
v -1.5 9 3.5
v 1.5 9 3.5
v -1.5 9 2.5
v 1.5 9 2.5
v -1.5 13 2.5
v 1.5 13 2.5
v -1.5 13 1.5
v 1.5 13 1.5
v -1.5 14 1.5
v 1.5 14 1.5
v -1.5 14 -2.5
v 1.5 14 -2.5
v -1.5 14 -3.5
v 1.5 14 -3.5

# faces
f 3/5/1 2/5/1 1/5/1
f 4/5/1 2/5/1 3/5/1
f 5/1/1 4/1/1 3/1/1
f 6/1/1 4/1/1 5/1/1
f 7/3/1 6/3/1 5/3/1
f 8/3/1 6/3/1 7/3/1
f 11/2/1 10/2/1 9/2/1
f 12/2/1 10/2/1 11/2/1
f 13/2/1 10/2/1 12/2/1
f 14/1/1 13/1/1 12/1/1
f 15/1/1 13/1/1 14/1/1
f 17/3/1 15/3/1 14/3/1
f 18/3/1 15/3/1 17/3/1
f 20/3/1 17/3/1 16/3/1
f 21/3/1 17/3/1 20/3/1
f 22/3/1 19/3/1 18/3/1
f 23/3/1 19/3/1 22/3/1
f 24/2/1 21/2/1 20/2/1
f 25/2/1 21/2/1 24/2/1
f 26/2/1 23/2/1 22/2/1
f 27/2/1 23/2/1 26/2/1
f 28/3/1 25/3/1 24/3/1
f 29/3/1 25/3/1 28/3/1
f 30/3/1 27/3/1 26/3/1
f 31/3/1 27/3/1 30/3/1
f 34/4/1 33/4/1 32/4/1
f 35/4/1 34/4/1 32/4/1
f 37/4/1 35/4/1 32/4/1
f 38/5/1 36/5/1 35/5/1
f 38/4/1 35/4/1 37/4/1
f 39/5/1 36/5/1 38/5/1
f 40/5/1 36/5/1 39/5/1
f 41/5/1 39/5/1 38/5/1
f 42/4/1 40/4/1 39/4/1
f 42/5/1 39/5/1 41/5/1
f 43/4/1 42/4/1 41/4/1
f 44/4/1 40/4/1 42/4/1
f 44/4/1 42/4/1 43/4/1
f 45/3/1 44/3/1 43/3/1
f 46/3/1 44/3/1 45/3/1
f 47/3/1 44/3/1 46/3/1
f 50/3/1 47/3/1 46/3/1
f 50/3/1 48/3/1 47/3/1
f 51/4/1 49/4/1 48/4/1
f 51/3/1 48/3/1 50/3/1
f 52/4/1 49/4/1 51/4/1
f 55/2/1 54/2/1 53/2/1
f 56/2/1 54/2/1 55/2/1
f 57/2/1 54/2/1 56/2/1
f 58/1/1 57/1/1 56/1/1
f 59/1/1 57/1/1 58/1/1
f 60/3/1 59/3/1 58/3/1
f 61/3/1 59/3/1 60/3/1
f 62/2/2 63/2/2 64/2/2
f 64/2/2 63/2/2 65/2/2
f 65/2/2 63/2/2 66/2/2
f 65/1/2 66/1/2 67/1/2
f 67/1/2 66/1/2 68/1/2
f 67/3/2 68/3/2 69/3/2
f 69/3/2 68/3/2 70/3/2
f 71/4/2 72/4/2 73/4/2
f 71/4/2 73/4/2 74/4/2
f 71/4/2 74/4/2 76/4/2
f 74/5/2 75/5/2 77/5/2
f 76/4/2 74/4/2 77/4/2
f 77/5/2 75/5/2 78/5/2
f 78/5/2 75/5/2 79/5/2
f 77/5/2 78/5/2 80/5/2
f 78/4/2 79/4/2 81/4/2
f 80/5/2 78/5/2 81/5/2
f 80/4/2 81/4/2 82/4/2
f 81/4/2 79/4/2 83/4/2
f 82/4/2 81/4/2 83/4/2
f 82/3/2 83/3/2 84/3/2
f 84/3/2 83/3/2 85/3/2
f 85/3/2 83/3/2 86/3/2
f 85/3/2 86/3/2 89/3/2
f 86/3/2 87/3/2 89/3/2
f 87/4/2 88/4/2 90/4/2
f 89/3/2 87/3/2 90/3/2
f 90/4/2 88/4/2 91/4/2
f 92/2/2 93/2/2 94/2/2
f 94/2/2 93/2/2 95/2/2
f 95/2/2 93/2/2 96/2/2
f 95/1/2 96/1/2 97/1/2
f 97/1/2 96/1/2 98/1/2
f 97/3/2 98/3/2 100/3/2
f 100/3/2 98/3/2 101/3/2
f 99/3/2 100/3/2 103/3/2
f 103/3/2 100/3/2 104/3/2
f 101/3/2 102/3/2 105/3/2
f 105/3/2 102/3/2 106/3/2
f 103/2/2 104/2/2 107/2/2
f 107/2/2 104/2/2 108/2/2
f 105/2/2 106/2/2 109/2/2
f 109/2/2 106/2/2 110/2/2
f 107/3/2 108/3/2 111/3/2
f 111/3/2 108/3/2 112/3/2
f 109/3/2 110/3/2 113/3/2
f 113/3/2 110/3/2 114/3/2
f 115/5/2 116/5/2 117/5/2
f 117/5/2 116/5/2 118/5/2
f 117/1/2 118/1/2 119/1/2
f 119/1/2 118/1/2 120/1/2
f 119/3/2 120/3/2 121/3/2
f 121/3/2 120/3/2 122/3/2
f 125/4/3 124/4/3 123/4/3
f 126/4/3 124/4/3 125/4/3
f 133/2/3 128/2/3 127/2/3
f 134/2/3 128/2/3 133/2/3
f 135/3/3 130/3/3 129/3/3
f 135/2/3 131/2/3 130/2/3
f 136/3/3 132/3/3 131/3/3
f 136/2/3 131/2/3 135/2/3
f 137/3/3 132/3/3 136/3/3
f 144/3/3 135/3/3 129/3/3
f 147/5/3 139/5/3 138/5/3
f 148/4/3 140/4/3 139/4/3
f 148/5/3 139/5/3 147/5/3
f 149/3/3 141/3/3 140/3/3
f 149/4/3 140/4/3 148/4/3
f 150/3/3 141/3/3 149/3/3
f 151/2/3 143/2/3 142/2/3
f 152/2/3 143/2/3 151/2/3
f 153/3/3 144/3/3 129/3/3
f 154/2/3 145/2/3 144/2/3
f 154/3/3 144/3/3 153/3/3
f 155/3/3 146/3/3 145/3/3
f 155/2/3 145/2/3 154/2/3
f 156/3/3 146/3/3 155/3/3
f 163/5/3 158/5/3 157/5/3
f 164/1/3 159/1/3 158/1/3
f 164/5/3 158/5/3 163/5/3
f 165/3/3 160/3/3 159/3/3
f 165/1/3 159/1/3 164/1/3
f 166/3/3 160/3/3 165/3/3
f 167/1/3 162/1/3 161/1/3
f 168/3/3 163/3/3 162/3/3
f 168/1/3 162/1/3 167/1/3
f 169/3/3 163/3/3 168/3/3
f 175/3/3 171/3/3 170/3/3
f 176/3/3 171/3/3 175/3/3
f 177/1/3 173/1/3 172/1/3
f 178/3/3 174/3/3 173/3/3
f 178/1/3 173/1/3 177/1/3
f 179/3/3 174/3/3 178/3/3
f 183/5/3 180/5/3 179/5/3
f 184/1/3 181/1/3 180/1/3
f 184/5/3 180/5/3 183/5/3
f 185/3/3 182/3/3 181/3/3
f 185/1/3 181/1/3 184/1/3
f 186/3/3 182/3/3 185/3/3
f 187/5/4 188/5/4 194/5/4
f 188/1/4 189/1/4 195/1/4
f 194/5/4 188/5/4 195/5/4
f 189/3/4 190/3/4 196/3/4
f 195/1/4 189/1/4 196/1/4
f 196/3/4 190/3/4 197/3/4
f 191/2/4 192/2/4 198/2/4
f 192/1/4 193/1/4 199/1/4
f 198/2/4 192/2/4 199/2/4
f 193/3/4 194/3/4 200/3/4
f 199/1/4 193/1/4 200/1/4
f 200/3/4 194/3/4 201/3/4
f 202/2/4 203/2/4 206/2/4
f 203/1/4 204/1/4 207/1/4
f 206/2/4 203/2/4 207/2/4
f 204/3/4 205/3/4 208/3/4
f 207/1/4 204/1/4 208/1/4
f 208/3/4 205/3/4 209/3/4
f 209/5/4 210/5/4 213/5/4
f 210/1/4 211/1/4 214/1/4
f 213/5/4 210/5/4 214/5/4
f 211/3/4 212/3/4 215/3/4
f 214/1/4 211/1/4 215/1/4
f 215/3/4 212/3/4 216/3/4
f 219/3/4 220/3/4 221/3/4
f 219/3/4 221/3/4 225/3/4
f 221/5/4 222/5/4 225/5/4
f 222/4/4 223/4/4 226/4/4
f 225/5/4 222/5/4 226/5/4
f 223/3/4 224/3/4 227/3/4
f 226/4/4 223/4/4 227/4/4
f 227/3/4 224/3/4 228/3/4
f 217/3/4 218/3/4 229/3/4
f 218/2/4 219/2/4 230/2/4
f 229/3/4 218/3/4 230/3/4
f 219/3/4 225/3/4 231/3/4
f 230/2/4 219/2/4 231/2/4
f 231/3/4 225/3/4 232/3/4
f 233/4/4 234/4/4 235/4/4
f 235/4/4 234/4/4 236/4/4
f 241/2/5 238/2/5 237/2/5
f 242/2/5 238/2/5 241/2/5
f 243/2/5 240/2/5 239/2/5
f 244/2/5 240/2/5 243/2/5
f 248/3/5 246/3/5 245/3/5
f 249/3/5 246/3/5 248/3/5
f 250/3/5 246/3/5 249/3/5
f 251/3/5 246/3/5 250/3/5
f 253/5/5 248/5/5 247/5/5
f 254/5/5 248/5/5 253/5/5
f 255/3/5 250/3/5 249/3/5
f 256/3/5 250/3/5 255/3/5
f 257/5/5 252/5/5 251/5/5
f 258/5/5 252/5/5 257/5/5
f 259/3/5 256/3/5 255/3/5
f 259/3/5 257/3/5 256/3/5
f 259/3/5 255/3/5 254/3/5
f 260/3/5 257/3/5 259/3/5
f 263/4/5 262/4/5 261/4/5
f 264/4/5 262/4/5 263/4/5
f 267/3/5 266/3/5 265/3/5
f 268/3/5 266/3/5 267/3/5
f 269/4/5 268/4/5 267/4/5
f 270/4/5 268/4/5 269/4/5
f 271/2/6 272/2/6 275/2/6
f 275/2/6 272/2/6 276/2/6
f 273/2/6 274/2/6 277/2/6
f 277/2/6 274/2/6 278/2/6
f 279/3/6 280/3/6 284/3/6
f 281/3/6 282/3/6 285/3/6
f 283/3/6 284/3/6 287/3/6
f 284/3/6 280/3/6 288/3/6
f 287/3/6 284/3/6 288/3/6
f 285/3/6 286/3/6 289/3/6
f 281/3/6 285/3/6 289/3/6
f 289/3/6 286/3/6 290/3/6
f 288/3/6 280/3/6 291/3/6
f 291/3/6 280/3/6 292/3/6
f 281/3/6 289/3/6 293/3/6
f 293/3/6 289/3/6 294/3/6
f 295/4/6 296/4/6 297/4/6
f 297/4/6 296/4/6 298/4/6
f 299/3/6 300/3/6 301/3/6
f 301/3/6 300/3/6 302/3/6
f 303/3/6 304/3/6 305/3/6
f 305/3/6 304/3/6 306/3/6
f 305/4/6 306/4/6 307/4/6
f 307/4/6 306/4/6 308/4/6
